<svg width="56" height="56" viewBox="0 0 56 56" fill="none" xmlns="http://www.w3.org/2000/svg">
<path d="M11.7655 35.3875C11.7655 38.6253 9.12052 41.2702 5.88274 41.2702C2.64495 41.2702 0 38.6253 0 35.3875C0 32.1497 2.64495 29.5048 5.88274 29.5048H11.7655V35.3875Z" fill="#E01E5A"/>
<path d="M14.7285 35.3875C14.7285 32.1497 17.3735 29.5048 20.6113 29.5048C23.849 29.5048 26.494 32.1497 26.494 35.3875V50.1171C26.494 53.3549 23.849 55.9999 20.6113 55.9999C17.3735 55.9999 14.7285 53.3549 14.7285 50.1171V35.3875Z" fill="#E01E5A"/>
<path d="M20.6122 11.7663C17.3744 11.7663 14.7295 9.12138 14.7295 5.88359C14.7295 2.64581 17.3744 0.000854492 20.6122 0.000854492C23.85 0.000854492 26.495 2.64581 26.495 5.88359V11.7663H20.6122Z" fill="#36C5F0"/>
<path d="M20.6124 14.7313C23.8502 14.7313 26.4951 17.3763 26.4951 20.6141C26.4951 23.8518 23.8502 26.4968 20.6124 26.4968H5.88274C2.64495 26.4968 0 23.8518 0 20.6141C0 17.3763 2.64495 14.7313 5.88274 14.7313H20.6124Z" fill="#36C5F0"/>
<path d="M44.2344 20.6141C44.2344 17.3763 46.8793 14.7313 50.1171 14.7313C53.3549 14.7313 55.9998 17.3763 55.9998 20.6141C55.9998 23.8518 53.3549 26.4968 50.1171 26.4968H44.2344V20.6141Z" fill="#2EB67D"/>
<path d="M41.2704 20.6132C41.2704 23.851 38.6254 26.496 35.3876 26.496C32.1498 26.496 29.5049 23.851 29.5049 20.6132V5.88359C29.5049 2.64581 32.1498 0.000854492 35.3876 0.000854492C38.6254 0.000854492 41.2704 2.64581 41.2704 5.88359V20.6132Z" fill="#2EB67D"/>
<path d="M35.3886 44.2352C38.6264 44.2352 41.2713 46.8802 41.2713 50.118C41.2713 53.3558 38.6264 56.0007 35.3886 56.0007C32.1508 56.0007 29.5059 53.3558 29.5059 50.118V44.2352H35.3886Z" fill="#ECB22E"/>
<path d="M35.3886 41.2702C32.1508 41.2702 29.5059 38.6253 29.5059 35.3875C29.5059 32.1497 32.1508 29.5048 35.3886 29.5048H50.1182C53.356 29.5048 56.001 32.1497 56.001 35.3875C56.001 38.6253 53.356 41.2702 50.1182 41.2702H35.3886Z" fill="#ECB22E"/>
</svg>
