<svg width="56" height="56" viewBox="0 0 56 56" fill="none" xmlns="http://www.w3.org/2000/svg">
<path fill-rule="evenodd" clip-rule="evenodd" d="M50.0611 9.74399C49.6452 7.50912 48.3218 6.40785 47.1253 5.97483C45.8344 5.50639 43.2167 5.02115 39.9278 4.63196C37.2818 4.31912 34.1719 4.34402 32.2933 4.40232C32.0678 2.85192 30.9847 1.43559 29.7727 0.945234C26.5436 -0.359705 21.5543 -0.0444499 20.2733 0.315979C19.2554 0.601601 18.1287 1.18703 17.5017 2.08897C17.0811 2.69149 16.8091 3.46341 16.8069 4.5418C16.8069 5.15214 16.8239 6.5899 16.8393 7.86723C16.8521 8.93413 16.8659 9.90715 16.8701 10.2076L16.8701 10.2081L16.8715 10.3025C16.8709 11.4433 15.9499 12.3718 14.8086 12.3733H9.57295C8.45623 12.3733 7.60285 12.5617 6.95109 12.859C6.29827 13.1566 5.83591 13.5578 5.4846 14.0325C4.78525 14.9749 4.66391 16.138 4.6668 17.3249C4.6668 17.3249 4.67709 18.2948 4.90985 20.172C5.10329 21.6245 6.67227 31.7716 8.16261 34.8576C8.74034 36.0583 9.1253 36.5584 10.2605 37.0876C12.7897 38.1748 18.567 39.3842 21.2747 39.7306C21.7225 39.7881 22.1427 39.8561 22.5368 39.9199L22.5368 39.9199C24.5208 40.2412 25.8414 40.455 26.6848 38.6795C26.6882 38.6743 26.8874 38.15 27.1612 37.3811C28.0389 34.7109 28.1611 32.3417 28.1611 30.6273C28.1611 30.4529 28.4159 30.4449 28.4159 30.6273C28.4159 30.6946 28.4152 30.7715 28.4144 30.8568V30.8568C28.401 32.3047 28.365 36.185 31.4085 37.2702C32.6808 37.7232 35.32 38.1271 38.0018 38.4426C40.4266 38.7224 42.1864 39.6805 42.1864 45.9263C42.1864 49.7263 41.3914 50.2472 37.2355 50.2472L36.9264 50.2474C33.7877 50.25 32.5826 50.251 32.5826 47.6478C32.5826 45.661 34.3731 45.6823 35.892 45.7003C36.0335 45.702 36.1725 45.7036 36.3076 45.7036C36.7533 45.7036 36.7149 45.4941 36.6252 45.0047C36.5724 44.7166 36.5018 44.3314 36.5018 43.8349C36.5018 43.2699 36.651 42.806 36.7631 42.4574C36.9154 41.9838 36.9991 41.7233 36.5467 41.712C31.0639 41.5605 27.8378 41.7057 27.8378 48.59C27.8378 54.8398 30.22 56.0004 38.0018 56.0004C44.1031 56.0004 46.2538 55.7998 48.7731 47.9519C49.2718 46.4027 50.4774 41.6747 51.207 33.7364C51.6681 28.717 50.7719 13.5676 50.0611 9.74399ZM39.4252 26.49C38.6715 26.4636 37.9464 26.5114 37.2703 26.6204C37.4606 25.0777 38.0949 23.1846 40.3418 23.2638C42.829 23.3498 43.1775 25.7099 43.1865 27.3086C42.1376 26.8392 40.8393 26.5399 39.4252 26.49ZM9.33066 10.8484H9.32719C8.04155 10.8484 6.96752 11.0684 6.08175 11.4697C6.04144 11.4873 5.75864 11.6278 5.54872 11.7321L5.54305 11.7349C5.54882 11.7131 5.56122 11.6918 5.58112 11.6753L15.7524 1.54887C15.7723 1.52889 15.7924 1.51904 15.8124 1.51567L15.6334 1.85322C15.2587 2.60477 15.0437 3.50179 15.0437 4.53057V4.54534C15.0437 5.75065 15.1026 9.96672 15.107 10.2852L15.1073 10.3043C15.1066 10.6031 14.8654 10.8484 14.5654 10.8484H9.33066Z" fill="#20C05C"/>
</svg>
