<svg width="56" height="43" viewBox="0 0 56 43" fill="none" xmlns="http://www.w3.org/2000/svg">
<path d="M52.4298 42.5362H3.50261C1.60543 42.5362 0.0078125 40.9885 0.0078125 39.0414V3.69402C0.0078125 1.79684 1.55551 0.199219 3.50261 0.199219H52.4298C54.3269 0.199219 55.9246 1.74691 55.9246 3.69402V39.0414C55.9246 40.9885 54.3769 42.5362 52.4298 42.5362Z" fill="#E3E3E3"/>
<path opacity="0.1" d="M6.99645 42.5396L27.9153 25.7146L28.0651 24.8159L6.49719 9.28906L6.44727 41.7907L6.99645 42.5396Z" fill="#070A11"/>
<path d="M3.50261 42.5363C1.55551 42.5363 0.0078125 40.9886 0.0078125 39.0415V3.64424C0.0078125 1.69714 1.55551 1.34766 3.50261 1.34766C5.44971 1.34766 6.99741 1.74706 6.99741 3.64424V42.5363H3.50261Z" fill="#D54B3D"/>
<path d="M3.50261 1.84691C5.99889 1.84691 6.49815 2.5958 6.49815 3.64424V42.0371H3.50261C1.85506 42.0371 0.507069 40.6891 0.507069 39.0415V3.64424C0.507069 2.54587 1.00633 1.84691 3.50261 1.84691ZM3.50261 1.34766C1.55551 1.34766 0.0078125 1.74706 0.0078125 3.64424V39.0415C0.0078125 40.9886 1.55551 42.5363 3.50261 42.5363H6.99741V3.64424C6.99741 1.69714 5.44971 1.34766 3.50261 1.34766Z" fill="#D72B27"/>
<path d="M52.4284 42.5363H48.9336V3.54439C48.9336 1.59728 50.4813 1.34766 52.4284 1.34766C54.3755 1.34766 55.9232 1.59728 55.9232 3.54439V39.0915C55.9232 40.9886 54.3755 42.5363 52.4284 42.5363Z" fill="#D54B3D"/>
<path d="M52.4284 1.84691C54.6751 1.84691 55.4239 2.29624 55.4239 3.54439V39.0915C55.4239 40.739 54.0759 42.087 52.4284 42.087H49.4329V3.54439C49.4329 2.24632 50.1817 1.84691 52.4284 1.84691ZM52.4284 1.34766C50.4813 1.34766 48.9336 1.59728 48.9336 3.54439V42.5863H52.4284C54.3755 42.5863 55.9232 41.0386 55.9232 39.0915V3.54439C55.9232 1.59728 54.3755 1.34766 52.4284 1.34766Z" fill="#D72B27"/>
<path d="M37.4506 42.5357L0.298828 5.0954L2.25298 5.89028L28.1145 24.5125L55.9231 4.12109L55.9231 39.0908C55.9231 40.988 54.3754 42.5357 52.4283 42.5357H37.4506Z" fill="url(#paint0_linear_20005153_1696)"/>
<path d="M27.9158 25.7106L1.50508 6.53918C-0.0426194 5.39089 -0.49195 3.19416 0.65634 1.64646C1.80463 0.0987677 4.05129 -0.250712 5.64891 0.897578L27.9657 17.1234L50.4322 0.697875C51.9799 -0.450415 54.1767 -0.100935 55.3249 1.49669C56.4732 3.04438 56.1238 5.24111 54.5261 6.3894L27.9158 25.7106Z" fill="#D54B3D"/>
<path d="M52.4293 0.499257C53.3778 0.499257 54.2765 0.948588 54.8756 1.7474C55.8242 3.09539 55.5247 4.94264 54.2266 5.94115L27.9158 25.1126L1.80464 6.14086C0.456645 5.14234 0.107165 3.24517 1.05575 1.9471C1.60494 1.19822 2.55352 0.698959 3.55204 0.698959C4.20107 0.698959 4.8501 0.898662 5.34936 1.29807L27.6162 17.474L27.9158 17.6737L28.2153 17.474L50.6319 1.04844C51.1811 0.698959 51.7802 0.499257 52.4293 0.499257ZM52.4293 0C51.7303 0 50.9814 0.199703 50.3823 0.649034L27.9158 17.0746L5.59899 0.848736C4.99988 0.399405 4.251 0.199703 3.50211 0.199703C2.40375 0.199703 1.30538 0.698959 0.606422 1.64755C-0.491943 3.19524 -0.042612 5.39197 1.50508 6.54026L27.9158 25.7616L54.4762 6.39048C56.0239 5.24219 56.3734 3.09539 55.275 1.49777C54.5761 0.499257 53.5276 0 52.4293 0Z" fill="#D72B27"/>
<defs>
<linearGradient id="paint0_linear_20005153_1696" x1="0.300992" y1="23.3275" x2="55.941" y2="23.3275" gradientUnits="userSpaceOnUse">
<stop stop-opacity="0.1"/>
<stop offset="1" stop-opacity="0.2"/>
</linearGradient>
</defs>
</svg>
