<svg width="180" height="52" viewBox="0 0 180 52" fill="none" xmlns="http://www.w3.org/2000/svg">
<rect width="144" height="41.6" rx="8" transform="matrix(1.25 0 0 -1.25 0 52)" fill="#0B0F19"/>
<path d="M66.505 14.9594C66.505 15.9108 66.2133 16.6728 65.6386 17.241C64.9777 17.9147 64.1171 18.2537 63.0624 18.2537C62.0544 18.2537 61.1938 17.909 60.4877 17.2296C59.7803 16.5403 59.4272 15.6943 59.4272 14.6817C59.4272 13.6691 59.7803 12.8231 60.4877 12.1395C61.1938 11.4544 62.0544 11.1097 63.0624 11.1097C63.5642 11.1097 64.0427 11.2109 64.4993 11.3989C64.9544 11.5883 65.3249 11.8446 65.5933 12.1608L64.9836 12.7618C64.5153 12.2221 63.8779 11.9557 63.0624 11.9557C62.3272 11.9557 61.6898 12.2064 61.1486 12.712C60.6132 13.219 60.3448 13.8756 60.3448 14.6817C60.3448 15.4878 60.6132 16.1501 61.1486 16.6571C61.6898 17.157 62.3272 17.4134 63.0624 17.4134C63.8428 17.4134 64.4993 17.157 65.0171 16.6514C65.3585 16.3167 65.5525 15.8553 65.6035 15.2656H63.0624V14.4424H66.4525C66.4934 14.6205 66.505 14.7928 66.505 14.9594Z" fill="white"/>
<path d="M71.8834 12.1053H68.699V14.2701H71.5698V15.0933H68.699V17.2581H71.8834V18.097H67.7975V11.2664H71.8834V12.1053Z" fill="white"/>
<path d="M75.679 18.097H74.7775V12.1053H72.8243V11.2664H77.6337V12.1053H75.679V18.097Z" fill="white"/>
<path d="M81.1143 18.097V11.2664H82.0143V18.097H81.1143Z" fill="white"/>
<path d="M86.004 18.097H85.1098V12.1053H83.1492V11.2664H87.9645V12.1053H86.004V18.097Z" fill="white"/>
<path d="M97.07 17.2183C96.38 17.909 95.5252 18.2537 94.5055 18.2537C93.48 18.2537 92.6252 17.909 91.9352 17.2183C91.2467 16.5289 90.9039 15.6829 90.9039 14.6817C90.9039 13.6805 91.2467 12.8345 91.9352 12.1452C92.6252 11.4544 93.48 11.1097 94.5055 11.1097C95.5193 11.1097 96.3742 11.4544 97.0642 12.1509C97.7585 12.8459 98.1013 13.6862 98.1013 14.6817C98.1013 15.6829 97.7585 16.5289 97.07 17.2183ZM92.6019 16.6457C93.1212 17.157 93.7528 17.4134 94.5055 17.4134C95.2524 17.4134 95.8899 17.157 96.4033 16.6457C96.9212 16.1344 97.1838 15.4778 97.1838 14.6817C97.1838 13.8856 96.9212 13.229 96.4033 12.7177C95.8899 12.2064 95.2524 11.95 94.5055 11.95C93.7528 11.95 93.1212 12.2064 92.6019 12.7177C92.084 13.229 91.8214 13.8856 91.8214 14.6817C91.8214 15.4778 92.084 16.1344 92.6019 16.6457Z" fill="white"/>
<path d="M99.366 18.097V11.2664H100.46L103.862 16.5788H103.901L103.862 15.2656V11.2664H104.762V18.097H103.822L100.26 12.5226H100.221L100.26 13.8414V18.097H99.366Z" fill="white"/>
<path d="M90.6821 28.0743C87.9411 28.0743 85.702 30.111 85.702 32.921C85.702 35.7082 87.9411 37.7662 90.6821 37.7662C93.4289 37.7662 95.6681 35.7082 95.6681 32.921C95.6681 30.111 93.4289 28.0743 90.6821 28.0743ZM90.6821 35.8577C89.1781 35.8577 87.8842 34.6457 87.8842 32.921C87.8842 31.1734 89.1781 29.9828 90.6821 29.9828C92.1861 29.9828 93.4858 31.1734 93.4858 32.921C93.4858 34.6457 92.1861 35.8577 90.6821 35.8577ZM79.816 28.0743C77.0692 28.0743 74.8358 30.111 74.8358 32.921C74.8358 35.7082 77.0692 37.7662 79.816 37.7662C82.5613 37.7662 84.7961 35.7082 84.7961 32.921C84.7961 30.111 82.5613 28.0743 79.816 28.0743ZM79.816 35.8577C78.3105 35.8577 77.0123 34.6457 77.0123 32.921C77.0123 31.1734 78.3105 29.9828 79.816 29.9828C81.3199 29.9828 82.6138 31.1734 82.6138 32.921C82.6138 34.6457 81.3199 35.8577 79.816 35.8577ZM66.8857 29.5598V31.6192H71.9227C71.7754 32.77 71.3815 33.616 70.7776 34.2056C70.0424 34.9177 68.8973 35.7082 66.8857 35.7082C63.7859 35.7082 61.3585 33.2656 61.3585 30.2391C61.3585 27.2127 63.7859 24.7701 66.8857 24.7701C68.5618 24.7701 69.7813 25.4096 70.6813 26.2385L72.1678 24.7872C70.9089 23.6136 69.2343 22.7121 66.8857 22.7121C62.6349 22.7121 59.0625 26.0889 59.0625 30.2391C59.0625 34.3893 62.6349 37.7662 66.8857 37.7662C69.1832 37.7662 70.9089 37.0313 72.2655 35.6526C73.6557 34.2953 74.089 32.3869 74.089 30.8459C74.089 30.3673 74.0481 29.9272 73.9752 29.5598H66.8857ZM119.759 31.1563C119.349 30.0725 118.084 28.0743 115.508 28.0743C112.956 28.0743 110.83 30.0383 110.83 32.921C110.83 35.6355 112.934 37.7662 115.753 37.7662C118.033 37.7662 119.349 36.4089 119.89 35.6184L118.198 34.5175C117.634 35.3236 116.865 35.8577 115.753 35.8577C114.649 35.8577 113.857 35.3635 113.349 34.3893L119.988 31.7075L119.759 31.1563ZM112.991 32.77C112.934 30.9014 114.477 29.9443 115.583 29.9443C116.449 29.9443 117.184 30.3673 117.43 30.9726L112.991 32.77ZM107.595 37.4714H109.777V23.2291H107.595V37.4714ZM104.021 29.1539H103.948C103.458 28.587 102.523 28.0743 101.338 28.0743C98.8525 28.0743 96.5798 30.205 96.5798 32.9366C96.5798 35.6526 98.8525 37.7662 101.338 37.7662C102.523 37.7662 103.458 37.2492 103.948 36.6652H104.021V37.3603C104.021 39.2132 103.007 40.2087 101.372 40.2087C100.038 40.2087 99.2113 39.2687 98.87 38.4783L96.9722 39.2516C97.5192 40.5363 98.9677 42.1172 101.372 42.1172C103.93 42.1172 106.089 40.6474 106.089 37.0712V28.3691H104.021V29.1539ZM101.525 35.8577C100.021 35.8577 98.762 34.6286 98.762 32.9366C98.762 31.229 100.021 29.9828 101.525 29.9828C103.007 29.9828 104.175 31.229 104.175 32.9366C104.175 34.6286 103.007 35.8577 101.525 35.8577ZM129.976 23.2291H124.757V37.4714H126.933V32.075H129.976C132.393 32.075 134.764 30.3673 134.764 27.6513C134.764 24.9367 132.387 23.2291 129.976 23.2291ZM130.033 30.0939H126.933V25.2102H130.033C131.658 25.2102 132.586 26.5276 132.586 27.6513C132.586 28.7537 131.658 30.0939 130.033 30.0939ZM143.487 28.0472C141.914 28.0472 140.279 28.7252 139.607 30.2277L141.538 31.0182C141.954 30.2277 142.718 29.9714 143.526 29.9714C144.655 29.9714 145.801 30.6336 145.818 31.8029V31.9525C145.424 31.7303 144.581 31.4013 143.544 31.4013C141.464 31.4013 139.344 32.5193 139.344 34.6058C139.344 36.5143 141.048 37.7434 142.963 37.7434C144.428 37.7434 145.236 37.0982 145.744 36.3476H145.818V37.4486H147.92V31.9852C147.92 29.4601 145.989 28.0472 143.487 28.0472ZM143.224 35.852C142.513 35.852 141.521 35.5073 141.521 34.6457C141.521 33.5433 142.758 33.1203 143.828 33.1203C144.787 33.1203 145.236 33.3269 145.818 33.5989C145.647 34.9177 144.485 35.852 143.224 35.852ZM155.578 28.3592L153.077 34.5332H153.002L150.416 28.3592H148.069L151.955 36.9871L149.738 41.7882H152.012L158 28.3592H155.578ZM135.96 37.4714H138.142V23.2291H135.96V37.4714Z" fill="white"/>
<path d="M22.5412 11.8776C22.1984 12.2279 22 12.7734 22 13.4798V38.6773C22 39.3837 22.1984 39.9292 22.5412 40.2795L22.6258 40.3564L37.0877 26.2424V25.9091L22.6258 11.795L22.5412 11.8776Z" fill="url(#paint0_linear_20005153_1554)"/>
<path d="M41.9027 30.9492L37.0874 26.2421V25.9089L41.9085 21.2018L42.0165 21.263L47.726 24.4348C49.3554 25.3349 49.3554 26.8161 47.726 27.7219L42.0165 30.888L41.9027 30.9492Z" fill="url(#paint1_linear_20005153_1554)"/>
<path d="M42.0161 30.888L37.0871 26.0756L22.5405 40.2794C23.0817 40.8348 23.9643 40.9018 24.9679 40.3463L42.0161 30.888Z" fill="url(#paint2_linear_20005153_1554)"/>
<path d="M42.0161 21.2632L24.9679 11.8049C23.9643 11.2552 23.0817 11.3221 22.5405 11.8776L37.0871 26.0757L42.0161 21.2632Z" fill="url(#paint3_linear_20005153_1554)"/>
<defs>
<linearGradient id="paint0_linear_20005153_1554" x1="35.8037" y1="38.9397" x2="16.6876" y2="19.3604" gradientUnits="userSpaceOnUse">
<stop stop-color="#00A0FF"/>
<stop offset="0.0066" stop-color="#00A1FF"/>
<stop offset="0.2601" stop-color="#00BEFF"/>
<stop offset="0.5122" stop-color="#00D2FF"/>
<stop offset="0.7604" stop-color="#00DFFF"/>
<stop offset="1" stop-color="#00E3FF"/>
</linearGradient>
<linearGradient id="paint1_linear_20005153_1554" x1="49.8477" y1="26.0739" x2="21.6102" y2="26.0739" gradientUnits="userSpaceOnUse">
<stop stop-color="#FFE000"/>
<stop offset="0.4087" stop-color="#FFBD00"/>
<stop offset="0.7754" stop-color="#FFA500"/>
<stop offset="1" stop-color="#FF9C00"/>
</linearGradient>
<linearGradient id="paint2_linear_20005153_1554" x1="39.3359" y1="23.4594" x2="13.4129" y2="-3.09167" gradientUnits="userSpaceOnUse">
<stop stop-color="#FF3A44"/>
<stop offset="1" stop-color="#C31162"/>
</linearGradient>
<linearGradient id="paint3_linear_20005153_1554" x1="18.8789" y1="48.6626" x2="30.4546" y2="36.8064" gradientUnits="userSpaceOnUse">
<stop stop-color="#32A071"/>
<stop offset="0.0685" stop-color="#2DA771"/>
<stop offset="0.4762" stop-color="#15CF74"/>
<stop offset="0.8009" stop-color="#06E775"/>
<stop offset="1" stop-color="#00F076"/>
</linearGradient>
</defs>
</svg>
