<svg width="56" height="56" viewBox="0 0 56 56" fill="none" xmlns="http://www.w3.org/2000/svg">
<path d="M28.0001 10.827C33.2579 10.827 36.8046 13.0981 38.8268 14.9959L46.729 7.28037C41.8757 2.76925 35.5602 0.000366211 28.0001 0.000366211C17.049 0.000366211 7.59126 6.28481 2.98682 15.4315L12.0401 22.4626C14.3113 15.7115 20.5957 10.827 28.0001 10.827Z" fill="#EA4335"/>
<path d="M54.88 28.6232C54.88 26.321 54.6933 24.641 54.2889 22.8988H28V33.2899H43.4311C43.12 35.8721 41.44 39.761 37.7067 42.3744L46.5422 49.2188C51.8311 44.3344 54.88 37.1477 54.88 28.6232Z" fill="#4285F4"/>
<path d="M12.0711 33.5405C11.48 31.7983 11.1378 29.9316 11.1378 28.0027C11.1378 26.0738 11.48 24.2072 12.04 22.4649L2.98667 15.4338C1.08889 19.2294 0 23.4916 0 28.0027C0 32.5138 1.08889 36.7761 2.98667 40.5716L12.0711 33.5405Z" fill="#FBBC05"/>
<path d="M27.9998 56.0017C35.5598 56.0017 41.9065 53.5128 46.542 49.2194L37.7065 42.375C35.342 44.0239 32.1687 45.175 27.9998 45.175C20.5954 45.175 14.3109 40.2905 12.0709 33.5394L3.01758 40.5705C7.62202 49.7172 17.0487 56.0017 27.9998 56.0017Z" fill="#34A853"/>
</svg>
