<svg width="72" height="72" viewBox="0 0 72 72" fill="none" xmlns="http://www.w3.org/2000/svg">
<rect width="72" height="72" rx="8" fill="#F3F6FF"/>
<g clip-path="url(#clip0_20005153_1458)">
<path d="M52.6041 39.9511C52.2806 39.1512 51.3698 38.7646 50.5698 39.0882C49.7698 39.4116 49.3834 40.3223 49.7068 41.1224L51.547 45.6744L46.0816 43.2651C45.6859 43.0907 45.2357 43.088 44.8381 43.2577C42.9702 44.0546 40.9693 44.4587 38.8909 44.4587C30.5258 44.4587 24.9065 37.9091 24.9065 31.7918C24.9065 24.8073 31.1799 19.125 38.8909 19.125C46.6019 19.125 52.8752 24.8073 52.8752 31.7918C52.8752 32.3368 52.8244 32.9893 52.7361 33.5819C52.6087 34.4354 53.1974 35.2305 54.0509 35.3579C54.9045 35.4855 55.6996 34.8965 55.8269 34.043C55.9387 33.2938 56.0002 32.4943 56.0002 31.7918C56.0002 27.5473 54.2029 23.5647 50.9391 20.5776C47.7139 17.6257 43.4351 16 38.8909 16C34.3467 16 30.0679 17.6257 26.8427 20.5775C23.9261 23.2469 22.1818 26.7115 21.8434 30.4474C18.1749 32.8768 16.0003 36.7696 16.0003 40.9628C16.0003 43.5822 16.8255 46.0675 18.3964 48.2063L16.1142 53.8518C15.8758 54.4413 16.0186 55.1166 16.4752 55.5592C16.7728 55.8478 17.1649 56 17.5631 56C17.7758 55.9999 17.9904 55.9566 18.193 55.8672L24.7734 52.9664C26.4287 53.5826 28.1785 53.8945 29.9846 53.8945C30.0236 53.8945 30.062 53.8915 30.1003 53.8887C32.7126 53.8689 35.2522 53.1818 37.4517 51.8959C39.4219 50.7441 41.0425 49.1617 42.1787 47.2931C43.288 47.0938 44.3722 46.7929 45.4245 46.3906L53.8074 50.0859C54.0101 50.1752 54.2246 50.2188 54.4373 50.2188C54.8355 50.2187 55.2277 50.0665 55.5253 49.778C55.9819 49.3353 56.1247 48.6602 55.8863 48.0706L52.6041 39.9511ZM29.9847 50.7656C29.9634 50.7656 29.9426 50.7679 29.9214 50.7688C28.326 50.7606 26.7904 50.447 25.3562 49.8352C24.9586 49.6654 24.5084 49.6681 24.1128 49.8426L20.4536 51.4556L21.634 48.5356C21.8522 47.9959 21.7522 47.3795 21.3745 46.9364C19.903 45.2101 19.1253 43.1446 19.1253 40.9628C19.1253 38.4659 20.1757 36.1 22.0135 34.3061C22.5857 37.4253 24.2001 40.409 26.6355 42.7529C29.6661 45.6696 33.6746 47.3592 38.0031 47.5627C35.971 49.5631 33.0628 50.7656 29.9847 50.7656Z" fill="#6366F1"/>
<path d="M38.8125 33.4219C39.6754 33.4219 40.375 32.7223 40.375 31.8594C40.375 30.9964 39.6754 30.2969 38.8125 30.2969C37.9496 30.2969 37.25 30.9964 37.25 31.8594C37.25 32.7223 37.9496 33.4219 38.8125 33.4219Z" fill="#D946EF"/>
<path d="M45.0625 33.4219C45.9254 33.4219 46.625 32.7223 46.625 31.8594C46.625 30.9964 45.9254 30.2969 45.0625 30.2969C44.1996 30.2969 43.5 30.9964 43.5 31.8594C43.5 32.7223 44.1996 33.4219 45.0625 33.4219Z" fill="#D946EF"/>
<path d="M32.5625 33.4219C33.4254 33.4219 34.125 32.7223 34.125 31.8594C34.125 30.9964 33.4254 30.2969 32.5625 30.2969C31.6996 30.2969 31 30.9964 31 31.8594C31 32.7223 31.6996 33.4219 32.5625 33.4219Z" fill="#D946EF"/>
</g>
<defs>
<clipPath id="clip0_20005153_1458">
<rect width="40" height="40" fill="white" transform="translate(16 16)"/>
</clipPath>
</defs>
</svg>
