<svg width="72" height="72" viewBox="0 0 72 72" fill="none" xmlns="http://www.w3.org/2000/svg">
<rect width="72" height="72" rx="8" fill="#F3F6FF"/>
<g clip-path="url(#clip0_20005153_1499)">
<path d="M35.9222 56C35.6826 56 35.4434 55.9451 35.2233 55.8352C35.0405 55.7437 30.6954 53.5406 26.1492 48.5989C23.4844 45.7028 21.2957 42.4551 19.6435 38.9465C17.5799 34.5641 16.3552 29.7662 16.0028 24.6859C15.9741 24.2715 16.1117 23.8629 16.3848 23.55C16.6583 23.2372 17.0446 23.0459 17.4594 23.0187C20.321 22.8307 22.5628 20.4342 22.5628 17.5625C22.5628 16.6995 23.2623 16 24.1253 16H47.8753C48.738 16 49.4378 16.6995 49.4378 17.5625C49.4378 20.4324 51.6781 22.8289 54.5382 23.0187C54.9594 23.0465 55.3512 23.2437 55.6246 23.565C55.8984 23.8864 56.0302 24.3047 55.9905 24.725C55.4562 30.3658 53.8986 35.6417 51.3607 40.4064C50.9548 41.1682 50.0085 41.4565 49.2471 41.051C48.4854 40.6454 48.197 39.699 48.6025 38.9373C50.7284 34.9462 52.1099 30.5578 52.7175 25.8737C49.5181 25.0302 47.0602 22.3843 46.4559 19.125H25.5447C24.938 22.3983 22.4621 25.0524 19.2428 25.884C20.064 33.7667 23.128 40.6588 28.3618 46.3882C31.4947 49.8174 34.5663 51.8408 35.9133 52.6415C37.3873 51.7449 40.9521 49.3356 44.4225 45.158C44.974 44.494 45.9588 44.403 46.6229 44.9545C47.2866 45.5059 47.3779 46.491 46.8264 47.1548C41.8875 53.1002 36.8463 55.7198 36.6339 55.8285C36.4105 55.9429 36.1663 56 35.9222 56Z" fill="#6366F1"/>
<path d="M37.1304 47.5443C37.6507 46.8555 37.5143 45.8759 36.8261 45.3556C35.4751 44.3347 34.1967 43.1772 33.0261 41.9156C29.6225 38.2462 27.3132 33.935 26.1532 29.0882C26.7782 28.6054 27.3663 28.0719 27.9092 27.4945C28.8095 26.5366 29.5782 25.4669 30.1941 24.3146C30.6005 23.5535 30.3131 22.6068 29.552 22.2C28.7909 21.7935 27.8442 22.081 27.4377 22.8421C26.9516 23.7516 26.3443 24.5966 25.6326 25.354C25.0052 26.0215 24.302 26.6138 23.5434 27.1152C23.0111 27.4668 22.7459 28.1067 22.8738 28.732C24.0634 34.549 26.708 39.6997 30.7351 44.0409C32.0297 45.4364 33.4451 46.7179 34.942 47.8488C35.224 48.0619 35.5548 48.1647 35.8828 48.1647C36.3559 48.1647 36.8234 47.9508 37.1304 47.5443Z" fill="#D946EF"/>
</g>
<defs>
<clipPath id="clip0_20005153_1499">
<rect width="40" height="40" fill="white" transform="translate(16 16)"/>
</clipPath>
</defs>
</svg>
