<svg width="72" height="72" viewBox="0 0 72 72" fill="none" xmlns="http://www.w3.org/2000/svg">
<rect width="72" height="72" rx="8" fill="#F3F6FF"/>
<g clip-path="url(#clip0_20005153_1507)">
<path d="M44.5202 25.6094C44.5184 25.6094 44.5166 25.6094 44.5148 25.6094C44.0984 25.6094 43.6991 25.7756 43.4056 26.0713L34.4411 35.1058L31.0858 31.7002C30.7945 31.4047 30.3977 31.2371 29.9829 31.2344C29.9795 31.2344 29.9762 31.2344 29.9727 31.2344C29.5615 31.2344 29.1667 31.3966 28.8741 31.6859L22.8698 37.6234C22.2563 38.2302 22.2507 39.2195 22.8575 39.833C23.1631 40.1421 23.5656 40.297 23.9686 40.2969C24.3655 40.2969 24.7627 40.1465 25.0672 39.8454L29.9584 35.0085L33.3242 38.4247C33.6173 38.7221 34.017 38.8898 34.4345 38.8905C34.4355 38.8905 34.4363 38.8905 34.4373 38.8905C34.8538 38.8905 35.253 38.7243 35.5464 38.4286L44.507 29.398L46.9141 31.8584C47.5179 32.4752 48.507 32.4859 49.1238 31.8824C49.7406 31.2789 49.7513 30.2897 49.1479 29.6728L45.6316 26.0791C45.3389 25.7801 44.9386 25.6109 44.5202 25.6094Z" fill="#D946EF"/>
<path d="M54.4375 34.9062C55.3005 34.9062 56 34.2067 56 33.3438V20.7656C56 19.9027 55.3005 19.2031 54.4375 19.2031H37.5625V17.5625C37.5625 16.6995 36.863 16 36 16C35.137 16 34.4375 16.6995 34.4375 17.5625V19.2031H17.5625C16.6995 19.2031 16 19.9027 16 20.7656V41.2344C16 44.6806 18.8038 47.4844 22.25 47.4844H34.4375V52.875H29.75C28.887 52.875 28.1875 53.5745 28.1875 54.4375C28.1875 55.3005 28.887 56 29.75 56H42.1719C43.0348 56 43.7344 55.3005 43.7344 54.4375C43.7344 53.5745 43.0348 52.875 42.1719 52.875H37.5625V47.4844H49.75C53.1963 47.4844 56 44.6806 56 41.2344C56 40.3714 55.3005 39.6719 54.4375 39.6719C53.5745 39.6719 52.875 40.3714 52.875 41.2344C52.875 42.9575 51.4731 44.3594 49.75 44.3594H22.25C20.5269 44.3594 19.125 42.9575 19.125 41.2344V22.3281H52.875V33.3438C52.875 34.2067 53.5745 34.9062 54.4375 34.9062Z" fill="#6366F1"/>
</g>
<defs>
<clipPath id="clip0_20005153_1507">
<rect width="40" height="40" fill="white" transform="translate(16 16)"/>
</clipPath>
</defs>
</svg>
