<svg width="72" height="72" viewBox="0 0 72 72" fill="none" xmlns="http://www.w3.org/2000/svg">
<rect width="72" height="72" rx="8" fill="#F3F6FF"/>
<path d="M20.9527 29.2449C21.491 26.2442 22.8618 23.5238 24.9171 21.378C25.514 20.7548 25.4928 19.7657 24.8695 19.1688C24.2462 18.5717 23.2572 18.5932 22.6604 19.2164C20.1781 21.808 18.524 25.085 17.8769 28.6932C17.7245 29.5426 18.2895 30.3547 19.1389 30.507C19.2323 30.5237 19.325 30.5318 19.4166 30.5318C20.1587 30.5318 20.8172 30.0009 20.9527 29.2449Z" fill="#D946EF"/>
<path d="M51.5883 42.234C51.5016 42.2001 50.2829 41.7089 49.3871 40.5822C48.8501 39.9067 47.8672 39.7946 47.1916 40.3316C46.5161 40.8687 46.4039 41.8516 46.9409 42.5271C47.7487 43.543 48.688 44.2187 49.4052 44.6337C49.2853 45.3067 49.0321 46.0588 48.5891 46.6971C47.8934 47.7 46.9107 48.1875 45.5852 48.1875H26.5243C24.1077 48.1875 23.0295 46.1627 22.7177 44.6255C23.1788 44.3585 23.7324 43.9855 24.2873 43.4862C26.0568 41.8942 26.9922 39.7918 26.9922 37.4062V31.9375C26.9922 27.0069 30.989 22.9418 35.9018 22.8759C35.9154 22.8757 35.9286 22.8738 35.9421 22.8733C35.9537 22.8735 35.9649 22.875 35.9766 22.875C36.0177 22.875 36.0582 22.872 36.0986 22.8688C36.1348 22.8718 36.1708 22.8753 36.2076 22.8758C41.1634 22.9423 45.1953 27.0074 45.1953 31.9375V34.125C45.1953 34.988 45.8948 35.6875 46.7578 35.6875C47.6208 35.6875 48.3203 34.988 48.3203 34.125V31.9375C48.3203 25.7412 43.5908 20.5616 37.5391 19.8372V17.5625C37.5391 16.6995 36.8395 16 35.9766 16C35.1136 16 34.4141 16.6995 34.4141 17.5625V19.8566C31.7535 20.2098 29.294 21.4341 27.3745 23.3855C25.1128 25.6847 23.8672 28.7219 23.8672 31.9375V37.4062C23.8672 40.8955 20.7235 42.1566 20.5209 42.2341C19.893 42.4524 19.4922 43.0374 19.4922 43.7027C19.4922 45.3426 20.0764 47.1355 21.0549 48.499C22.3572 50.3133 24.2997 51.3125 26.5243 51.3125H31.3672C31.3672 53.8972 33.47 56 36.0547 56C38.6394 56 40.7422 53.8972 40.7422 51.3125H45.5851C48.5649 51.3125 50.2597 49.7713 51.1566 48.4786C52.4748 46.5788 52.6171 44.5057 52.6171 43.7027C52.6172 43.0371 52.2164 42.4522 51.5883 42.234ZM36.0547 52.875C35.1931 52.875 34.4922 52.1741 34.4922 51.3125H37.6172C37.6172 52.1741 36.9163 52.875 36.0547 52.875Z" fill="#6366F1"/>
<path d="M54.1234 28.7404C53.4701 25.0987 51.7528 21.6869 49.2877 19.1332C48.6884 18.5123 47.6993 18.4949 47.0784 19.0942C46.4575 19.6936 46.4401 20.6827 47.0394 21.3036C49.079 23.4165 50.5024 26.2535 51.0475 29.2922C51.1831 30.0483 51.8415 30.579 52.5836 30.579C52.6752 30.579 52.7681 30.571 52.8613 30.5543C53.7107 30.4019 54.2758 29.5898 54.1234 28.7404Z" fill="#D946EF"/>
</svg>
