<svg width="72" height="72" viewBox="0 0 72 72" fill="none" xmlns="http://www.w3.org/2000/svg">
<rect width="72" height="72" rx="8" fill="#F3F6FF"/>
<g clip-path="url(#clip0_20005153_1521)">
<path d="M54.4374 50.1364C55.3004 50.1364 55.9999 49.4369 55.9999 48.5742C55.9999 47.7111 55.3004 47.0117 54.4374 47.0117H50.1411V42.7154C50.1411 41.8527 49.4417 41.1532 48.5789 41.1532C47.7159 41.1532 47.0164 41.8527 47.0164 42.7154V47.0117H42.7202C41.8574 47.0117 41.158 47.7111 41.158 48.5742C41.158 49.4369 41.8574 50.1364 42.7202 50.1364H47.0164V54.4326C47.0164 55.2957 47.7159 55.9951 48.5789 55.9951C49.4417 55.9951 50.1411 55.2957 50.1411 54.4326V50.1364H54.4374Z" fill="#D946EF"/>
<path d="M39.1612 42.2186C38.1831 41.5362 37.1379 40.9802 36.0448 40.5554C37.4989 39.2337 38.4636 37.3821 38.6314 35.3094C40.8366 33.1607 43.7273 31.9827 46.826 31.9827C49.2451 31.9827 51.5678 32.7111 53.5436 34.089C54.2516 34.5828 55.2251 34.4094 55.7188 33.7014C56.2123 32.9937 56.039 32.0199 55.3313 31.5264C54.3532 30.8441 53.3076 30.2883 52.2145 29.8632C53.8191 28.4048 54.828 26.3018 54.828 23.9678C54.828 19.5742 51.2538 16 46.8602 16C42.4669 16 38.8927 19.5742 38.8927 23.9678C38.8927 26.2924 39.8933 28.3877 41.487 29.8455C41.2688 29.9294 41.0518 30.0183 40.8369 30.1129C39.8592 30.5432 38.94 31.0723 38.0852 31.6937C36.9063 28.7649 34.0361 26.6921 30.6905 26.6921C26.2971 26.6921 22.7226 30.2664 22.7226 34.6597C22.7226 36.9778 23.7178 39.0673 25.3029 40.5245C21.0649 42.1124 17.6286 45.5227 16.2297 49.8721C15.7658 51.3143 16.0115 52.8439 16.9038 54.0686C17.7962 55.2929 19.1768 55.9951 20.6917 55.9951H34.2839C35.1466 55.9951 35.8461 55.2957 35.8461 54.4326C35.8461 53.5699 35.1466 52.8704 34.2839 52.8704H20.6917C20.1866 52.8704 19.7264 52.6364 19.4288 52.228C19.1313 51.8197 19.0495 51.3098 19.2039 50.8288C20.7481 46.0278 25.4576 42.6748 30.6563 42.6748C33.0751 42.6748 35.3981 43.4033 37.3738 44.7811C38.0815 45.2749 39.0553 45.1013 39.5491 44.3936C40.0426 43.6859 39.8692 42.712 39.1612 42.2186ZM46.8602 19.1247C49.5308 19.1247 51.7033 21.2972 51.7033 23.9678C51.7033 26.6381 49.5308 28.811 46.8602 28.811C44.1899 28.811 42.0171 26.6381 42.0171 23.9678C42.0171 21.2972 44.1899 19.1247 46.8602 19.1247ZM30.6905 29.8165C33.361 29.8165 35.5336 31.9894 35.5336 34.6597C35.5336 37.3303 33.361 39.5028 30.6905 39.5028C28.0199 39.5028 25.8473 37.3303 25.8473 34.6597C25.8473 31.9894 28.0199 29.8165 30.6905 29.8165Z" fill="#6366F1"/>
</g>
<defs>
<clipPath id="clip0_20005153_1521">
<rect width="40" height="40" fill="white" transform="translate(16 16)"/>
</clipPath>
</defs>
</svg>
