<svg width="72" height="72" viewBox="0 0 72 72" fill="none" xmlns="http://www.w3.org/2000/svg">
<rect width="72" height="72" rx="8" fill="#F3F6FF"/>
<path d="M44.0515 45.1406H39.4421C38.5792 45.1406 37.8796 45.8402 37.8796 46.7031C37.8796 47.5661 38.5792 48.2656 39.4421 48.2656H44.0515C44.9145 48.2656 45.614 47.5661 45.614 46.7031C45.614 45.8402 44.9145 45.1406 44.0515 45.1406Z" fill="#6366F1"/>
<path d="M44.0515 35.6875H39.4421C38.5792 35.6875 37.8796 36.387 37.8796 37.25C37.8796 38.113 38.5792 38.8125 39.4421 38.8125H44.0515C44.9145 38.8125 45.614 38.113 45.614 37.25C45.614 36.387 44.9145 35.6875 44.0515 35.6875Z" fill="#6366F1"/>
<path d="M50.2928 43.5C51.1558 43.5 51.8553 42.8005 51.8553 41.9375V22.25C51.8553 18.8038 49.0516 16 45.6053 16H26.3953C22.949 16 20.1453 18.8038 20.1453 22.25V49.75C20.1453 53.1963 22.949 56 26.3953 56H45.6053C49.0516 56 51.8553 53.1963 51.8553 49.75C51.8553 48.887 51.1558 48.1875 50.2928 48.1875C49.4299 48.1875 48.7303 48.887 48.7303 49.75C48.7303 51.4731 47.3285 52.875 45.6053 52.875H26.3953C24.6721 52.875 23.2703 51.4731 23.2703 49.75V22.25C23.2703 20.5269 24.6721 19.125 26.3953 19.125H45.6053C47.3285 19.125 48.7303 20.5269 48.7303 22.25V41.9375C48.7303 42.8005 49.4299 43.5 50.2928 43.5Z" fill="#6366F1"/>
<path d="M35.9844 22.2176C35.3193 21.668 34.3343 21.7616 33.7847 22.4269L30.4093 26.5123L29.0775 25.1446C28.4755 24.5264 27.4862 24.5132 26.8679 25.1152C26.2497 25.7173 26.2365 26.7065 26.8385 27.3248L28.5146 29.0461C28.5285 29.0603 28.5425 29.0742 28.5569 29.0879C29.0634 29.57 29.7394 29.8381 30.4348 29.8381C30.4945 29.838 30.5546 29.836 30.6146 29.8319C31.3681 29.7817 32.0718 29.417 32.5473 28.8308L36.1938 24.4173C36.7435 23.752 36.6497 22.7672 35.9844 22.2176Z" fill="#D946EF"/>
<path d="M35.9842 41.2681C35.319 40.7185 34.3341 40.8122 33.7845 41.4774L30.4081 45.5639L29.0742 44.2016C28.4703 43.585 27.4811 43.5747 26.8645 44.1785C26.248 44.7822 26.2377 45.7715 26.8413 46.3881L28.5174 48.0997C28.5302 48.1128 28.5433 48.1256 28.5566 48.1383C29.0631 48.6204 29.7392 48.8886 30.4345 48.8886C30.4943 48.8885 30.5543 48.8865 30.6143 48.8825C31.3677 48.8323 32.0714 48.4676 32.547 47.8814L36.1935 43.4678C36.7432 42.8025 36.6495 41.8177 35.9842 41.2681Z" fill="#D946EF"/>
<path d="M44.0515 26.0781H39.4421C38.5792 26.0781 37.8796 26.7777 37.8796 27.6406C37.8796 28.5036 38.5792 29.2031 39.4421 29.2031H44.0515C44.9145 29.2031 45.614 28.5036 45.614 27.6406C45.614 26.7777 44.9145 26.0781 44.0515 26.0781Z" fill="#6366F1"/>
<path d="M35.9842 31.8189C35.319 31.2693 34.3341 31.363 33.7845 32.0283L30.4081 36.1147L29.0742 34.7524C28.4703 34.1358 27.4811 34.1255 26.8645 34.7293C26.248 35.333 26.2377 36.3223 26.8413 36.9389L28.5174 38.6505C28.5302 38.6636 28.5433 38.6765 28.5566 38.6891C29.0631 39.1712 29.7392 39.4394 30.4345 39.4394C30.4943 39.4393 30.5543 39.4373 30.6143 39.4333C31.3677 39.3831 32.0714 39.0184 32.547 38.4322L36.1935 34.0187C36.7432 33.3533 36.6495 32.3685 35.9842 31.8189Z" fill="#D946EF"/>
</svg>
