<svg width="526" height="378" viewBox="0 0 526 378" fill="none" xmlns="http://www.w3.org/2000/svg">
<path d="M177.747 313.51C177.747 313.51 186.719 312.237 186.973 314.311C187.228 316.384 180.871 319.658 180.871 319.658C180.871 319.658 180.362 317.003 179.454 315.693C178.546 314.383 177.747 313.51 177.747 313.51Z" fill="white"/>
<path d="M148.262 334.393C156.253 332.683 178.121 327.481 173.289 312.675C167.986 296.414 148.734 296.887 139.18 299.47C129.663 302.053 112.954 313.621 118.039 326.535C123.524 340.431 140.67 335.993 148.262 334.393Z" fill="white"/>
<path d="M134.603 336.868C127.774 336.868 120.727 334.795 117.531 326.682C116.005 322.826 116.259 318.825 118.257 314.787C122.144 307.075 131.843 300.854 139.035 298.89C148.661 296.307 168.349 295.798 173.798 312.459C174.96 316.06 174.706 319.37 172.999 322.317C168.204 330.684 153.274 333.849 148.371 334.904C148.007 334.976 147.644 335.049 147.281 335.122C144.048 335.85 139.362 336.868 134.603 336.868ZM149.715 298.635C145.792 298.635 142.123 299.217 139.326 299.981C133.368 301.582 123.197 307.402 119.238 315.296C117.349 319.043 117.131 322.717 118.548 326.282C123.633 339.16 138.89 335.85 147.063 334.067C147.462 333.994 147.826 333.921 148.153 333.849C160.975 331.12 169.039 327.083 172.054 321.808C173.58 319.152 173.834 316.133 172.745 312.822C169.148 301.727 158.796 298.635 149.715 298.635Z" fill="#0B0F19"/>
<path d="M162.682 332.465C168.821 332.465 173.761 327.481 173.761 321.37C173.761 315.258 168.785 310.274 162.682 310.274C156.58 310.274 151.603 315.258 151.603 321.37C151.603 327.481 156.543 332.465 162.682 332.465Z" fill="white"/>
<path d="M162.681 333.011C156.252 333.011 151.057 327.773 151.057 321.371C151.057 314.968 156.288 309.73 162.681 309.73C169.074 309.73 174.305 314.968 174.305 321.371C174.305 327.773 169.111 333.011 162.681 333.011ZM162.681 310.785C156.869 310.785 152.147 315.514 152.147 321.334C152.147 327.155 156.869 331.884 162.681 331.884C168.493 331.884 173.215 327.155 173.215 321.334C173.215 315.514 168.493 310.785 162.681 310.785Z" fill="#0B0F19"/>
<path d="M153.13 315.698C153.13 315.698 151.64 307.658 153.13 307.113C154.619 306.567 158.724 310.969 158.724 310.969C158.724 310.969 156.799 311.66 155.6 312.788C154.401 313.952 153.13 315.698 153.13 315.698Z" fill="white"/>
<path d="M153.13 316.243C153.093 316.243 153.057 316.243 153.021 316.243C152.803 316.207 152.658 316.025 152.621 315.807C152.621 315.734 152.258 313.733 152.04 311.66C151.677 307.622 152.294 306.821 152.948 306.603C154.655 305.985 158.106 309.513 159.123 310.605C159.232 310.75 159.305 310.932 159.269 311.114C159.232 311.296 159.087 311.441 158.905 311.514C158.869 311.514 157.053 312.169 155.963 313.224C154.837 314.315 153.566 316.025 153.566 316.061C153.457 316.171 153.311 316.243 153.13 316.243ZM153.311 307.622C153.311 307.622 152.767 308.058 153.13 311.732C153.239 312.715 153.348 313.66 153.457 314.388C153.929 313.806 154.583 313.042 155.2 312.424C155.999 311.66 157.053 311.114 157.743 310.787C156.036 309.004 153.929 307.367 153.311 307.622Z" fill="#0B0F19"/>
<path d="M173.652 320.204C173.58 320.204 173.507 320.168 173.398 320.132C173.253 320.059 173.144 319.913 173.108 319.732C173.108 319.695 172.599 317.149 171.764 315.948C170.892 314.675 170.129 313.838 170.129 313.802C169.984 313.656 169.947 313.438 170.02 313.256C170.093 313.074 170.274 312.929 170.456 312.893C171.219 312.783 177.939 311.874 179.755 313.256C180.155 313.547 180.264 313.911 180.3 314.166C180.591 316.494 174.996 319.513 173.907 320.059C173.834 320.204 173.725 320.204 173.652 320.204ZM171.582 313.911C171.873 314.275 172.272 314.784 172.672 315.366C173.326 316.348 173.798 317.913 174.016 318.822C176.377 317.513 179.319 315.403 179.21 314.348C179.21 314.311 179.21 314.275 179.065 314.166C178.12 313.475 174.343 313.62 171.582 313.911Z" fill="#0B0F19"/>
<path d="M122.979 309.367C122.979 309.367 112.844 318.825 115.423 330.175C118.184 342.252 140.56 350.328 150.186 338.25C157.887 328.574 144.919 323.19 141.032 329.301C135.547 337.887 111.973 338.541 122.979 309.367Z" fill="#565973"/>
<path d="M136.819 344.763C135.075 344.763 133.259 344.545 131.407 344.145C123.124 342.253 116.332 336.578 114.879 330.321C113.789 325.556 114.77 320.354 117.748 315.297C119.964 311.478 122.507 309.113 122.58 309.04C122.761 308.858 123.052 308.858 123.27 309.004C123.488 309.149 123.56 309.404 123.488 309.659C119.02 321.482 119.855 329.994 125.776 332.977C130.462 335.341 137.8 333.413 140.56 329.121C141.832 327.156 144.084 326.101 146.663 326.283C149.351 326.502 151.712 328.066 152.657 330.249C153.71 332.686 152.984 335.669 150.622 338.652C147.426 342.617 142.486 344.763 136.819 344.763ZM121.563 311.732C118.838 315.043 114.116 322.136 115.969 330.03C117.313 335.887 123.778 341.235 131.661 343.054C139.071 344.727 145.828 342.799 149.751 337.888C152.439 334.505 152.257 332.031 151.639 330.576C150.84 328.757 148.842 327.447 146.554 327.266C144.411 327.084 142.486 327.957 141.469 329.594C138.381 334.396 130.535 336.469 125.304 333.85C122.362 332.358 120.473 329.63 119.819 325.883C119.129 322.1 119.71 317.334 121.563 311.732Z" fill="#0B0F19"/>
<path d="M144.63 322.572C144.412 322.572 144.195 322.426 144.122 322.208C144.013 321.917 144.158 321.626 144.449 321.517C148.699 319.952 155.419 321.007 155.71 321.044C156 321.08 156.218 321.371 156.145 321.662C156.109 321.953 155.818 322.171 155.528 322.099C155.455 322.099 148.808 321.044 144.812 322.499C144.739 322.572 144.703 322.572 144.63 322.572Z" fill="#0B0F19"/>
<path d="M176.014 330.724C175.869 330.724 175.687 330.651 175.578 330.542C174.779 329.56 170.493 327.086 168.894 326.213C168.64 326.067 168.531 325.74 168.676 325.485C168.822 325.231 169.149 325.122 169.403 325.267C170.02 325.595 175.324 328.541 176.414 329.851C176.595 330.069 176.559 330.433 176.341 330.615C176.268 330.687 176.159 330.724 176.014 330.724Z" fill="#0B0F19"/>
<path d="M145.501 325.959C145.283 325.959 145.101 325.85 144.992 325.631C144.847 325.377 144.992 325.049 145.246 324.904C149.424 322.903 155.345 323.012 155.599 323.012C155.889 323.012 156.144 323.267 156.144 323.558C156.144 323.849 155.889 324.067 155.599 324.103C155.526 324.103 149.642 323.994 145.719 325.886C145.646 325.922 145.573 325.959 145.501 325.959Z" fill="#0B0F19"/>
<path d="M174.596 336.357C174.378 336.357 174.16 336.211 174.087 335.957C173.143 332.756 167.731 328.39 167.658 328.318C167.44 328.136 167.404 327.772 167.585 327.554C167.767 327.335 168.13 327.299 168.348 327.481C168.566 327.663 174.087 332.137 175.141 335.629C175.214 335.92 175.068 336.211 174.778 336.321C174.705 336.357 174.632 336.357 174.596 336.357Z" fill="#0B0F19"/>
<path d="M176.402 206.856C176.112 206.856 175.857 206.601 175.857 206.31C175.857 206.019 176.112 205.765 176.402 205.765L362.858 203.946C363.148 203.946 363.403 204.2 363.403 204.491C363.403 204.782 363.148 205.037 362.858 205.037L176.402 206.856Z" fill="#565973"/>
<path d="M308.589 307.04L350.98 306.531L347.565 319.336L308.625 319.445V307.04H308.589Z" fill="white"/>
<path d="M308.588 319.992C308.443 319.992 308.297 319.919 308.188 319.846C308.079 319.737 308.043 319.592 308.043 319.446V307.041C308.043 306.75 308.297 306.496 308.588 306.496L350.979 305.986C351.161 305.986 351.306 306.059 351.415 306.205C351.524 306.35 351.56 306.532 351.524 306.677L348.109 319.482C348.037 319.737 347.819 319.883 347.601 319.883L308.588 319.992ZM309.133 307.587V318.9L347.129 318.791L350.252 307.078L309.133 307.587Z" fill="#0B0F19"/>
<path d="M207.895 149.926C207.895 149.926 194.927 168.115 197.87 182.811C200.812 197.508 217.667 207.221 243.712 206.311C241.496 228.356 245.492 307.66 245.492 307.66L308.624 307.041L345.276 306.532V199.872L294.131 160.366C294.131 160.366 269.72 150.581 207.895 149.926Z" fill="#0B0F19"/>
<path d="M245.455 308.205C245.165 308.205 244.91 307.987 244.91 307.696C244.874 306.896 241.024 229.52 243.094 206.893C230.707 207.257 219.919 205.184 211.855 200.928C203.863 196.671 198.814 190.451 197.325 182.957C195.763 175.245 198.632 166.587 201.284 160.694C204.154 154.328 207.423 149.708 207.459 149.671C207.568 149.526 207.75 149.453 207.895 149.453C268.231 150.072 293.259 159.493 294.312 159.894C294.348 159.93 294.421 159.93 294.457 159.966L345.603 199.472C345.748 199.582 345.821 199.727 345.821 199.909V306.568C345.821 306.859 345.567 307.114 345.276 307.114L308.624 307.623L245.455 308.205ZM243.675 205.766C243.821 205.766 243.966 205.839 244.075 205.948C244.184 206.057 244.22 206.202 244.22 206.384C242.15 227.192 245.637 300.202 245.964 307.114L308.551 306.496L344.695 305.986V200.127L293.84 160.839C292.169 160.221 267.286 151.127 208.186 150.472C206.697 152.618 195.726 169.279 198.415 182.666C199.831 189.869 204.662 195.798 212.4 199.909C220.391 204.202 231.216 206.202 243.675 205.766Z" fill="#0B0F19"/>
<path d="M308.588 307.583C308.297 307.583 308.043 307.364 308.043 307.037L305.464 199.213L272.989 169.638C272.771 169.42 272.735 169.093 272.953 168.874C273.171 168.656 273.498 168.62 273.716 168.838L306.336 198.595C306.445 198.704 306.517 198.85 306.517 198.995L309.096 307.073C309.133 307.328 308.915 307.583 308.588 307.583Z" fill="#0B0F19"/>
<path d="M240.407 307.696L317.162 307.041L314.219 319.41L244.33 319.664L240.407 307.696Z" fill="white"/>
<path d="M244.294 320.209C244.076 320.209 243.858 320.064 243.786 319.845L239.863 307.877C239.826 307.695 239.826 307.513 239.935 307.404C240.044 307.295 240.189 307.186 240.371 307.186L317.125 306.531C317.307 306.531 317.452 306.604 317.561 306.749C317.67 306.895 317.707 307.04 317.67 307.222L314.728 319.591C314.655 319.845 314.437 320.027 314.183 320.027L244.294 320.209ZM241.134 308.241L244.694 319.118L313.784 318.863L316.472 307.586L241.134 308.241Z" fill="#0B0F19"/>
<path d="M341.572 319.444V327.92L363.911 343.781L308.589 344.254V319.444H341.572Z" fill="white"/>
<path d="M308.588 344.8C308.443 344.8 308.297 344.728 308.188 344.655C308.079 344.546 308.043 344.4 308.043 344.255V319.445C308.043 319.154 308.297 318.899 308.588 318.899H341.571C341.861 318.899 342.116 319.154 342.116 319.445V327.666L364.201 343.345C364.383 343.491 364.492 343.745 364.419 343.964C364.347 344.182 364.129 344.327 363.911 344.364L308.588 344.8ZM309.133 319.991V343.709L362.203 343.236L341.244 328.358C341.099 328.248 341.026 328.103 341.026 327.921V319.954H309.133V319.991Z" fill="#0B0F19"/>
<path d="M245.893 319.661L308.589 319.406V328.719L330.784 343.961L246.437 345.016L245.893 319.661Z" fill="white"/>
<path d="M246.437 345.563C246.146 345.563 245.892 345.308 245.892 345.017L245.347 319.698C245.347 319.553 245.383 319.407 245.492 319.298C245.601 319.189 245.746 319.116 245.892 319.116L308.588 318.861C308.734 318.861 308.879 318.934 308.988 319.007C309.097 319.116 309.133 319.262 309.133 319.407V328.429L331.074 343.489C331.255 343.635 331.364 343.853 331.291 344.108C331.219 344.326 331.001 344.508 330.783 344.508L246.437 345.563C246.473 345.563 246.437 345.563 246.437 345.563ZM246.437 320.207L246.982 344.435L329.039 343.453L308.262 329.193C308.116 329.084 308.007 328.938 308.007 328.756V319.989L246.437 320.207Z" fill="#0B0F19"/>
<path d="M257.295 137.117L258.893 118.928L257.622 99.8297L258.893 118.928L272.842 108.488C272.842 108.488 254.68 83.1323 246.615 81.8591C242.039 85.1695 238.37 79.822 238.37 79.822C238.37 79.822 213.705 80.6223 207.094 104.122C221.406 108.706 231.759 111.507 231.759 111.507L234.701 100.23L228.271 131.26L257.295 137.117Z" fill="white"/>
<path d="M257.296 137.661C257.26 137.661 257.223 137.661 257.187 137.661L228.2 131.768C228.054 131.731 227.945 131.658 227.836 131.549C227.727 131.44 227.727 131.295 227.764 131.149L231.723 112.051C231.687 112.051 231.687 112.051 231.651 112.051C231.542 112.015 221.08 109.213 206.95 104.666C206.659 104.593 206.514 104.266 206.586 104.011C210.037 91.6794 218.501 85.6043 225.003 82.6941C232.014 79.5656 238.116 79.311 238.371 79.311C238.552 79.311 238.734 79.3837 238.843 79.5292C238.843 79.5656 240.514 81.9302 242.875 82.3303C244.037 82.5122 245.2 82.2212 246.326 81.4209C246.435 81.3481 246.58 81.3117 246.725 81.3117C254.935 82.6213 272.552 107.104 273.315 108.158C273.497 108.413 273.424 108.741 273.206 108.922L259.475 119.217L257.877 137.188C257.877 137.333 257.768 137.479 257.659 137.588C257.514 137.624 257.405 137.661 257.296 137.661ZM228.926 130.785L256.787 136.46L258.349 118.926L257.078 99.8644V99.828C257.078 99.537 257.296 99.3187 257.586 99.2823C257.877 99.2459 258.131 99.5006 258.168 99.7916L259.366 117.871L272.08 108.34C269.683 105.03 254.027 83.9309 246.762 82.4031C245.454 83.2761 244.074 83.6035 242.693 83.3853C240.369 82.9851 238.661 81.0571 238.116 80.3659C236.845 80.4387 231.396 80.948 225.403 83.6399C216.467 87.6778 210.546 94.4077 207.785 103.72C219.845 107.576 229.144 110.159 231.396 110.778L234.193 100.01C234.266 99.7189 234.557 99.537 234.847 99.6097C235.138 99.6825 235.319 99.9735 235.247 100.265L228.926 130.785Z" fill="#0B0F19"/>
<path d="M207.098 104.087C207.098 104.087 198.343 143.885 200.051 146.831C201.758 149.778 249.452 159.454 261.912 159.891C274.371 160.327 270.702 141.811 266.888 139.665C263.111 137.519 228.275 131.225 228.275 131.225L231.762 111.472L207.098 104.087Z" fill="white"/>
<path d="M262.347 160.438C262.202 160.438 262.02 160.438 261.875 160.438C255.155 160.183 239.426 157.455 226.822 154.835C219.048 153.235 200.813 149.233 199.578 147.123C199.251 146.578 198.416 145.123 202.375 124.278C204.337 114.092 206.516 104.089 206.552 104.016C206.589 103.87 206.661 103.725 206.807 103.652C206.952 103.579 207.097 103.543 207.243 103.616L231.943 111C232.198 111.073 232.379 111.328 232.307 111.619L228.929 130.826C233.505 131.663 263.582 137.192 267.179 139.229C269.903 140.757 272.082 148.797 270.557 154.29C269.721 157.091 267.651 160.438 262.347 160.438ZM207.497 104.78C204.119 120.131 199.36 144.541 200.522 146.541C201.14 147.487 209.749 150.143 227.149 153.781C239.681 156.363 255.3 159.092 261.911 159.346C265.871 159.492 268.414 157.673 269.467 153.962C270.157 151.561 270.121 148.469 269.358 145.45C268.704 142.831 267.614 140.721 266.597 140.139C263.655 138.466 240.153 133.918 228.166 131.772C227.875 131.736 227.657 131.445 227.73 131.154L231.144 111.91L207.497 104.78Z" fill="#0B0F19"/>
<path d="M259.439 118.639L270.482 110.236L279.055 124.787L270.518 139.847L257.333 136.973L259.439 118.639Z" fill="white"/>
<path d="M270.518 140.391C270.481 140.391 270.445 140.391 270.409 140.391L257.223 137.517C256.932 137.444 256.751 137.19 256.787 136.935L258.93 118.601C258.93 118.455 259.039 118.31 259.148 118.237L270.191 109.834C270.3 109.725 270.481 109.688 270.627 109.725C270.772 109.761 270.917 109.834 270.99 109.979L279.563 124.53C279.672 124.712 279.672 124.894 279.563 125.076L270.99 140.136C270.881 140.282 270.699 140.391 270.518 140.391ZM257.913 136.571L270.227 139.227L278.436 124.785L270.336 111.034L259.947 118.928L257.913 136.571Z" fill="#0B0F19"/>
<path d="M259.913 81.9333C267.941 79.2414 264.745 63.9991 260.458 57.8877C252.866 47.0471 234.159 48.9024 229.292 63.5626C228.238 66.7638 221.7 68.1826 224.242 73.2755C226.022 76.8405 233.142 74.9852 233.142 74.9852C233.142 74.9852 255.119 83.534 259.913 81.9333Z" fill="#0B0F19"/>
<path d="M258.351 82.6599C251.667 82.6599 235.067 76.3302 233.105 75.5662C231.943 75.8573 225.55 77.1669 223.77 73.5291C221.954 69.8549 224.387 67.8178 226.349 66.1444C227.439 65.235 228.456 64.3619 228.783 63.3797C231.071 56.4316 236.701 51.6297 243.821 50.5748C250.65 49.5562 257.189 52.2482 260.894 57.5229C264.236 62.252 266.597 71.6011 264.708 77.3851C263.872 79.9316 262.31 81.6413 260.058 82.3689C259.622 82.5871 259.041 82.6599 258.351 82.6599ZM233.142 74.4749C233.214 74.4749 233.287 74.4749 233.323 74.5113C238.808 76.6212 252.83 81.6049 258.278 81.6049C258.86 81.6049 259.368 81.5322 259.731 81.423C261.62 80.7682 262.964 79.3495 263.691 77.1305C265.434 71.783 263.182 62.7249 260.022 58.2141C256.535 53.2667 250.396 50.7567 244.003 51.7025C237.283 52.6847 232.015 57.1955 229.836 63.7435C229.4 65.0531 228.238 66.0353 227.075 67.0175C225.077 68.7272 223.334 70.1823 224.751 73.0562C225.55 74.6568 227.693 74.9842 229.364 74.9478C231.289 74.9478 232.996 74.4749 232.996 74.4749C233.069 74.4749 233.105 74.4749 233.142 74.4749Z" fill="#0B0F19"/>
<path d="M238.373 79.8253L240.298 74.3322C240.298 74.3322 238.3 71.5675 238.373 70.0033C238.446 68.439 235.358 69.5304 236.157 66.3291C236.993 63.1279 241.025 66.6929 243.023 67.5296C245.02 68.3663 248.762 66.4019 250.723 66.2564C252.067 66.1472 253.411 67.4568 253.775 68.2935C254.537 70.0397 253.484 72.5133 251.45 73.6774C249.416 74.8779 246.401 75.0598 246.401 75.0598L246.11 82.1898C246.11 82.1898 245.674 83.6813 241.751 82.59C237.828 81.4623 238.373 79.8253 238.373 79.8253Z" fill="white"/>
<path d="M244.222 83.5003C243.568 83.5003 242.696 83.3912 241.606 83.1002C239.717 82.5909 238.519 81.827 238.01 80.9175C237.647 80.2627 237.792 79.7534 237.829 79.6443L239.645 74.4059C239.136 73.642 237.683 71.4593 237.792 69.9678C237.792 69.7859 237.756 69.7132 237.138 69.4585C236.339 69.1311 234.995 68.5855 235.613 66.1845C235.831 65.3842 236.23 64.8386 236.811 64.6203C238.119 64.0746 239.935 65.166 241.534 66.1118C242.151 66.4756 242.769 66.8393 243.205 67.0212C244.331 67.4578 246.22 66.8757 247.891 66.3664C248.908 66.039 249.888 65.748 250.651 65.7116C252.25 65.6025 253.775 67.0212 254.247 68.0762C255.119 70.0406 253.957 72.8417 251.705 74.1513C250.07 75.0971 247.891 75.4609 246.91 75.57L246.619 82.1907C246.619 82.2271 246.619 82.2635 246.583 82.2999C246.619 82.4454 246.256 83.5003 244.222 83.5003ZM238.882 79.9717C238.882 80.0808 238.773 81.1722 241.897 82.0452C244.44 82.7364 245.384 82.2999 245.566 82.0088L245.856 75.0243C245.856 74.7333 246.074 74.515 246.365 74.515C246.401 74.515 249.271 74.3331 251.16 73.2054C252.94 72.1505 253.92 69.9678 253.267 68.5127C252.94 67.7852 251.777 66.7302 250.76 66.803C250.106 66.8393 249.198 67.1304 248.254 67.4214C246.401 68.0034 244.294 68.6582 242.805 68.0398C242.297 67.8215 241.643 67.4578 240.989 67.0576C239.754 66.33 238.047 65.3115 237.211 65.6389C237.102 65.6753 236.811 65.7844 236.63 66.4756C236.267 67.9307 236.775 68.1489 237.538 68.4763C238.083 68.6946 238.918 69.0584 238.846 70.0406C238.773 71.0228 239.935 72.9872 240.662 74.0057C240.771 74.1513 240.807 74.3331 240.735 74.515L238.882 79.9717Z" fill="#0B0F19"/>
<path d="M449.455 161.276H84.2814C83.9908 161.276 83.7366 161.021 83.7366 160.73C83.7366 160.439 83.9908 160.185 84.2814 160.185H449.455C449.746 160.185 450 160.439 450 160.73C450 161.021 449.782 161.276 449.455 161.276Z" fill="#0B0F19"/>
<path d="M175.857 160.561L124.735 357.239L125.789 357.514L176.912 160.836L175.857 160.561Z" fill="#565973"/>
<path d="M131.267 160.536L130.231 160.876L197.319 365.818L198.354 365.478L131.267 160.536Z" fill="#565973"/>
<path d="M359.487 160.546L358.453 160.891L426.635 365.821L427.669 365.476L359.487 160.546Z" fill="#565973"/>
<path d="M405.197 160.542L354.082 354.489L355.136 354.768L406.251 160.82L405.197 160.542Z" fill="#565973"/>
<path d="M104.84 136.898C104.622 136.898 104.404 136.753 104.332 136.571C104.259 136.389 97.4663 119.51 88.1309 115.254C87.8403 115.145 87.7313 114.817 87.8766 114.526C87.9856 114.235 88.3125 114.126 88.6031 114.271C92.7078 116.163 96.7762 120.419 100.699 126.931C103.605 131.769 105.349 136.098 105.385 136.171C105.494 136.462 105.349 136.753 105.095 136.862C104.986 136.898 104.913 136.898 104.84 136.898Z" fill="#0B0F19"/>
<path d="M88.3531 114.744C88.3531 114.744 80.9792 103.03 78.0732 106.413C74.0411 111.07 88.3531 114.744 88.3531 114.744Z" fill="#565973"/>
<path d="M88.3523 115.291C88.316 115.291 88.2797 115.291 88.207 115.291C87.1899 115 78.0724 112.563 76.91 108.889C76.6194 107.906 76.8374 106.961 77.6365 106.088C78.1451 105.505 78.7989 105.214 79.5617 105.287C81.1237 105.396 83.1579 106.997 85.628 110.053C87.4079 112.272 88.7519 114.382 88.8246 114.491C88.9335 114.673 88.9335 114.927 88.7882 115.109C88.6793 115.218 88.534 115.291 88.3523 115.291ZM79.3438 106.342C78.9805 106.342 78.6899 106.488 78.4357 106.779C77.9271 107.397 77.7455 107.979 77.9271 108.561C78.6173 110.817 83.8844 112.854 87.0446 113.836C85.1557 111.071 81.5959 106.524 79.4164 106.379C79.4164 106.342 79.3801 106.342 79.3438 106.342Z" fill="#0B0F19"/>
<path d="M97.8652 123.618C95.2498 117.943 87.6216 128.748 87.6216 128.748C87.6216 128.748 99.3182 126.71 97.8652 123.618Z" fill="#565973"/>
<path d="M88.1541 129.295C87.9724 129.295 87.7908 129.186 87.6818 129.041C87.5729 128.859 87.5729 128.604 87.6818 128.422C88.2267 127.658 92.9489 121.11 96.4724 121.438C97.5259 121.547 98.325 122.202 98.8699 123.402C99.1242 123.911 99.0878 124.493 98.8336 125.003C97.4532 127.622 89.1711 129.15 88.2267 129.295C88.2267 129.295 88.1904 129.295 88.1541 129.295ZM96.2182 122.493C94.184 122.493 91.1327 125.767 89.4254 127.913C92.7673 127.222 97.1263 125.876 97.8528 124.457C97.9618 124.239 97.9618 124.057 97.8891 123.839C97.4895 123.002 97.0173 122.565 96.3635 122.529C96.3271 122.493 96.2908 122.493 96.2182 122.493Z" fill="#0B0F19"/>
<path d="M110.145 93.2839C111.526 110.636 115.376 136.646 115.376 136.646L110.145 93.2839Z" fill="#0B0F19"/>
<path d="M115.338 137.23C115.084 137.23 114.829 137.048 114.793 136.757C114.757 136.503 110.943 110.529 109.562 93.3589C109.526 93.0679 109.78 92.8132 110.071 92.7769C110.361 92.7405 110.616 92.9951 110.652 93.2861C111.996 110.42 115.847 136.357 115.883 136.612C115.919 136.903 115.738 137.194 115.411 137.23C115.411 137.23 115.374 137.23 115.338 137.23Z" fill="#0B0F19"/>
<path d="M109.274 76.8394C111.453 76.6211 117.955 95.974 109.928 95.0646C102.808 94.2279 109.274 76.8394 109.274 76.8394Z" fill="#565973"/>
<path d="M110.472 95.6108C110.29 95.6108 110.072 95.6108 109.89 95.5744C108.619 95.4289 107.638 94.8105 107.021 93.7555C104.187 89.1356 108.619 77.1309 108.801 76.6216C108.873 76.4398 109.055 76.2942 109.273 76.2579C109.854 76.1851 110.435 76.658 111.089 77.7494C113.014 80.8778 115.884 90.2269 113.523 93.9738C112.796 95.0651 111.779 95.6108 110.472 95.6108ZM109.6 77.6038C109.237 78.6588 108.474 80.987 107.893 83.6425C106.875 88.2261 106.875 91.5365 107.929 93.2099C108.401 93.9738 109.091 94.4103 109.999 94.5195C111.743 94.7377 112.76 93.8647 113.16 91.9003C114.068 87.2076 110.98 79.0226 109.6 77.6038Z" fill="#0B0F19"/>
<path d="M111.09 103.796C110.909 103.796 110.727 103.687 110.618 103.542C110.582 103.469 106.913 97.3938 101.028 96.9209C95.2528 96.4843 94.1267 96.8481 94.0904 96.8845C93.8361 97.03 93.5092 96.9209 93.3639 96.6299C93.2186 96.3752 93.3639 96.0114 93.6181 95.9023C93.7998 95.7932 95.0348 95.3566 101.101 95.8295C107.531 96.3388 111.381 102.705 111.526 102.96C111.672 103.214 111.599 103.542 111.345 103.724C111.272 103.796 111.163 103.796 111.09 103.796Z" fill="#0B0F19"/>
<path d="M93.6175 95.7246C92.4914 88.3763 81.594 97.1797 81.594 97.1797C81.594 97.1797 94.3803 100.745 93.6175 95.7246Z" fill="#565973"/>
<path d="M89.4396 98.9604C88.5314 98.9604 87.478 98.8877 86.3156 98.7058C83.7366 98.342 81.5207 97.7236 81.4118 97.7236C81.2301 97.6872 81.0485 97.5053 81.0122 97.3234C80.9759 97.1052 81.0485 96.9233 81.1938 96.7778C81.4844 96.5595 88.3135 91.1029 91.9823 92.5216C93.1447 92.9945 93.8712 94.0495 94.1255 95.6501C94.2708 96.5959 94.0165 97.3962 93.3626 97.9419C92.6361 98.5967 91.2921 98.9604 89.4396 98.9604ZM82.7921 96.9597C85.7344 97.6508 91.0742 98.5603 92.6725 97.1416C93.0357 96.8142 93.1447 96.414 93.072 95.832C92.8904 94.5951 92.4182 93.8676 91.619 93.5402C89.4032 92.6671 85.0806 95.2863 82.7921 96.9597Z" fill="#0B0F19"/>
<path d="M112.033 112.237C111.961 112.237 111.852 112.2 111.779 112.164C111.525 112.018 111.416 111.691 111.525 111.436C111.634 111.182 114.721 105.143 122.35 100.923C128.089 97.7584 131.322 96.7762 131.431 96.7398C131.721 96.667 132.012 96.8125 132.121 97.1036C132.194 97.3946 132.048 97.6856 131.758 97.7947C131.721 97.7947 128.488 98.7769 122.894 101.869C115.557 105.943 112.542 111.873 112.506 111.909C112.433 112.128 112.215 112.237 112.033 112.237Z" fill="#0B0F19"/>
<path d="M131.976 97.2882C129.578 88.5212 149.811 94.0142 149.811 94.0142C149.811 94.0142 133.683 103.545 131.976 97.2882Z" fill="#565973"/>
<path d="M135.391 99.9399C134.628 99.9399 133.938 99.8308 133.357 99.6125C132.376 99.2124 131.722 98.4848 131.431 97.4299C130.995 95.7565 131.25 94.4105 132.194 93.4647C133.792 91.8641 137.28 91.3912 142.583 92.046C146.434 92.5189 149.884 93.4647 149.921 93.4647C150.139 93.5374 150.284 93.683 150.32 93.9012C150.357 94.1195 150.248 94.3378 150.066 94.4469C149.666 94.7015 140.767 99.9399 135.391 99.9399ZM138.406 92.8463C136.045 92.8463 134.01 93.21 132.993 94.2286C132.303 94.9198 132.158 95.8656 132.485 97.1388C132.666 97.83 133.102 98.3029 133.756 98.594C135.463 99.2851 138.696 98.6303 143.128 96.7387C145.235 95.8292 147.16 94.847 148.322 94.1922C145.78 93.5738 141.784 92.8463 138.406 92.8463Z" fill="#0B0F19"/>
<path d="M126.637 137.227C126.347 137.227 126.092 137.009 126.092 136.682C126.092 136.209 125.765 125.15 129.979 121.84C130.233 121.658 130.56 121.694 130.742 121.949C130.924 122.204 130.887 122.531 130.633 122.713C126.855 125.696 127.182 136.573 127.182 136.682C127.182 136.973 126.964 137.227 126.637 137.227Z" fill="#0B0F19"/>
<path d="M144.361 111.983C144.361 111.983 124.927 115.912 129.976 122.278C133.354 126.57 144.361 111.983 144.361 111.983Z" fill="#565973"/>
<path d="M131.612 123.625C130.777 123.625 130.05 123.297 129.542 122.606C128.597 121.442 128.38 120.242 128.815 119.041C130.559 114.239 143.709 111.547 144.254 111.438C144.471 111.402 144.689 111.475 144.835 111.693C144.944 111.875 144.944 112.129 144.798 112.311C144.471 112.784 136.262 123.552 131.612 123.625C131.649 123.625 131.649 123.625 131.612 123.625ZM143.018 112.857C138.732 113.875 130.995 116.349 129.833 119.441C129.542 120.242 129.724 121.078 130.414 121.951C130.741 122.351 131.14 122.533 131.649 122.533C134.664 122.497 140.185 116.349 143.018 112.857Z" fill="#0B0F19"/>
<path d="M121.804 117.111C126.345 114.964 127.289 128.206 127.289 128.206C127.289 128.206 117.372 119.221 121.804 117.111Z" fill="#565973"/>
<path d="M127.326 128.789C127.181 128.789 127.072 128.753 126.963 128.644C126.89 128.571 125.146 126.97 123.439 124.969C121.042 122.168 119.952 119.986 120.206 118.458C120.315 117.658 120.824 117.003 121.623 116.639C122.458 116.239 123.294 116.275 124.02 116.712C125.364 117.512 126.418 119.695 127.181 123.26C127.726 125.806 127.871 128.134 127.907 128.243C127.907 128.462 127.798 128.68 127.617 128.789C127.471 128.753 127.399 128.789 127.326 128.789ZM122.059 117.621C121.587 117.839 121.332 118.167 121.26 118.603C120.969 120.677 124.42 124.606 126.636 126.825C126.273 123.769 125.292 118.712 123.439 117.621C123.003 117.366 122.567 117.366 122.059 117.621Z" fill="#0B0F19"/>
<path d="M132.778 136.353H99.9036V160.69H132.778V136.353Z" fill="#D4D7E5"/>
<path d="M132.777 161.235H99.9025C99.6119 161.235 99.3577 160.981 99.3577 160.69V136.317C99.3577 136.026 99.6119 135.771 99.9025 135.771H132.777C133.067 135.771 133.321 136.026 133.321 136.317V160.69C133.321 161.017 133.067 161.235 132.777 161.235ZM100.447 160.144H132.232V136.862H100.447V160.144Z" fill="#0B0F19"/>
<path d="M257.297 160.73L290.97 92.3396H381.637L351.814 160.73H257.297Z" fill="url(#paint0_linear_20005153_3935)"/>
<path d="M351.85 161.276H257.296C257.114 161.276 256.933 161.167 256.824 161.022C256.715 160.876 256.715 160.658 256.787 160.476L290.461 92.0859C290.57 91.9041 290.751 91.7949 290.933 91.7949H381.636C381.818 91.7949 381.999 91.9041 382.108 92.0496C382.217 92.1951 382.217 92.4133 382.144 92.5589L352.322 160.949C352.249 161.167 352.067 161.276 351.85 161.276ZM258.168 160.185H351.486L380.837 92.8863H291.332L258.168 160.185Z" fill="#0B0F19"/>
<path d="M327.84 123.257C327.84 123.257 324.353 122.311 321.882 124.057C320.793 124.821 317.414 127.44 319.194 129.659C320.974 131.878 324.28 129.95 325.551 128.022C326.823 126.058 327.84 123.257 327.84 123.257Z" fill="white"/>
<path d="M321.228 131.153C320.248 131.153 319.412 130.753 318.758 129.953C318.25 129.334 318.068 128.607 318.177 127.843C318.431 126.024 320.429 124.351 321.555 123.55C324.207 121.695 327.803 122.641 327.985 122.677C328.13 122.714 328.239 122.823 328.312 122.968C328.384 123.114 328.384 123.259 328.348 123.405C328.312 123.514 327.295 126.315 325.987 128.279C325.079 129.662 323.19 131.081 321.374 131.153C321.337 131.153 321.265 131.153 321.228 131.153ZM325.624 123.55C324.57 123.55 323.263 123.732 322.173 124.496C321.519 124.933 319.449 126.533 319.231 128.061C319.158 128.534 319.303 128.934 319.594 129.334C320.03 129.88 320.611 130.135 321.301 130.098C322.754 130.026 324.316 128.825 325.043 127.697C325.914 126.351 326.677 124.569 327.04 123.66C326.713 123.587 326.205 123.55 325.624 123.55Z" fill="#0B0F19"/>
<path d="M422.502 154.325C422.466 154.325 422.466 154.325 422.43 154.325C422.139 154.289 421.921 153.998 421.958 153.707L433.872 61.4165L379.93 31.9869C379.675 31.8414 379.567 31.514 379.712 31.2594C379.857 31.0047 380.184 30.8956 380.438 31.0411L434.744 60.6526C434.926 60.7617 435.035 60.98 435.035 61.1982L423.047 153.852C423.011 154.143 422.757 154.325 422.502 154.325Z" fill="#565973"/>
<path d="M380.184 31.5166L353.922 42.6482L380.693 59.3092L380.184 31.5166Z" fill="#D4D7E5"/>
<path d="M380.693 59.8537C380.584 59.8537 380.511 59.8173 380.402 59.781L353.631 43.12C353.449 43.0108 353.376 42.829 353.376 42.6107C353.376 42.3924 353.522 42.2469 353.703 42.1378L379.966 31.0062C380.148 30.9335 380.329 30.9698 380.475 31.0426C380.62 31.1517 380.729 31.2972 380.729 31.4791L381.238 59.2717C381.238 59.4536 381.129 59.6718 380.947 59.7446C380.874 59.8173 380.802 59.8537 380.693 59.8537ZM355.12 42.7562L380.148 58.3258L379.676 32.3522L355.12 42.7562Z" fill="#0B0F19"/>
<path d="M366.963 59.0125C370.814 59.0125 373.901 55.884 373.901 52.0644C373.901 48.2083 370.778 45.1162 366.963 45.1162C363.113 45.1162 360.025 48.2447 360.025 52.0644C360.025 55.884 363.113 59.0125 366.963 59.0125Z" fill="white"/>
<path d="M366.963 59.5595C362.822 59.5595 359.48 56.2128 359.48 52.0657C359.48 47.9186 362.822 44.5719 366.963 44.5719C371.104 44.5719 374.446 47.9186 374.446 52.0657C374.446 56.1764 371.104 59.5595 366.963 59.5595ZM366.963 45.6269C363.44 45.6269 360.57 48.5007 360.57 52.0293C360.57 55.558 363.44 58.4318 366.963 58.4318C370.487 58.4318 373.356 55.558 373.356 52.0293C373.356 48.5007 370.487 45.6269 366.963 45.6269Z" fill="#0B0F19"/>
<path d="M439.867 152.833H404.632V160.326H439.903V152.833H439.867Z" fill="#D4D7E5"/>
<path d="M439.867 160.907H404.632C404.341 160.907 404.087 160.653 404.087 160.362V152.868C404.087 152.577 404.341 152.322 404.632 152.322H439.903C440.194 152.322 440.448 152.577 440.448 152.868V160.362C440.412 160.653 440.194 160.907 439.867 160.907ZM405.177 159.816H439.358V153.413H405.177V159.816Z" fill="#0B0F19"/>
<path d="M174.73 38.2057C181.269 41.989 189.66 39.7336 193.438 33.1856C197.215 26.6376 194.963 18.2344 188.425 14.4511C181.886 10.6678 173.495 12.9232 169.717 19.4712C165.94 26.0192 168.192 34.4225 174.73 38.2057Z" fill="white"/>
<path d="M181.56 40.5727C179.09 40.5727 176.656 39.9179 174.477 38.6446C167.684 34.7158 165.323 25.9852 169.246 19.1462C171.135 15.8358 174.223 13.4713 177.891 12.4891C181.56 11.5069 185.411 12.0162 188.716 13.9078C192.022 15.7994 194.383 18.8916 195.364 22.5657C196.344 26.2398 195.836 30.0959 193.947 33.4062C192.058 36.7166 188.97 39.0812 185.302 40.0634C184.03 40.4271 182.795 40.5727 181.56 40.5727ZM181.597 13.1439C180.47 13.1439 179.308 13.2894 178.182 13.5804C174.804 14.4899 171.934 16.6725 170.191 19.7282C166.558 26.0216 168.738 34.0974 175.022 37.7352C178.073 39.4813 181.597 39.9542 185.011 39.0448C188.389 38.1353 191.259 35.9527 193.003 32.897C194.746 29.8412 195.218 26.3126 194.31 22.8931C193.402 19.51 191.223 16.6361 188.171 14.89C186.137 13.7259 183.885 13.1439 181.597 13.1439Z" fill="#565973"/>
<path d="M182.468 32.8981C182.323 32.8981 182.214 32.8617 182.105 32.7525L176.547 27.5505C176.33 27.3323 176.33 27.0049 176.511 26.7866C176.729 26.5683 177.056 26.5683 177.274 26.7502L182.868 31.9522C183.086 32.1705 183.086 32.4979 182.904 32.7162C182.759 32.8617 182.614 32.8981 182.468 32.8981Z" fill="#565973"/>
<path d="M187.373 31.2594C187.119 31.2594 186.901 31.0775 186.828 30.8228L185.629 24.0566C185.593 23.7656 185.775 23.4746 186.065 23.4382C186.356 23.3654 186.646 23.5837 186.683 23.8747L187.881 30.641C187.918 30.932 187.736 31.223 187.446 31.2594C187.446 31.2594 187.409 31.2594 187.373 31.2594Z" fill="#565973"/>
<path d="M175.604 24.4615C175.314 24.4615 175.059 24.2433 175.059 23.9523C175.059 23.8431 174.987 21.042 176.73 20.169C177.929 19.5869 179.055 20.4236 179.745 21.2967C180.435 20.2781 181.743 18.5684 183.087 18.3865C184.649 18.1682 185.957 20.6055 186.211 21.1148C186.356 21.3694 186.247 21.6968 185.957 21.8424C185.702 21.9879 185.376 21.8787 185.23 21.5877C184.758 20.6419 183.814 19.405 183.232 19.4778C182.252 19.6233 180.871 21.4422 180.217 22.5699C180.108 22.7518 179.927 22.8246 179.745 22.8246C179.564 22.8246 179.382 22.7154 179.273 22.5699C179.273 22.5335 178.147 20.6783 177.166 21.1512C176.04 21.6968 176.113 23.8795 176.113 23.9159C176.149 24.1705 175.931 24.4252 175.604 24.4615Z" fill="#565973"/>
<path d="M192.857 35.1188C192.857 35.1188 195.036 37.6288 194.019 39.0476C193.002 40.4299 181.923 44.4678 180.361 43.7767C178.799 43.0855 178.981 39.8115 178.981 39.8115C178.981 39.8115 183.994 40.539 186.718 39.0476C189.515 37.5197 192.857 35.1188 192.857 35.1188Z" fill="white"/>
<path d="M180.87 44.3558C180.579 44.3558 180.325 44.3195 180.144 44.2467C178.291 43.41 178.436 40.136 178.436 39.7359C178.436 39.5904 178.509 39.4449 178.654 39.3357C178.763 39.2266 178.908 39.1902 179.09 39.2266C179.126 39.2266 183.921 39.9178 186.5 38.5354C189.188 37.0439 192.53 34.6794 192.567 34.6794C192.785 34.5339 193.112 34.5703 193.293 34.7521C193.547 35.0432 195.727 37.6624 194.492 39.3357C193.475 40.7181 183.994 44.3558 180.87 44.3558ZM179.562 40.4271C179.599 41.4093 179.817 42.9371 180.616 43.2645C181.851 43.8102 192.639 40.0269 193.62 38.7173C194.129 38.0261 193.329 36.6438 192.785 35.8799C191.804 36.571 189.225 38.3172 187.045 39.5176C184.684 40.7908 181.015 40.5726 179.562 40.4271Z" fill="#565973"/>
<path d="M192.604 40.5385C192.604 40.5385 195.074 42.1391 193.984 43.485C192.894 44.831 183.886 47.9595 182.651 46.177C181.743 44.7946 182.178 43.7761 183.341 43.4487C185.23 42.9394 192.604 40.5385 192.604 40.5385Z" fill="white"/>
<path d="M184.358 47.2693C184.249 47.2693 184.177 47.2693 184.104 47.2693C183.196 47.233 182.542 46.9783 182.215 46.469C181.489 45.4141 181.561 44.6138 181.743 44.1409C181.961 43.5588 182.506 43.1223 183.196 42.904C185.048 42.3947 192.35 40.0302 192.422 40.0302C192.568 39.9938 192.749 39.9938 192.895 40.1029C193.076 40.2121 194.565 41.2306 194.783 42.4675C194.856 42.9768 194.747 43.4497 194.42 43.8498C193.367 45.1231 187.446 47.2693 184.358 47.2693ZM192.495 41.1579C191.151 41.5944 185.194 43.5224 183.45 43.9953C183.196 44.0681 182.833 44.2136 182.724 44.541C182.578 44.8684 182.724 45.3413 183.087 45.887C183.123 45.9597 183.341 46.1416 184.104 46.178C187.01 46.3235 192.822 44.0317 193.548 43.1587C193.694 42.9768 193.73 42.8313 193.694 42.6494C193.621 42.0673 192.931 41.4489 192.495 41.1579Z" fill="#565973"/>
<path d="M192.965 44.6104L194.818 50.2853C194.818 50.2853 189.878 52.5043 189.151 51.9586C188.388 51.413 186.209 46.8294 186.209 46.8294L192.965 44.6104Z" fill="white"/>
<path d="M189.479 52.5392C189.152 52.5392 188.934 52.4664 188.789 52.3937C187.989 51.8116 186.21 48.1739 185.701 47.0462C185.628 46.9007 185.628 46.7551 185.701 46.6096C185.774 46.4641 185.883 46.355 186.028 46.3186L192.784 44.0996C192.93 44.0632 193.075 44.0632 193.184 44.136C193.329 44.2087 193.402 44.3178 193.438 44.4634L195.291 50.1383C195.363 50.3929 195.254 50.6839 195 50.7931C191.949 52.139 190.351 52.5392 189.479 52.5392ZM189.406 51.4842C189.915 51.5934 192.167 50.8294 194.128 49.9928L192.603 45.3L186.936 47.1553C187.917 49.0833 189.007 51.1205 189.406 51.4842Z" fill="#565973"/>
<defs>
<linearGradient id="paint0_linear_20005153_3935" x1="257.297" y1="126.698" x2="381.637" y2="126.698" gradientUnits="userSpaceOnUse">
<stop stop-color="#6366F1"/>
<stop offset="0.5" stop-color="#8B5CF6"/>
<stop offset="1" stop-color="#D946EF"/>
</linearGradient>
</defs>
</svg>
