<svg width="122" height="44" viewBox="0 0 122 44" fill="none" xmlns="http://www.w3.org/2000/svg">
<path d="M60.68 29.6486C61.4304 29.6486 62.1569 29.5531 62.8595 29.3621C63.569 29.1711 64.2034 28.8846 64.7628 28.5026C65.3221 28.1137 65.7656 27.626 66.093 27.0393C66.4273 26.4458 66.5944 25.7534 66.5944 24.9621C66.5944 24.2186 66.4545 23.6046 66.1749 23.1203C65.902 22.6359 65.5507 22.2471 65.1209 21.9538C64.698 21.6536 64.2545 21.4217 63.7907 21.2579C63.3268 21.0874 62.9038 20.951 62.5218 20.8486L59.9637 20.1528C59.6499 20.071 59.3429 19.9686 59.0428 19.8458C58.7426 19.7231 58.4936 19.5627 58.2958 19.3649C58.098 19.1603 57.999 18.8976 57.999 18.577C57.999 18.2291 58.1184 17.9289 58.3572 17.6765C58.6028 17.4241 58.9166 17.2331 59.2986 17.1035C59.6874 16.9671 60.1001 16.9057 60.5367 16.9193C61.2052 16.9398 61.8192 17.1376 62.3786 17.5128C62.938 17.888 63.2995 18.4338 63.4632 19.15L66.4716 18.6384C66.1169 17.2536 65.4279 16.1928 64.4046 15.4561C63.3814 14.7193 62.1057 14.3407 60.5776 14.3203C59.568 14.3134 58.6471 14.4703 57.8149 14.791C56.9826 15.1116 56.3175 15.5993 55.8195 16.2542C55.3215 16.9091 55.0725 17.7311 55.0725 18.7203C55.0725 19.4229 55.1885 20.0062 55.4204 20.47C55.6592 20.9271 55.9559 21.2955 56.3107 21.5751C56.6654 21.8548 57.0304 22.0697 57.4056 22.2198C57.7876 22.3699 58.1218 22.4858 58.4083 22.5677L62.2353 23.6933C62.8083 23.8638 63.1904 24.0787 63.3814 24.3379C63.5724 24.5903 63.6679 24.8666 63.6679 25.1668C63.6679 25.5761 63.528 25.9206 63.2483 26.2003C62.9755 26.48 62.6242 26.6914 62.1944 26.8347C61.7646 26.9779 61.3212 27.0496 60.8642 27.0496C60.0456 27.0496 59.3156 26.821 58.6744 26.364C58.0332 25.9069 57.6102 25.2555 57.4056 24.4096L54.4995 24.8393C54.6496 25.8353 55.0043 26.6948 55.5637 27.4179C56.1299 28.1342 56.8496 28.6868 57.7228 29.0756C58.6028 29.4576 59.5885 29.6486 60.68 29.6486Z" fill="white"/>
<path d="M69.0481 16.7556H71.8314V14.2998H69.0481V16.7556ZM69.0481 29.3417H71.8314V18.2905H69.0481V29.3417Z" fill="white"/>
<path d="M75.1037 29.3417H77.887V14.2998H75.1037V29.3417Z" fill="white"/>
<path d="M81.1593 16.7556H83.9426V14.2998H81.1593V16.7556ZM81.1593 29.3417H83.9426V18.2905H81.1593V29.3417Z" fill="white"/>
<path d="M91.8809 29.6486C93.1634 29.6486 94.2413 29.3314 95.1144 28.697C95.9876 28.0626 96.5811 27.1587 96.8949 25.9854L94.0502 25.3919C93.8865 25.924 93.6409 26.3333 93.3135 26.6198C92.9861 26.9063 92.5085 27.0496 91.8809 27.0496C91.0419 27.0496 90.4075 26.7528 89.9777 26.1593C89.5547 25.559 89.3433 24.7779 89.3433 23.8161C89.3433 22.8951 89.5445 22.1277 89.947 21.5138C90.3563 20.893 91.0009 20.5826 91.8809 20.5826C92.3926 20.5826 92.8496 20.7429 93.2521 21.0635C93.6614 21.3841 93.9479 21.831 94.1116 22.404L96.8949 21.6672C96.6493 20.528 96.0831 19.631 95.1963 18.9761C94.3163 18.3144 93.2248 17.9835 91.9219 17.9835C90.7963 17.9835 89.8208 18.2359 88.9954 18.7407C88.1699 19.2455 87.5287 19.9379 87.0716 20.8179C86.6214 21.6979 86.3963 22.6973 86.3963 23.8161C86.3963 24.9212 86.6146 25.9138 87.0512 26.7938C87.4878 27.6737 88.1154 28.3696 88.934 28.8812C89.7526 29.3928 90.7349 29.6486 91.8809 29.6486Z" fill="white"/>
<path d="M103.615 29.6486C104.72 29.6486 105.692 29.4031 106.531 28.9119C107.377 28.4139 108.035 27.7283 108.506 26.8551C108.983 25.9751 109.222 24.9621 109.222 23.8161C109.222 22.6769 108.987 21.6707 108.516 20.7975C108.045 19.9175 107.387 19.2285 106.541 18.7305C105.702 18.2325 104.727 17.9835 103.615 17.9835C102.523 17.9835 101.558 18.2291 100.719 18.7203C99.8799 19.2114 99.2216 19.897 98.7441 20.777C98.2666 21.6502 98.0278 22.6632 98.0278 23.8161C98.0278 24.9553 98.2598 25.9649 98.7236 26.8449C99.1943 27.7181 99.8492 28.4037 100.688 28.9017C101.527 29.3996 102.503 29.6486 103.615 29.6486ZM103.615 27.0496C102.748 27.0496 102.09 26.7596 101.64 26.1798C101.197 25.5931 100.975 24.8052 100.975 23.8161C100.975 22.8542 101.186 22.0765 101.609 21.4831C102.039 20.8827 102.708 20.5826 103.615 20.5826C104.495 20.5826 105.157 20.8759 105.6 21.4626C106.05 22.0493 106.275 22.8338 106.275 23.8161C106.275 24.7643 106.054 25.542 105.61 26.1491C105.174 26.7494 104.508 27.0496 103.615 27.0496Z" fill="white"/>
<path d="M111.452 29.3417H114.276V23.7342C114.276 23.0452 114.351 22.4927 114.501 22.0765C114.658 21.6604 114.856 21.3466 115.095 21.1351C115.334 20.9169 115.589 20.7702 115.862 20.6951C116.135 20.6201 116.391 20.5826 116.63 20.5826C117.223 20.5826 117.68 20.7156 118.001 20.9817C118.328 21.2477 118.564 21.5786 118.707 21.9742C118.85 22.3699 118.935 22.7655 118.963 23.1612C118.99 23.55 119.004 23.8707 119.004 24.1231V29.3417H121.828V23.1407C121.828 22.9565 121.814 22.6632 121.787 22.2607C121.76 21.8582 121.681 21.4148 121.552 20.9305C121.422 20.4393 121.204 19.9686 120.897 19.5184C120.596 19.0682 120.174 18.6964 119.628 18.4031C119.082 18.1097 118.376 17.9631 117.51 17.9631C116.712 17.9631 116.016 18.0961 115.422 18.3621C114.829 18.6282 114.331 18.9829 113.928 19.4263V18.2905H111.452V29.3417Z" fill="white"/>
<path d="M10.2174 22L4.08696 12.2791L22.9891 0L22.4783 10.7442L10.2174 22Z" fill="url(#paint0_linear_20005153_5593)"/>
<path d="M22.4783 10.7442L22.9891 0L42.4022 8.69767L38.3152 26.093L12.2609 30.186L10.2174 22L22.4783 10.7442Z" fill="url(#paint1_linear_20005153_5593)"/>
<path d="M31.163 44L12.2609 30.186L38.3152 26.093L42.913 30.6977L31.163 44Z" fill="url(#paint2_linear_20005153_5593)"/>
<path d="M38.3152 26.093L42.913 30.6977L47 17.907L42.4022 8.69767L38.3152 26.093Z" fill="url(#paint3_linear_20005153_5593)"/>
<path d="M12.2609 30.186L31.163 44L12.2609 41.4418L0 26.6046L12.2609 30.186Z" fill="url(#paint4_linear_20005153_5593)"/>
<path d="M4.08696 12.2791L0 26.6046L12.2609 30.186L10.2174 22L4.08696 12.2791Z" fill="url(#paint5_linear_20005153_5593)"/>
<path d="M31.1634 43.9997L12.2612 30.1858L38.3156 26.0928L42.9134 30.6974L31.1634 43.9997Z" fill="black" fill-opacity="0.17"/>
<path d="M38.3145 26.0926L42.9123 30.6973L46.9992 17.9066L42.4014 8.69727L38.3145 26.0926Z" fill="black" fill-opacity="0.1"/>
<path d="M12.2609 30.1859L31.163 43.9998L12.2609 41.4417L0 26.6045L12.2609 30.1859Z" fill="black" fill-opacity="0.23"/>
<path d="M4.08696 12.2793L0 26.6049L12.2609 30.1863L10.2174 22.0002L4.08696 12.2793Z" fill="#C0C0C0" fill-opacity="0.05"/>
<path d="M10.2174 22L4.08696 12.2791L22.9891 0L22.4783 10.7442L10.2174 22Z" fill="white" fill-opacity="0.15"/>
<path fill-rule="evenodd" clip-rule="evenodd" d="M10.2174 22L22.4783 10.7442L22.9891 0L4.08696 12.2791L10.2174 22ZM10.2807 21.5255L22.1781 10.6033L22.6545 0.583262L4.50783 12.3716L10.2807 21.5255Z" fill="white" fill-opacity="0.15"/>
<path fill-rule="evenodd" clip-rule="evenodd" d="M22.7784 10.885L10.559 22.1028L12.4903 29.8393L38.0641 25.8217L42.0458 8.87429L23.2739 0.4639L22.7784 10.885ZM22.4783 10.7442L10.2174 22L12.2609 30.186L38.3152 26.093L42.4022 8.69767L22.9891 0L22.4783 10.7442Z" fill="white" fill-opacity="0.15"/>
<path fill-rule="evenodd" clip-rule="evenodd" d="M31.1183 43.5873L42.4924 30.7105L38.2087 26.4205L13.0388 30.3745L31.1183 43.5873ZM31.163 44L42.913 30.6977L38.3152 26.093L12.2609 30.186L31.163 44Z" fill="white" fill-opacity="0.15"/>
<path fill-rule="evenodd" clip-rule="evenodd" d="M42.913 30.6977L47 17.907L42.4022 8.69767L38.3152 26.093L42.913 30.6977ZM38.6527 25.9969L42.7743 30.1246L46.67 17.9325L42.5066 9.59332L38.6527 25.9969Z" fill="white" fill-opacity="0.15"/>
<path fill-rule="evenodd" clip-rule="evenodd" d="M12.1235 30.4657L0.872793 27.1793L12.4206 41.1537L30.0047 43.5334L12.1235 30.4657ZM12.2609 30.186L0 26.6046L12.2609 41.4418L31.163 44L12.2609 30.186Z" fill="white" fill-opacity="0.15"/>
<path fill-rule="evenodd" clip-rule="evenodd" d="M0.378475 26.3954L11.834 29.7416L9.93196 22.1222L4.19353 13.0229L0.378475 26.3954ZM0 26.6046L12.2609 30.186L10.2174 22L4.08696 12.2791L0 26.6046Z" fill="white" fill-opacity="0.15"/>
<path d="M23.6972 19.0159H27.1656C27.1154 15.9654 24.6082 13.8593 20.7971 13.8593C17.0446 13.8593 14.2949 15.9319 14.3117 19.0409C14.3033 21.5649 16.0835 23.0108 18.9752 23.7045L20.8389 24.1725C22.7026 24.6238 23.739 25.1587 23.7473 26.312C23.739 27.5656 22.5522 28.4181 20.7135 28.4181C18.8331 28.4181 17.4792 27.5489 17.3622 25.8356H13.8604C13.9523 29.538 16.6016 31.4519 20.7553 31.4519C24.9341 31.4519 27.3912 29.4545 27.3996 26.3204C27.3912 23.4704 25.2433 21.9577 22.2681 21.2891L20.7303 20.9214C19.2426 20.5787 17.9973 20.0271 18.0224 18.7986C18.0224 17.6954 19.0002 16.8847 20.7721 16.8847C22.5021 16.8847 23.5635 17.6703 23.6972 19.0159Z" fill="white"/>
<path d="M32.5507 19.3026H29.3182V31.2095H32.5507V19.3026Z" fill="white"/>
<path d="M31.3458 9.90723H30.1627L28.6888 10.8404V11.9566L30.0522 11.102H30.0871V15.8607H31.3458V9.90723Z" fill="white"/>
<path d="M32.6707 14.8142H35.5282V15.8607H36.7317V14.8142H37.4701V13.8055H36.7317V9.90723H35.1561L32.6707 13.8229V14.8142ZM35.5515 13.8055H33.9381V13.759L35.505 11.2793H35.5515V13.8055Z" fill="white"/>
<defs>
<linearGradient id="paint0_linear_20005153_5593" x1="0" y1="22.1053" x2="47" y2="22.1053" gradientUnits="userSpaceOnUse">
<stop stop-color="#6366F1"/>
<stop offset="0.5" stop-color="#8B5CF6"/>
<stop offset="1" stop-color="#D946EF"/>
</linearGradient>
<linearGradient id="paint1_linear_20005153_5593" x1="0" y1="22.1053" x2="47" y2="22.1053" gradientUnits="userSpaceOnUse">
<stop stop-color="#6366F1"/>
<stop offset="0.5" stop-color="#8B5CF6"/>
<stop offset="1" stop-color="#D946EF"/>
</linearGradient>
<linearGradient id="paint2_linear_20005153_5593" x1="0" y1="22.1053" x2="47" y2="22.1053" gradientUnits="userSpaceOnUse">
<stop stop-color="#6366F1"/>
<stop offset="0.5" stop-color="#8B5CF6"/>
<stop offset="1" stop-color="#D946EF"/>
</linearGradient>
<linearGradient id="paint3_linear_20005153_5593" x1="0" y1="22.1053" x2="47" y2="22.1053" gradientUnits="userSpaceOnUse">
<stop stop-color="#6366F1"/>
<stop offset="0.5" stop-color="#8B5CF6"/>
<stop offset="1" stop-color="#D946EF"/>
</linearGradient>
<linearGradient id="paint4_linear_20005153_5593" x1="0" y1="22.1053" x2="47" y2="22.1053" gradientUnits="userSpaceOnUse">
<stop stop-color="#6366F1"/>
<stop offset="0.5" stop-color="#8B5CF6"/>
<stop offset="1" stop-color="#D946EF"/>
</linearGradient>
<linearGradient id="paint5_linear_20005153_5593" x1="0" y1="22.1053" x2="47" y2="22.1053" gradientUnits="userSpaceOnUse">
<stop stop-color="#6366F1"/>
<stop offset="0.5" stop-color="#8B5CF6"/>
<stop offset="1" stop-color="#D946EF"/>
</linearGradient>
</defs>
</svg>
