<svg width="113" height="44" viewBox="0 0 113 44" fill="none" xmlns="http://www.w3.org/2000/svg">
<path d="M33.5994 16.8112H36.3332V27.425H33.5994V16.8112ZM37.4177 23.4175C37.4177 20.7925 39.0944 19.2262 41.6825 19.2262C44.2706 19.2262 45.9473 20.7925 45.9473 23.4175C45.9473 26.0425 44.307 27.6175 41.6825 27.6175C39.058 27.6175 37.4177 26.0862 37.4177 23.4175ZM43.2044 23.4175C43.2044 21.9737 42.612 21.125 41.6825 21.125C40.753 21.125 40.1698 22 40.1698 23.4175C40.1698 24.835 40.7439 25.6925 41.6825 25.6925C42.6211 25.6925 43.2044 24.8875 43.2044 23.4262V23.4175ZM46.9771 27.9412H49.6016C49.7266 28.2077 49.9377 28.4283 50.2037 28.5702C50.4697 28.712 50.7764 28.7677 51.0779 28.7287C52.1168 28.7287 52.6636 28.1862 52.6636 27.3987V25.9287H52.6089C52.3911 26.3793 52.0376 26.7567 51.5942 27.0126C51.1507 27.2684 50.6376 27.3907 50.1211 27.3637C48.1253 27.3637 46.804 25.9025 46.804 23.3912C46.804 20.88 48.0615 19.2962 50.1575 19.2962C50.6903 19.2762 51.2166 19.413 51.6662 19.6881C52.1157 19.9634 52.4669 20.364 52.6727 20.8362V19.375H55.4065V27.3375C55.4065 29.2537 53.6478 30.4437 51.0506 30.4437C48.6357 30.4437 47.132 29.4025 46.9771 27.95V27.9412ZM52.6727 23.4087C52.6727 22.1312 52.0621 21.3262 51.0961 21.3262C50.1302 21.3262 49.5378 22.1225 49.5378 23.4087C49.5378 24.695 50.1211 25.4212 51.0961 25.4212C52.0712 25.4212 52.6727 24.7125 52.6727 23.4175V23.4087ZM56.4363 23.4087C56.4363 20.7837 58.1131 19.2175 60.7011 19.2175C63.2892 19.2175 64.9751 20.7837 64.9751 23.4087C64.9751 26.0337 63.3348 27.6087 60.7011 27.6087C58.0675 27.6087 56.4363 26.0862 56.4363 23.4175V23.4087ZM62.223 23.4087C62.223 21.965 61.6307 21.1162 60.7011 21.1162C59.7716 21.1162 59.234 22 59.234 23.4262C59.234 24.8525 59.8081 25.7012 60.7376 25.7012C61.6671 25.7012 62.223 24.8875 62.223 23.4262V23.4087ZM66.014 17.4675C66.0068 17.2024 66.0818 16.9413 66.2293 16.7173C66.3769 16.4932 66.5904 16.3162 66.8429 16.2088C67.0953 16.1014 67.3752 16.0684 67.6473 16.1139C67.9193 16.1594 68.1711 16.2815 68.3707 16.4646C68.5705 16.6478 68.709 16.8837 68.7689 17.1425C68.8288 17.4013 68.8073 17.6714 68.707 17.9185C68.6069 18.1655 68.4325 18.3784 68.2062 18.5303C67.9799 18.6821 67.7116 18.766 67.4356 18.7712C67.2526 18.7833 67.069 18.7589 66.8963 18.6996C66.7235 18.6402 66.5655 18.5473 66.432 18.4265C66.2985 18.3057 66.1924 18.1597 66.1205 17.9976C66.0485 17.8357 66.0122 17.6611 66.014 17.485V17.4675ZM66.014 19.3925H68.7478V27.425H66.014V19.3925ZM78.6718 23.4087C78.6718 26.0337 77.4598 27.53 75.382 27.53C74.8493 27.5628 74.3188 27.4378 73.8624 27.1718C73.4061 26.9057 73.0458 26.5115 72.8304 26.0425H72.7757V29.9975H70.0419V19.375H72.7757V20.81H72.8304C73.0358 20.3332 73.3892 19.9288 73.8425 19.6517C74.2958 19.3745 74.827 19.2382 75.3638 19.2612C77.4598 19.2962 78.7082 20.8012 78.7082 23.4262L78.6718 23.4087ZM75.9379 23.4087C75.9379 22.1312 75.3274 21.3175 74.3705 21.3175C73.4136 21.3175 72.8031 22.14 72.794 23.4087C72.7848 24.6775 73.4136 25.4912 74.3705 25.4912C75.3274 25.4912 75.9379 24.695 75.9379 23.4262V23.4087ZM83.3649 19.2087C85.634 19.2087 87.0101 20.2412 87.0739 21.895H84.5861C84.5861 21.3262 84.094 20.9675 83.3376 20.9675C82.5812 20.9675 82.244 21.2475 82.244 21.6587C82.244 22.07 82.5448 22.2012 83.1553 22.3237L84.905 22.665C86.5727 23.0062 87.2835 23.6537 87.2835 24.87C87.2835 26.5325 85.7069 27.6 83.3832 27.6C81.0594 27.6 79.5375 26.5325 79.419 24.8962H82.0527C82.1347 25.4912 82.6268 25.8412 83.4287 25.8412C84.2307 25.8412 84.5952 25.5875 84.5952 25.1675C84.5952 24.7475 84.34 24.66 83.6839 24.5287L82.1073 24.205C80.4761 23.8812 79.6195 23.05 79.6195 21.825C79.6378 20.25 81.1049 19.2262 83.3649 19.2262V19.2087ZM96.4055 27.4075H93.7719V25.9112H93.7172C93.5723 26.4136 93.2533 26.8533 92.8123 27.1573C92.3712 27.4613 91.8354 27.6114 91.2932 27.5825C90.8778 27.6051 90.4622 27.542 90.0745 27.3972C89.6867 27.2523 89.3359 27.0294 89.0456 26.7432C88.7554 26.4571 88.5324 26.1143 88.392 25.7383C88.2514 25.3623 88.1967 24.9618 88.2312 24.5637V19.375H90.9651V23.96C90.9651 24.9137 91.4754 25.4212 92.3229 25.4212C92.5216 25.4216 92.7184 25.3812 92.8998 25.3028C93.0802 25.2243 93.2424 25.1095 93.3736 24.9661C93.5039 24.8227 93.6024 24.6541 93.6598 24.4716C93.7172 24.289 93.7345 24.0967 93.7081 23.9075V19.375H96.4419L96.4055 27.4075ZM97.7269 19.375H100.37V20.9237H100.424C100.569 20.428 100.882 19.9925 101.312 19.6853C101.742 19.3782 102.267 19.2167 102.803 19.2262C103.349 19.1843 103.89 19.341 104.321 19.6653C104.751 19.9896 105.039 20.4575 105.127 20.9762H105.181C105.346 20.452 105.689 19.9956 106.154 19.6788C106.619 19.3619 107.181 19.2027 107.751 19.2262C108.123 19.2142 108.493 19.2775 108.837 19.4119C109.183 19.5462 109.493 19.7488 109.751 20.0062C110.009 20.2637 110.208 20.5704 110.335 20.9063C110.46 21.2422 110.512 21.6 110.485 21.9562V27.425H107.751V22.6562C107.751 21.7812 107.341 21.3787 106.575 21.3787C106.405 21.3773 106.236 21.4111 106.08 21.4778C105.924 21.5445 105.784 21.6425 105.671 21.7652C105.558 21.888 105.474 22.0325 105.424 22.1892C105.373 22.346 105.36 22.5112 105.382 22.6737V27.425H102.785V22.6212C102.785 21.8162 102.374 21.3787 101.627 21.3787C101.455 21.3788 101.284 21.414 101.127 21.482C100.969 21.5501 100.828 21.6494 100.714 21.7734C100.599 21.8973 100.514 22.0433 100.462 22.2016C100.411 22.3598 100.394 22.5266 100.415 22.6912V27.425H97.6813L97.7269 19.375Z" fill="#B4B7C9"/>
<path d="M25.9536 17.2925C25.4899 16.2743 24.8761 15.3255 24.131 14.475C23.0297 13.1803 21.6553 12.1242 20.0983 11.3763C18.5413 10.6284 16.8369 10.2055 15.0974 10.1356C13.3579 10.0657 11.6228 10.3503 10.006 10.9706C8.38938 11.591 6.92785 12.5331 5.71768 13.7349C4.50751 14.9367 3.57613 16.3709 2.98483 17.9433C2.39354 19.5156 2.15574 21.1903 2.2871 22.8572C2.41846 24.5241 2.91598 26.1454 3.74693 27.6144C4.57788 29.0834 5.72342 30.3668 7.10814 31.38C7.99665 32.0432 8.97843 32.5823 10.0243 32.9813C11.4905 33.5583 13.0599 33.8554 14.6445 33.8563C17.9155 33.8494 21.0501 32.5974 23.3615 30.3749C25.6727 28.1524 26.9719 25.1408 26.9743 22C26.9766 20.38 26.6292 18.7771 25.9536 17.2925ZM14.6354 12.5413C16.0585 12.5411 17.4643 12.8398 18.7544 13.4163C18.4398 13.5468 18.109 13.638 17.7702 13.6875C16.6554 13.8425 15.6226 14.3395 14.826 15.1043C14.0295 15.8691 13.5119 16.8608 13.3505 17.9313C13.2797 18.5316 12.9952 19.0901 12.5453 19.5126C12.0954 19.935 11.5076 20.1954 10.8809 20.25C9.766 20.405 8.73321 20.902 7.93666 21.6668C7.14011 22.4317 6.62251 23.4233 6.46112 24.4938C6.40648 25.0646 6.15283 25.6011 5.74121 26.0163C5.03099 24.5754 4.71195 22.9854 4.81376 21.3943C4.91557 19.8032 5.43492 18.2626 6.32349 16.916C7.21206 15.5695 8.44097 14.4606 9.89586 13.6926C11.3507 12.9247 12.9843 12.5226 14.6445 12.5238L14.6354 12.5413ZM7.09903 28.125C7.20838 28.0288 7.31774 27.9413 7.42709 27.8363C8.23782 27.0816 8.75822 26.0853 8.90338 25.01C8.96223 24.4056 9.24329 23.841 9.6962 23.4175C10.1321 22.982 10.7187 22.7143 11.3456 22.665C12.4605 22.5101 13.4933 22.0131 14.2898 21.2482C15.0864 20.4834 15.604 19.4918 15.7654 18.4213C15.8048 17.7891 16.0873 17.1935 16.5582 16.75C17.0048 16.3229 17.597 16.065 18.2259 16.0238C19.2501 15.8885 20.2053 15.4513 20.9597 14.7725C21.8188 15.4568 22.5466 16.2801 23.1104 17.205C23.0758 17.2499 23.036 17.291 22.9919 17.3275C22.557 17.767 21.9711 18.0405 21.3425 18.0975C20.2264 18.2498 19.1921 18.7459 18.395 19.5112C17.598 20.2765 17.0813 21.2697 16.9227 22.3413C16.8585 22.9436 16.5794 23.5062 16.1326 23.9335C15.6858 24.361 15.099 24.6269 14.4714 24.6863C13.3532 24.84 12.3166 25.3361 11.5154 26.1005C10.7143 26.8651 10.1913 27.8574 10.0243 28.93C9.97523 29.3576 9.82223 29.7683 9.57773 30.1288C8.64275 29.5957 7.80536 28.9188 7.09903 28.125ZM14.6354 31.5025C13.7107 31.5035 12.7904 31.3798 11.9015 31.135C12.2056 30.5908 12.4033 29.9976 12.4847 29.385C12.5486 28.784 12.8265 28.2225 13.2714 27.7953C13.7163 27.3682 14.301 27.1014 14.927 27.04C16.0435 26.8868 17.0784 26.3906 17.8768 25.6256C18.675 24.8607 19.194 23.868 19.3559 22.7963C19.4198 22.1952 19.6976 21.6338 20.1425 21.2066C20.5874 20.7794 21.1722 20.5126 21.7981 20.4513C22.6383 20.3464 23.4392 20.046 24.131 19.5763C24.5152 20.9744 24.5607 22.4385 24.2641 23.8562C23.9675 25.2738 23.3365 26.6075 22.4197 27.7547C21.503 28.9019 20.3248 29.8322 18.9753 30.4743C17.626 31.1164 16.1414 31.4532 14.6354 31.4588V31.5025Z" fill="#B4B7C9"/>
</svg>
