<svg width="113" height="44" viewBox="0 0 113 44" fill="none" xmlns="http://www.w3.org/2000/svg">
<path d="M13.0288 13.4766V9.97656H1.72876V34.0236H13.0288V30.5236C10.7139 30.5236 8.49392 29.6256 6.85714 28.0271C5.22032 26.4286 4.30077 24.2607 4.30077 22.0001C4.30077 19.7395 5.22032 17.5715 6.85714 15.9731C8.49392 14.3746 10.7139 13.4766 13.0288 13.4766Z" fill="#B4B7C9"/>
<path d="M13.0286 13.4766V30.5236C15.3434 30.5236 17.5634 29.6256 19.2002 28.0271C20.837 26.4286 21.7565 24.2607 21.7565 22.0001C21.7565 19.7395 20.837 17.5715 19.2002 15.9731C17.5634 14.3746 15.3434 13.4766 13.0286 13.4766Z" fill="#B4B7C9"/>
<path d="M28.0981 15.6177H30.628V27.5177H28.0981V15.6177Z" fill="#B4B7C9"/>
<path d="M32.0446 23.4411C32.0446 22.585 32.3049 21.7481 32.7925 21.0366C33.2801 20.325 33.973 19.7709 34.7835 19.4444C35.594 19.1179 36.4854 19.0337 37.3449 19.2026C38.2044 19.3714 38.9932 19.7856 39.6113 20.3927C40.2294 20.9999 40.6491 21.7726 40.8171 22.6129C40.985 23.4532 40.8938 24.3233 40.5548 25.1129C40.2158 25.9024 39.6444 26.576 38.9131 27.048C38.1817 27.5201 37.3232 27.7695 36.4465 27.7646C35.8651 27.7691 35.2885 27.6601 34.7508 27.444C34.213 27.228 33.7247 26.9093 33.3147 26.5067C32.9047 26.104 32.5813 25.6254 32.3631 25.099C32.145 24.5726 32.0367 24.0089 32.0446 23.4411ZM38.3861 23.4411C38.3761 23.072 38.255 22.7139 38.0377 22.4118C37.8205 22.1095 37.5169 21.8766 37.1648 21.742C36.8127 21.6074 36.4278 21.5772 36.0583 21.6552C35.6887 21.7331 35.3508 21.9157 35.087 22.1802C34.8231 22.4446 34.6449 22.7792 34.5748 23.142C34.5046 23.5049 34.5455 23.8798 34.6924 24.22C34.8393 24.5602 35.0856 24.8507 35.4007 25.0548C35.7157 25.2591 36.0853 25.368 36.4634 25.3682C36.7209 25.3731 36.9765 25.3261 37.2145 25.2301C37.4525 25.1341 37.6676 24.9912 37.8465 24.8104C38.0253 24.6295 38.164 24.4145 38.254 24.179C38.344 23.9434 38.3832 23.6922 38.3692 23.4411H38.3861Z" fill="#B4B7C9"/>
<path d="M50.8584 19.3646V27.114C50.8584 29.8481 48.6659 31.0093 46.4481 31.0093C45.6657 31.072 44.8811 30.9202 44.1824 30.571C43.4837 30.2218 42.8986 29.6891 42.493 29.0328L44.6266 27.8305C44.7994 28.1709 45.0744 28.4517 45.4149 28.6356C45.7555 28.8195 46.1452 28.8978 46.5324 28.8599C46.779 28.8895 47.0293 28.8657 47.2654 28.7899C47.5015 28.714 47.7174 28.5883 47.8979 28.4214C48.0785 28.2546 48.2189 28.0509 48.3094 27.8249C48.3999 27.5989 48.4381 27.3561 48.4213 27.114V26.3646C48.1269 26.7132 47.7534 26.9899 47.3304 27.1729C46.9073 27.3559 46.4464 27.44 45.9842 27.4187C44.866 27.4187 43.7936 26.9849 43.0028 26.2127C42.2121 25.4405 41.7678 24.3931 41.7678 23.3011C41.7678 22.209 42.2121 21.1617 43.0028 20.3895C43.7936 19.6173 44.866 19.1834 45.9842 19.1834C46.4464 19.1621 46.9073 19.2463 47.3304 19.4292C47.7534 19.6122 48.1269 19.8889 48.4213 20.2375V19.414L50.8584 19.3646ZM48.4213 23.2764C48.4381 22.8824 48.3339 22.4924 48.122 22.1568C47.9101 21.8211 47.6002 21.555 47.2321 21.3927C46.8641 21.2304 46.4549 21.1793 46.0569 21.246C45.6589 21.3127 45.2904 21.4942 44.9989 21.767C44.7073 22.0398 44.5061 22.3916 44.4209 22.7771C44.3357 23.1626 44.3705 23.5641 44.5209 23.9301C44.6713 24.2961 44.9304 24.6097 45.2648 24.8308C45.5992 25.0518 45.9937 25.1701 46.3975 25.1705C46.661 25.189 46.9255 25.1533 47.1739 25.0659C47.4225 24.9783 47.6495 24.8409 47.8401 24.6624C48.0309 24.4839 48.1812 24.2683 48.2813 24.0296C48.3814 23.7908 48.4291 23.5342 48.4213 23.2764Z" fill="#B4B7C9"/>
<path d="M52.2835 23.4412C52.2835 22.5857 52.5434 21.7495 53.0302 21.0383C53.5171 20.3271 54.209 19.773 55.0184 19.446C55.8279 19.119 56.7185 19.0339 57.5775 19.2014C58.4366 19.3689 59.2254 19.7815 59.8443 20.3869C60.4631 20.9925 60.8841 21.7636 61.0539 22.6028C61.2238 23.442 61.1349 24.3116 60.7986 25.1015C60.4622 25.8914 59.8934 26.566 59.1643 27.0401C58.4351 27.5142 57.5783 27.7664 56.7023 27.7648C56.1198 27.7703 55.5419 27.6621 55.0027 27.4467C54.4635 27.2313 53.9737 26.9129 53.5622 26.5102C53.1506 26.1075 52.8255 25.6286 52.6059 25.1016C52.3864 24.5746 52.2768 24.0101 52.2835 23.4412ZM58.625 23.4412C58.615 23.0718 58.4936 22.7134 58.276 22.411C58.0585 22.1087 57.7543 21.8757 57.4017 21.7414C57.0491 21.6071 56.6638 21.5773 56.2941 21.656C55.9243 21.7345 55.5865 21.918 55.3229 22.1833C55.0594 22.4485 54.8819 22.7839 54.8128 23.1472C54.7435 23.5106 54.7856 23.8858 54.9338 24.2258C55.0819 24.5659 55.3296 24.8557 55.6458 25.059C55.9618 25.2621 56.3323 25.3698 56.7107 25.3683C56.9682 25.3732 57.2239 25.3262 57.4618 25.2302C57.6998 25.1342 57.9149 24.9914 58.0938 24.8105C58.2727 24.6297 58.4114 24.4146 58.5014 24.1791C58.5913 23.9435 58.6306 23.6923 58.6166 23.4412H58.625Z" fill="#B4B7C9"/>
<path d="M62.2935 17.1824C62.2935 16.8926 62.3815 16.6091 62.5464 16.368C62.7114 16.127 62.9458 15.9391 63.2201 15.8281C63.4944 15.7172 63.7962 15.6882 64.0874 15.7447C64.3785 15.8013 64.646 15.9409 64.8559 16.1459C65.0658 16.3509 65.2088 16.6121 65.2667 16.8964C65.3246 17.1808 65.2949 17.4755 65.1813 17.7434C65.0677 18.0112 64.8752 18.2402 64.6284 18.4013C64.3816 18.5623 64.0914 18.6483 63.7945 18.6483C63.3977 18.644 63.0185 18.4882 62.738 18.2142C62.4574 17.9402 62.2978 17.5699 62.2935 17.1824ZM62.538 19.3648H65.0679V27.5177H62.538V19.3648Z" fill="#B4B7C9"/>
<path d="M75.8954 23.4411C75.9237 23.9833 75.842 24.5257 75.6549 25.0369C75.4678 25.5482 75.179 26.0182 74.8052 26.42C74.4313 26.8219 73.9798 27.1476 73.4765 27.3783C72.9733 27.6091 72.4283 27.7403 71.8729 27.7646C71.4016 27.7953 70.9293 27.7216 70.4913 27.549C70.0532 27.3764 69.6607 27.1095 69.3431 26.7682V30.7952H66.8132V19.3646H69.3431V20.1305C69.6612 19.7901 70.054 19.5245 70.4921 19.3533C70.9301 19.1821 71.4022 19.11 71.8729 19.1423C72.4261 19.1666 72.9689 19.2971 73.4704 19.5263C73.9719 19.7555 74.4223 20.079 74.7958 20.4781C75.1694 20.8773 75.4587 21.3444 75.6474 21.8528C75.836 22.3612 75.9204 22.9009 75.8954 23.4411ZM73.3655 23.4411C73.3556 23.0586 73.2302 22.6875 73.0052 22.3743C72.7802 22.0611 72.4655 21.8196 72.1006 21.6804C71.7357 21.541 71.3369 21.5101 70.9539 21.5912C70.5711 21.6723 70.2213 21.8621 69.9483 22.1365C69.6753 22.411 69.4914 22.7581 69.4197 23.1342C69.3478 23.5104 69.3912 23.8988 69.5445 24.251C69.6979 24.603 69.9541 24.9031 70.2813 25.1136C70.6085 25.3241 70.992 25.4355 71.3838 25.434C71.6522 25.4452 71.9199 25.4008 72.1694 25.3038C72.419 25.2067 72.6448 25.0593 72.8319 24.8712C73.019 24.683 73.1632 24.4582 73.2552 24.2118C73.3472 23.9654 73.3848 23.7027 73.3655 23.4411Z" fill="#B4B7C9"/>
<path d="M83.5948 25.0717C83.5948 26.9493 81.9082 27.7481 80.1205 27.7481C79.3913 27.8122 78.6592 27.6613 78.0188 27.3148C77.3784 26.9683 76.8591 26.4423 76.5281 25.8046L78.7037 24.6023C78.7899 24.8961 78.9768 25.1521 79.2332 25.3275C79.4895 25.503 79.7998 25.587 80.112 25.5658C80.7108 25.5658 81.0143 25.3846 81.0143 25.0552C81.0143 24.1576 76.9076 24.6352 76.9076 21.8105C76.9076 20.0317 78.4423 19.1423 80.1795 19.1423C80.8398 19.1134 81.4958 19.2597 82.0778 19.5656C82.6598 19.8716 83.1461 20.3258 83.4851 20.8799L81.3095 21.9999C81.2133 21.7874 81.0563 21.6068 80.8573 21.4796C80.6582 21.3524 80.4257 21.2843 80.1879 21.2834C79.7494 21.2834 79.488 21.4481 79.488 21.7364C79.488 22.6752 83.5948 22.0576 83.5948 25.0717Z" fill="#B4B7C9"/>
<path d="M92.7613 19.3647V27.5177H90.2315V26.7518C89.9439 27.0909 89.5788 27.3591 89.1664 27.5351C88.7532 27.7111 88.3037 27.7897 87.8534 27.7647C86.1669 27.7647 84.7249 26.5871 84.7249 24.3883V19.3647H87.2547V24.0177C87.2345 24.2122 87.2581 24.4086 87.3239 24.5934C87.3896 24.7781 87.495 24.9468 87.6333 25.0878C87.7725 25.2287 87.9411 25.3385 88.1275 25.4098C88.3139 25.4809 88.5137 25.5117 88.7136 25.5C89.6243 25.5 90.2652 24.973 90.2652 23.853V19.3647H92.7613Z" fill="#B4B7C9"/>
<path d="M107.097 22.5107V27.5177H104.567V22.7248C104.567 21.9012 104.171 21.3907 103.37 21.3907C102.569 21.3907 102.063 21.9589 102.063 22.9224V27.5177H99.5329V22.7248C99.5329 21.9012 99.1366 21.3907 98.3355 21.3907C97.5344 21.3907 97.0284 21.9589 97.0284 22.9224V27.5177H94.4985V19.3648H97.0284V20.1142C97.2906 19.7831 97.6322 19.5209 98.0243 19.3513C98.4156 19.1816 98.8448 19.1098 99.2715 19.1424C99.6991 19.1206 100.126 19.2079 100.509 19.3956C100.891 19.5833 101.218 19.865 101.456 20.213C101.734 19.8493 102.102 19.5604 102.525 19.3733C102.947 19.186 103.413 19.1066 103.876 19.1424C105.849 19.1424 107.097 20.4765 107.097 22.5107Z" fill="#B4B7C9"/>
<path d="M109.222 19.3154C110.247 19.3154 111.077 18.5042 111.077 17.5037C111.077 16.5031 110.247 15.6919 109.222 15.6919C108.198 15.6919 107.367 16.5031 107.367 17.5037C107.367 18.5042 108.198 19.3154 109.222 19.3154Z" fill="#B4B7C9"/>
</svg>
