<svg width="113" height="44" viewBox="0 0 113 44" fill="none" xmlns="http://www.w3.org/2000/svg">
<path d="M32.967 16.6515H35.715V27.7944H32.967V16.6515ZM36.8108 23.6029C36.8108 20.8429 38.5229 19.1887 41.0911 19.1887C43.6592 19.1887 45.3714 20.8429 45.3714 23.6029C45.3714 26.3629 43.7192 28.0344 41.0911 28.0344C38.463 28.0344 36.8108 26.4229 36.8108 23.6029ZM42.6491 23.6029C42.6491 22.0858 42.0584 21.1944 41.1167 21.1944C40.1751 21.1944 39.593 22.0515 39.593 23.6029C39.593 25.1544 40.1751 26.0029 41.1167 26.0029C42.0584 26.0029 42.6662 25.1544 42.6662 23.6115L42.6491 23.6029ZM46.4671 28.3687H49.1209C49.2417 28.6547 49.4527 28.8934 49.7217 29.0481C49.9907 29.2029 50.3028 29.2653 50.6105 29.2258C51.6634 29.2258 52.2113 28.6601 52.2113 27.8201V26.2772H52.2198C51.9931 26.7577 51.6263 27.158 51.168 27.4258C50.7096 27.6936 50.181 27.8161 49.6517 27.7772C47.6399 27.7772 46.3045 26.2429 46.3045 23.6029C46.3045 20.9629 47.58 19.3172 49.7287 19.3172C50.2715 19.2882 50.8101 19.4283 51.27 19.7185C51.7299 20.0086 52.0887 20.4344 52.2969 20.9372H52.2198V19.3858H54.9421V27.7344C54.9421 29.7487 53.1615 31.0087 50.542 31.0087C48.1621 31.0001 46.6383 29.9115 46.4842 28.3772L46.4671 28.3687ZM52.2198 23.6029C52.2198 22.2572 51.6035 21.4087 50.6276 21.4087C49.6517 21.4087 49.0524 22.2658 49.0524 23.6029C49.0524 24.9401 49.6431 25.7287 50.6276 25.7287C51.612 25.7287 52.2198 25.0001 52.2198 23.6029ZM56.0293 23.6029C56.0293 20.8429 57.7414 19.1887 60.3096 19.1887C62.8778 19.1887 64.5899 20.8429 64.5899 23.6029C64.5899 26.3629 62.9292 28.0344 60.3096 28.0344C57.6901 28.0344 56.0464 26.4229 56.0464 23.6029H56.0293ZM61.8676 23.6029C61.8676 22.0858 61.2684 21.1944 60.3353 21.1944C59.4022 21.1944 58.8115 22.0515 58.8115 23.6029C58.8115 25.1544 59.3936 26.0029 60.3353 26.0029C61.277 26.0029 61.8848 25.1544 61.8848 23.6115L61.8676 23.6029ZM65.7028 17.3544C65.6908 17.0741 65.7629 16.7966 65.9097 16.5577C66.0565 16.3188 66.2714 16.1293 66.5267 16.0137C66.782 15.898 67.0659 15.8615 67.3421 15.9088C67.6182 15.956 67.8739 16.0849 68.0763 16.2789C68.2787 16.473 68.4185 16.7231 68.4777 16.9973C68.5369 17.2715 68.5128 17.5572 68.4086 17.8175C68.3043 18.0779 68.1246 18.3011 67.8926 18.4584C67.6606 18.6157 67.3869 18.6998 67.1067 18.7001C66.9277 18.7046 66.7495 18.6735 66.5826 18.6086C66.4156 18.5437 66.2632 18.4461 66.1342 18.3217C66.0052 18.1974 65.9021 18.0486 65.831 17.8839C65.7599 17.7193 65.7221 17.5423 65.7199 17.3629L65.7028 17.3544ZM65.7028 19.3772H68.485V27.8287H65.7456L65.7028 19.3772ZM78.4923 23.6029C78.4923 26.3544 77.2596 27.9487 75.1623 27.9487C74.6254 27.9818 74.0912 27.8491 73.6319 27.5687C73.1726 27.2881 72.8104 26.8733 72.5941 26.3801H72.5427V30.5458H69.7948V19.4029H72.5256V20.9115H72.577C72.7858 20.4086 73.1445 19.9824 73.6041 19.6909C74.0637 19.3995 74.6018 19.2571 75.1451 19.2829C77.3024 19.2658 78.5437 20.8515 78.5437 23.6115L78.4923 23.6029ZM75.693 23.6029C75.693 22.2658 75.0681 21.4001 74.1008 21.4001C73.1334 21.4001 72.5256 22.2572 72.517 23.6029C72.5085 24.9487 73.1334 25.7972 74.1008 25.7972C75.0681 25.7972 75.7444 25.0001 75.7444 23.6115L75.693 23.6029ZM83.1836 19.1801C85.4864 19.1801 86.916 20.2687 86.9331 22.0172H84.4249C84.4249 21.4087 83.9198 21.0315 83.1664 21.0315C82.4131 21.0315 82.0536 21.3229 82.0536 21.7601C82.0536 22.1972 82.3703 22.3344 83.0038 22.4629L84.7673 22.8229C86.4794 23.1829 87.1642 23.8687 87.1642 25.1458C87.1642 26.8601 85.5805 28.0258 83.2264 28.0258C80.8722 28.0258 79.3398 26.8944 79.2286 25.1715H81.8909C81.968 25.7972 82.4645 26.1658 83.2692 26.1658C84.0739 26.1658 84.4505 25.9087 84.4505 25.4544C84.4505 25.0001 84.1937 24.9229 83.5345 24.7858L81.9423 24.4515C80.2901 24.1001 79.4255 23.2344 79.4255 21.9401C79.4768 20.2601 80.915 19.1887 83.2349 19.1887L83.1836 19.1801ZM96.3669 27.8201H93.7045V26.2344H93.6532C93.5042 26.7633 93.1798 27.2256 92.7329 27.5449C92.2861 27.8644 91.7442 28.0219 91.1963 27.9915C90.7828 28.005 90.3702 27.9307 89.9875 27.7735C89.6049 27.6164 89.259 27.3799 88.9739 27.0797C88.688 26.7793 88.4697 26.422 88.3319 26.0311C88.1941 25.6403 88.1402 25.2246 88.1744 24.8115V19.3858H90.9223V24.2201C90.9223 25.2144 91.4445 25.7544 92.3006 25.7544C92.5018 25.7528 92.6995 25.7082 92.8819 25.6235C93.0642 25.5387 93.226 25.4158 93.3561 25.2631C93.4871 25.1103 93.5838 24.9313 93.6395 24.7381C93.6943 24.5448 93.708 24.3419 93.6789 24.1429V19.3858H96.4183L96.3669 27.8201ZM97.6938 19.3772H100.365V21.0058H100.425C100.572 20.4841 100.889 20.0261 101.323 19.7035C101.759 19.3809 102.289 19.2119 102.83 19.2229C103.374 19.1756 103.916 19.333 104.349 19.6643C104.783 19.9956 105.077 20.477 105.176 21.0144H105.296C105.467 20.4741 105.811 20.0056 106.276 19.6817C106.74 19.3577 107.299 19.1965 107.864 19.2229C108.24 19.2086 108.615 19.2739 108.963 19.4146C109.312 19.5552 109.627 19.768 109.888 20.0391C110.149 20.3101 110.35 20.6334 110.477 20.9875C110.606 21.3417 110.657 21.7189 110.629 22.0944V27.8287H107.864V22.7972C107.864 21.9401 107.461 21.4601 106.682 21.4601C106.509 21.4573 106.338 21.4919 106.18 21.5615C106.022 21.6312 105.881 21.7343 105.766 21.8637C105.652 21.9932 105.566 22.1459 105.516 22.3115C105.466 22.4771 105.452 22.6515 105.475 22.8229V27.8287H102.856V22.7715C102.856 21.9144 102.436 21.4601 101.683 21.4601C101.508 21.4587 101.335 21.4947 101.176 21.5657C101.016 21.6367 100.874 21.7411 100.758 21.8718C100.642 22.0025 100.556 22.1565 100.504 22.3235C100.452 22.4905 100.437 22.6667 100.459 22.8401V27.8287H97.7109L97.6938 19.3772Z" fill="#B4B7C9"/>
<path d="M27.5308 17.3801C27.5309 15.6741 27.0164 14.0079 26.0547 12.5997C25.093 11.1914 23.7289 10.1069 22.1412 9.488C20.5534 8.86913 18.816 8.74485 17.1565 9.13141C15.4969 9.51797 13.9928 10.3974 12.8408 11.6544H2.15723V34.2315H24.7144V23.6801C25.5997 22.8873 26.3082 21.9164 26.7935 20.8308C27.2788 19.7452 27.5301 18.5695 27.5308 17.3801ZM23.1906 17.3801C23.1923 18.1976 22.9518 18.9972 22.4994 19.6778C22.047 20.3583 21.4033 20.8892 20.6494 21.2031C19.8956 21.5172 19.0657 21.6003 18.2647 21.4418C17.4637 21.2834 16.7277 20.8905 16.1498 20.3131C15.5719 19.7356 15.1781 18.9995 15.0182 18.1978C14.8582 17.3962 14.9395 16.5651 15.2515 15.8097C15.5635 15.0542 16.0924 14.4085 16.7711 13.9541C17.4499 13.4998 18.248 13.2573 19.0644 13.2573C20.1573 13.2573 21.2055 13.6914 21.979 14.4643C22.7527 15.2372 23.1884 16.2859 23.1906 17.3801ZM20.3742 29.8858H6.49745V16.0001H10.7264C10.6447 16.4557 10.6017 16.9173 10.598 17.3801C10.6003 19.6277 11.493 21.7826 13.0803 23.3719C14.6675 24.9611 16.8196 25.855 19.0644 25.8573C19.5033 25.8549 19.9413 25.8177 20.3742 25.7458V29.8858Z" fill="#B4B7C9"/>
</svg>
