<svg width="56" height="56" viewBox="0 0 56 56" fill="none" xmlns="http://www.w3.org/2000/svg">
<path fill-rule="evenodd" clip-rule="evenodd" d="M53.2308 40.0173L53.2257 40.0357C53.0561 40.6562 48.8604 56.005 33.1036 56.0004C19.2645 55.9961 12.705 43.8261 12.705 43.8261C11.6964 43.883 10.7232 43.721 9.82555 43.3874C5.7653 41.8783 3.8172 37.1787 5.21811 33.236L2.98659 31.5107C-5.65765 24.8485 18.8299 -5.63756 27.4891 1.26082C27.5329 1.29568 29.5562 2.94331 29.5562 2.94331C32.6653 1.03311 35.7445 0.000478807 38.2474 0.000366284C40.0249 0.000141456 41.5115 0.520787 42.5126 1.61752C44.7602 4.07951 43.9524 8.78095 40.8834 13.5409C41.5435 14.1749 42.0906 15.0366 42.4811 15.892C43.4567 16.6536 44.0892 17.8115 44.4034 19.4107C44.5977 20.3983 44.7065 21.6188 44.8024 22.6953C44.8792 23.5569 44.9477 24.3262 45.0454 24.8101C45.2524 24.9046 45.3856 24.9646 45.4828 25.0083C45.5741 25.0494 45.6335 25.0762 45.6925 25.1039C45.8027 25.1556 45.9113 25.2105 46.2225 25.3679C46.2763 25.3951 46.336 25.4253 46.4028 25.459C47.3229 25.9242 48.4433 26.4908 49.6815 27.6961C51.8823 28.254 52.7227 30.6213 51.435 32.237C51.4004 32.2803 51.2449 32.4667 51.0838 32.6522C51.0897 32.6678 51.1046 32.6973 51.1266 32.741L51.1267 32.7411C51.2488 32.9833 51.5911 33.6622 51.8491 34.8553C52.7611 35.0732 53.4875 35.6413 53.8688 36.4651C54.5281 38.0774 53.2308 40.0173 53.2308 40.0173ZM46.885 51.9831V52.6463H47.1361V51.9831H47.3928V51.7738H46.6316V51.9831H46.885ZM47.4695 52.6463V51.7738H47.8273L47.9842 52.2759L48.1388 51.7738H48.4968V52.6463H48.2679V52.0147L48.0808 52.6463H47.8855L47.6984 52.0164V52.6463H47.4695Z" fill="#5B453E"/>
<path fill-rule="evenodd" clip-rule="evenodd" d="M51.824 39.0807C51.6253 39.8244 50.6515 43.4696 46.7537 46.5437C41.3397 50.8142 34.2264 50.382 31.5399 47.9888C30.1047 46.6414 29.4835 44.7143 29.4835 44.7143C29.4835 44.7143 29.321 45.8002 29.2932 46.2268C28.2106 44.3786 28.3021 42.1212 28.3021 42.1212C28.3021 42.1212 27.7246 43.2022 27.4602 43.8077C26.6634 41.7721 27.0751 39.6702 27.0751 39.6702L26.4447 40.6133C26.4447 40.6133 26.1491 38.3095 26.8749 36.3904C27.6505 34.3398 29.1543 32.8501 29.4515 32.6644C28.3106 32.3004 26.9961 31.2568 26.9939 31.2549C26.9939 31.2549 27.5165 31.2896 27.8799 31.2059C27.8799 31.2059 25.573 29.547 25.1685 27.0089C25.5027 27.4234 26.204 27.8917 26.204 27.8917C25.977 27.2275 25.8396 25.7498 26.0517 24.2954L26.0525 24.2938C26.4889 21.5155 28.7701 19.7063 31.3539 19.729C31.8476 19.7334 32.3122 19.7556 32.7553 19.7769C34.7815 19.874 36.3621 19.9498 38.2543 18.1984C38.2809 18.1737 38.3072 18.1492 38.3333 18.125C38.7856 17.7048 39.1692 17.3485 39.8169 17.2044C39.8297 17.2015 39.8458 17.1968 39.8658 17.191C39.9585 17.164 40.1334 17.113 40.4359 17.113C40.808 17.113 41.1663 17.197 41.4941 17.3929C42.7449 18.1402 43.0146 20.0892 43.149 21.5183C43.4528 24.7581 43.4958 25.6652 43.9713 26.1303C44.2737 26.4262 44.7512 26.5432 45.5822 26.9682C45.6806 27.0184 45.7801 27.0683 45.8809 27.1188C46.8244 27.5921 47.8734 28.1184 49.0512 29.3842C49.0577 29.3913 49.0671 29.3955 49.0767 29.3957C50.1762 29.4221 50.7429 30.291 50.2356 30.9237C46.5463 35.3461 41.3936 37.4638 35.6511 37.641C35.467 37.6457 35.1046 37.6542 34.9501 37.6578C34.9055 37.6589 34.8783 37.6595 34.8776 37.6595C32.5583 37.73 31.8031 40.7418 33.2584 42.5531C34.1781 43.6979 35.9472 44.0741 37.4033 44.0798L37.424 44.0724C43.7025 44.2001 50.0103 39.7405 51.0998 37.2812C51.1077 37.2635 51.1742 37.1069 51.1742 37.1069C51.1742 37.1069 51.1162 37.1751 51.0462 37.2327C51.0428 37.235 51.0262 37.2502 50.9969 37.2771C50.4018 37.8228 44.5629 43.1768 37.3744 42.9745C37.3744 42.9745 36.5619 42.9576 35.7968 42.7788C34.7879 42.5432 34.0215 42.0983 33.7281 41.0889C33.641 40.904 33.5909 40.2644 33.7067 39.8339C34.0222 38.7739 34.5507 38.7646 35.3682 38.7503C35.4906 38.7482 35.6194 38.7459 35.755 38.74H35.7551C39.4742 38.6157 42.4753 37.677 44.7245 36.6052C47.1229 35.4622 48.9507 33.9896 49.6093 33.2462C50.4635 34.6898 50.4583 36.5436 50.4583 36.5436C50.4583 36.5436 50.7934 36.4261 51.2369 36.4261C52.6309 36.4262 52.9177 37.6777 51.8625 38.948C51.856 38.9608 51.8439 39.0062 51.824 39.0807ZM17.171 32.276C17.171 32.276 16.9974 32.9971 16.6531 33.8757C16.3224 31.0636 15.1467 30.4686 15.1467 30.4687C14.4655 30.1519 13.7124 29.976 12.9205 29.976C9.86545 29.976 7.38892 32.593 7.38892 35.8215C7.38892 39.0498 9.86545 41.6668 12.9205 41.6668C16.3615 41.6668 18.9734 38.3782 18.3654 34.7856C18.3654 34.7856 18.0146 35.6077 17.6877 36.0442C17.7669 34.7581 17.5652 33.4857 17.171 32.276Z" fill="#F2D8B4"/>
<path d="M5.6401 31.1107C5.61805 31.105 3.53878 29.6251 3.243 29.1377C1.49354 26.2745 4.53719 20.3933 6.70312 17.0503C12.0557 8.78848 20.9649 2.2683 25.0114 3.19943L29.1669 5.27978C27.5534 6.20027 25.9929 7.33089 25.0581 8.08285L24.1738 8.80202C24.1738 8.80202 21.5917 10.4881 20.3074 11.551C15.1593 15.8116 10.0903 22.4072 8.21053 28.7738C8.21053 28.7736 6.66599 29.5173 5.6401 31.1107Z" fill="#207EAC"/>
<path d="M26.0556 3.20696C21.9308 2.19676 12.8497 9.2705 7.39366 18.234C7.39208 18.2366 7.3905 18.2393 7.38892 18.2419L7.41094 18.2443L11.7583 21.7774C16.5317 13.9557 22.5311 9.92259 22.7003 9.80412L22.011 5.01677L23.3023 4.37856L25.8938 5.24486L25.6956 4.35115L26.0556 3.20696Z" fill="#4FB1D3"/>
<path d="M32.2774 4.3726L27.5567 7.53501L27.2264 7.78118L23.0402 4.5237L22.9441 3.90766L24.3996 3.24397C24.4743 3.26701 27.2054 4.10933 27.3206 4.14486L27.3694 2.41765L27.5031 2.0256L28.7817 1.55896C28.7835 1.56017 32.2726 4.3686 32.2774 4.3726Z" fill="#FACD55"/>
<path d="M37.4689 1.55896C34.802 1.55896 31.808 3.03787 29.5112 4.4919C29.1891 4.69178 28.8694 4.90096 28.5563 5.11415L27.3545 4.05199L27.791 5.65142C27.626 5.77092 27.4649 5.89007 27.3072 6.00854L24.8241 5.2091L26.4671 6.65923C26.092 6.959 25.7569 7.23963 25.4789 7.48263L21.5387 4.05233L21.7473 5.58973L24.611 8.25007C24.611 8.25007 22.0768 10.0489 20.8164 11.1831C15.7638 15.7288 10.789 22.7661 8.94409 29.559L9.04894 29.4968C9.06319 29.4884 9.07755 29.4816 9.0918 29.4733C9.14313 29.4442 9.19425 29.4164 9.24559 29.3891C9.27855 29.3717 9.31128 29.354 9.34424 29.3374C9.39699 29.3107 9.44985 29.2858 9.50271 29.2613C9.53382 29.2467 9.56514 29.2314 9.59636 29.2178C9.65357 29.1924 9.71067 29.1695 9.76788 29.1467C9.79431 29.1361 9.82074 29.1246 9.84717 29.1147C9.93049 29.0832 10.0135 29.0541 10.0962 29.0281C11.3505 28.6336 13.057 28.3799 15.0545 29.2743C16.0577 26.6065 17.2562 23.8923 19.1449 21.2842C20.6763 19.1695 22.1483 17.2817 23.9152 16.2434C27.2607 12.9298 36.2774 9.41613 39.1661 12.4618C39.8492 11.2837 40.442 10.1684 40.9303 8.77037C42.1357 5.4083 42.1576 1.55896 37.4689 1.55896Z" fill="#070A11"/>
<path d="M27.6112 4.66627L26.6317 3.11072L26.0557 3.88569L26.4004 4.49488L27.6112 4.66627Z" fill="#070A11"/>
<path fill-rule="evenodd" clip-rule="evenodd" d="M36.6702 1.55896C35.206 1.71252 33.6793 2.24527 32.2549 2.91956C27.4465 5.23517 24.0904 8.65102 23.6879 9.06071C23.6706 9.07831 23.6587 9.09036 23.6525 9.09654C23.2531 9.48993 22.855 9.89741 22.4601 10.3168C21.2851 11.5641 20.1372 12.915 19.0616 14.3041C17.1596 16.7601 16.3682 17.9062 15.1668 20.2408C15.1666 20.2411 15.1748 20.231 15.1909 20.2112C15.6253 19.6771 21.7938 12.0936 23.3723 10.4859C26.3763 7.4262 31.2931 4.0187 31.3443 3.98834C33.4439 2.66913 35.216 1.89491 36.6702 1.55896ZM48.5611 32.3555C49.3887 33.7863 49.3837 35.6235 49.3837 35.6235C49.398 36.1508 49.3811 36.4417 49.3523 36.8495C47.674 38.3046 42.6698 42.169 36.7073 41.9972C36.7073 41.9972 35.92 41.9806 35.1787 41.8034C34.2066 41.5712 33.4668 41.1335 33.179 40.1446L33.1745 40.1286L33.1739 40.1274C33.1695 40.1172 33.1325 40.0281 33.1086 39.8362L33.1077 39.8287L33.1069 39.8214C33.1015 39.7736 33.097 39.7227 33.0939 39.6696L33.0929 39.6511L33.0926 39.645C33.0883 39.5601 33.0873 39.4629 33.0908 39.3525C33.0923 39.3138 33.0946 39.2752 33.0977 39.2366L33.0981 39.2367L33.0985 39.2245C33.1086 39.1052 33.1264 38.9887 33.1538 38.8846C33.4595 37.834 33.9715 37.8248 34.7636 37.8106C34.8822 37.8085 35.007 37.8063 35.1383 37.8004H35.1384C38.7417 37.6772 41.6494 36.7468 43.8285 35.6846C46.1521 34.5518 47.9231 33.0923 48.5611 32.3555Z" fill="#FFFFFE"/>
<path fill-rule="evenodd" clip-rule="evenodd" d="M42.4009 23.1162C42.6624 25.9028 42.7245 26.5645 43.2768 26.9572C43.292 26.9721 43.3076 26.9848 43.3232 26.9951C42.9524 27.1033 42.6205 27.205 42.3262 27.298C41.7839 26.5629 41.031 25.8756 39.4832 25.9873C37.4318 26.1634 35.8017 27.9972 36.0969 29.8183C35.1222 30.31 34.2143 30.8199 33.3699 31.3391C31.9768 31.4884 30.2797 31.9694 28.7829 33.2226C27.6547 32.8673 26.3548 31.8488 26.3525 31.8469C26.3525 31.8469 26.8695 31.8808 27.2287 31.7991C27.2287 31.7991 27.2038 31.7813 27.1589 31.7469C27.1569 31.7444 27.1546 31.742 27.1519 31.7399C27.1213 31.7159 27.09 31.6921 27.0583 31.668C26.5217 31.2366 24.8811 29.7678 24.5476 27.7027C24.8781 28.1073 25.5715 28.5643 25.5715 28.5643C25.5632 28.5405 25.5551 28.5155 25.5471 28.4896C25.548 28.4869 25.5485 28.484 25.5488 28.4811L25.5489 28.4777C25.5489 28.4777 25.4527 28.2032 25.3851 27.6742C25.3666 27.5255 25.3514 27.3672 25.3399 27.2014C25.3326 27.0896 25.3269 26.971 25.3237 26.8452C25.4086 25.8013 25.6748 24.9242 26.3379 24.0944C27.305 22.8847 28.6319 22.3931 30.1628 22.4167C30.5843 22.422 31.0101 22.4655 31.4539 22.5109C31.8801 22.5544 32.3229 22.5997 32.7943 22.6144C34.1092 22.6555 35.3757 22.4388 36.7084 21.8412C38.0252 21.2194 38.7697 20.5018 39.5489 19.3875C39.8235 19.087 40.3078 18.6473 40.7361 18.666C41.0202 18.666 41.2174 18.8055 41.3576 18.9269C42.0358 19.8341 42.2235 21.2462 42.3281 22.3441C42.3542 22.6182 42.3783 22.8751 42.4009 23.1162ZM38.3967 28.4921C38.7132 27.4816 40.1486 26.9956 41.0153 27.6062C40.628 27.8294 40.5087 28.4764 40.745 28.8518C40.2551 28.8428 39.7516 29.0345 39.3975 29.3741C39.4304 28.8931 38.8983 28.5172 38.3967 28.4921ZM43.6318 48.2224C44.4066 47.8186 45.1655 47.337 45.8934 46.7703C49.7473 43.7704 50.7105 40.2131 50.9073 39.4866C50.927 39.4137 50.939 39.3693 50.9455 39.3568C49.1613 41.6423 46.8274 43.4586 44.3301 44.7159C42.2767 45.7504 40.7405 46.1103 40.7405 46.1103C40.7405 46.1103 41.8401 47.5477 43.6318 48.2224ZM31.923 39.9371C32.196 38.9305 32.967 38.133 34.1488 38.0975L34.2214 38.0958C34.3746 38.0922 34.7319 38.084 34.9137 38.0794C40.5923 37.9065 45.6875 35.8395 49.3358 31.5233C49.8374 30.9058 49.277 30.0578 48.1898 30.032L48.1815 30.0319L48.1743 30.032C48.0803 30.1305 48.0257 30.2706 47.9542 30.4543C47.8858 30.6298 47.802 30.8452 47.6533 31.1021C46.5436 33.0121 45.0088 33.8856 42.9622 34.8989C39.6352 36.5399 37.1575 36.906 35.3691 37.1702C33.7844 37.4043 32.741 37.5585 32.1275 38.4487C31.748 39.0064 31.7409 39.6293 31.923 39.9371ZM44.0178 39.224C44.0021 39.2243 43.9859 39.2278 43.9601 39.2335C43.8792 39.252 43.6996 39.3101 43.4396 39.3942C41.7129 39.9526 36.4377 41.6585 32.9343 40.5683C32.9162 40.7868 32.922 41.246 33.0123 41.4455L33.0128 41.4467C33.6225 41.5678 34.3943 41.6452 35.29 41.6452C40.5944 41.6452 44.417 39.2558 44.0178 39.224ZM14.3461 38.7317L14.3416 38.7348C11.849 38.9169 9.54417 35.761 10.905 34.0208C11.0913 33.8818 11.2508 33.8019 11.3138 33.7703C11.3248 33.7648 11.3329 33.7607 11.3377 33.7581C11.374 33.739 11.4113 33.7234 11.45 33.7072C11.4769 33.696 11.5044 33.6846 11.5327 33.6714C11.56 33.6601 11.5914 33.6506 11.6259 33.641C11.7364 33.6101 11.7602 33.6014 11.7844 33.5945C11.8086 33.5876 11.8334 33.5825 11.945 33.5591H11.9448C13.1554 33.305 14.0094 33.8357 14.3812 34.3576C14.5524 34.5977 14.5892 34.7783 14.6159 34.9093C14.6246 34.9518 14.6322 34.9892 14.643 35.0216L14.6433 35.0232C14.3534 34.6226 13.9791 34.5348 13.9791 34.5348C13.6635 34.4103 13.0571 34.6005 13.0176 35.277C12.9993 35.5372 13.0775 35.8288 13.3022 36.0851L13.3039 36.087C13.3119 36.096 13.32 36.1052 13.3285 36.1142C13.3362 36.1226 13.3441 36.1309 13.3521 36.1389C13.5362 36.328 13.7551 36.4656 13.9642 36.597C14.3229 36.8225 14.6525 37.0297 14.7278 37.4475C14.8046 37.9072 14.6691 38.3877 14.3461 38.7317Z" fill="#E2B986"/>
<path fill-rule="evenodd" clip-rule="evenodd" d="M39.0059 12.153C36.9999 10.5846 31.1449 11.0287 25.2833 14.8921C22.5995 16.6609 20.6314 18.5956 19.1145 20.6057C19.1145 20.6057 21.4562 16.0791 26.6015 13.0851C26.2428 13.0265 25.3994 13.1291 25.1575 13.1585C25.1409 13.1605 25.1271 13.1622 25.1166 13.1635C26.0513 12.3459 27.7878 11.8001 28.9878 11.552C28.6366 11.3248 27.8002 11.2674 27.385 11.2562C27.2718 11.2532 27.2642 11.2535 27.1498 11.2584C27.1402 11.2588 27.1298 11.2592 27.1185 11.2597C28.2471 10.618 30.3398 10.2414 32.2422 10.5816C32.0031 10.2589 31.4609 10.0234 31.0808 9.90891C31.0476 9.8988 30.8984 9.86111 30.8984 9.86111C30.8984 9.86111 31.0256 9.83056 31.0417 9.82738C32.1877 9.60299 33.5264 9.84529 34.5854 10.2777C34.4651 9.99385 34.1712 9.66332 33.9503 9.4541C33.9277 9.43267 33.7958 9.3363 33.7958 9.3363C34.9037 9.56981 35.9654 10.0612 36.7643 10.6192C36.6557 10.4058 36.3871 10.0467 36.2013 9.85056C37.26 10.1586 38.4485 10.9262 38.9578 12.0267C38.9703 12.0515 39.0025 12.1421 39.0062 12.1523L39.0059 12.153ZM34.3075 26.8408C34.4218 27.0108 34.4524 27.1391 34.4062 27.1925C34.3234 27.291 34.0485 27.1811 33.6399 27.0178L33.6399 27.0177C33.5946 26.9996 33.5477 26.9809 33.4992 26.9616C32.2556 26.4899 31.3393 26.418 29.7174 27.0423L29.5879 27.0928C29.2459 27.2264 29.0014 27.322 28.877 27.3032C28.6496 27.2688 28.8698 26.8454 29.3669 26.4346C30.3671 25.6232 31.7408 25.3714 32.9147 25.8157C33.4285 26.008 34.0055 26.3918 34.3075 26.8408ZM34.0607 28.1348C33.7198 27.8699 33.092 27.6924 32.4401 27.805C32.3383 27.8208 32.2423 27.8487 32.1485 27.8759C32.1163 27.8853 32.0844 27.8946 32.0526 27.9032C32.007 27.9147 31.9635 27.931 31.921 27.9492C31.6515 28.0646 31.4182 28.189 31.1918 28.4097C30.932 28.6649 30.8582 28.902 30.9333 28.9603C30.9976 29.0125 31.1424 28.9519 31.3623 28.8599L31.3973 28.8452L31.4648 28.8172C32.3955 28.4238 33.0543 28.4133 33.6818 28.4578L33.7264 28.4609C34.0043 28.4801 34.1893 28.4928 34.234 28.4132C34.2671 28.3563 34.207 28.2482 34.0607 28.1348ZM14.0171 32.9902L14.0169 32.99C13.5082 32.5728 12.7872 32.3754 11.9495 32.5559H11.9497L11.9344 32.5592C11.8363 32.5804 11.8129 32.5854 11.7899 32.5921C11.7827 32.5942 11.7756 32.5965 11.7662 32.5995L11.7662 32.5995L11.7661 32.5995C11.7439 32.6065 11.7092 32.6175 11.632 32.6397C11.5976 32.6494 11.5663 32.6592 11.5393 32.6706C11.5112 32.684 11.484 32.6957 11.4575 32.7071C11.4187 32.7237 11.3815 32.7396 11.3451 32.7593C11.3404 32.762 11.3325 32.7661 11.3216 32.7716C11.2144 32.8267 10.8241 33.027 10.5009 33.4291C10.3283 33.6469 10.1956 33.8891 10.0987 34.1383C9.92378 34.5986 9.85841 35.103 9.8771 35.5877C9.90278 36.2494 10.0759 36.6466 10.1407 36.7952C10.1484 36.8129 10.1546 36.8271 10.1588 36.8378C10.3243 37.1992 9.93675 37.2735 9.58328 36.885L9.58241 36.8842C9.29962 36.5798 9.1185 36.1162 9.02989 35.7044V35.7042C8.97759 35.4595 8.94409 35.1849 8.94409 34.8894C8.94409 34.5467 8.98926 34.1757 9.10262 33.7915L9.10273 33.7909L9.10283 33.7906C9.40941 32.7812 10.0984 32.0189 11.1454 31.6038C11.2119 31.5772 11.2859 31.5575 11.3552 31.5391C11.3866 31.5308 11.417 31.5227 11.4453 31.5143L11.4443 31.5145C11.6207 31.461 12.2522 31.331 12.8942 31.4326C13.2657 31.4911 13.6036 31.6162 13.8948 31.7811C14.1855 31.9457 14.43 32.1501 14.6156 32.3694L14.6164 32.3704C14.9198 32.7212 15.1488 33.2162 15.1081 33.6567L15.108 33.6578C15.0927 33.841 15.013 34.1035 14.8507 34.1717C14.7903 34.1967 14.7297 34.1834 14.6874 34.1411C14.6399 34.0938 14.6265 34.0264 14.6084 33.9355C14.5819 33.8017 14.5452 33.6172 14.3746 33.3717C14.2873 33.2458 14.1702 33.1139 14.0174 32.9904L14.0171 32.9902ZM13.8382 34.6346C13.7225 34.5414 13.6688 34.4619 13.6368 34.3394C13.5895 34.1164 13.6142 33.9868 13.8017 33.8529C13.8423 33.8246 13.8807 33.8004 13.915 33.7788C14.0023 33.7239 14.0623 33.6861 14.0626 33.6407C14.0691 33.5211 13.5862 33.3981 13.2485 33.7361C12.9682 34.0398 12.8797 34.6729 13.327 35.1664C13.5152 35.373 13.7431 35.5199 13.9601 35.6599C14.3171 35.8901 14.6449 36.1014 14.7199 36.5287C14.7358 36.626 14.7475 36.7344 14.7392 36.8414C14.7408 36.9512 14.7086 37.1042 14.7004 37.1433L14.6986 37.1522C14.5488 37.8158 13.9295 38.4489 12.9083 38.2876L12.864 38.2809C12.701 38.2564 12.5954 38.2404 12.562 38.289C12.4832 38.4004 12.9209 38.9096 13.722 38.8912C14.5059 38.8743 15.2835 38.2775 15.5328 37.3805L15.5346 37.374C15.5462 37.3314 15.6097 37.0977 15.6153 36.8867C15.6293 36.7179 15.6173 36.5443 15.5864 36.3626C15.4339 35.5024 14.7675 35.1527 14.2655 34.8892C14.0954 34.8 13.9441 34.7206 13.8382 34.6346ZM40.4763 27.1055C40.5427 26.6736 40.8474 26.3633 41.1572 26.4124C41.4669 26.4616 41.6643 26.8516 41.5981 27.2835C41.5317 27.7155 41.2269 28.0258 40.9172 27.9767C40.6074 27.9275 40.41 27.5375 40.4763 27.1055ZM37.7535 27.6728C37.5832 27.9887 37.7906 28.4374 38.2167 28.6747C38.6427 28.9122 39.1261 28.8486 39.2964 28.5325C39.4666 28.2166 39.2594 27.768 38.8332 27.5306C38.4071 27.2933 37.9237 27.3569 37.7535 27.6728Z" fill="#916D53"/>
<path d="M38.5012 24.6206C38.495 24.1928 38.5449 23.486 38.8426 23.3545C38.843 23.3544 38.8428 23.3544 38.8432 23.3542C39.3519 23.1155 40.0253 24.8783 40.0563 26.4435C39.6544 26.1711 39.1821 26.0556 38.6963 26.1126C38.5742 25.6087 38.5157 25.134 38.5012 24.6206Z" fill="#5B453E"/>
</svg>
