<svg width="1296" height="568" viewBox="0 0 1296 568" fill="none" xmlns="http://www.w3.org/2000/svg">
<g style="mix-blend-mode:screen" clip-path="url(#clip0_20005153_5103)">
<path opacity="0.1" fill-rule="evenodd" clip-rule="evenodd" d="M-20.466 422.45C-20.468 422.451 -20.4694 422.451 -20.6559 421.01L-20.6643 420.945C-20.8424 419.569 -20.8424 419.569 -20.8417 419.569L-20.8369 419.568L-20.8151 419.565C-20.7952 419.562 -20.7644 419.558 -20.723 419.552C-20.6403 419.539 -20.515 419.52 -20.3486 419.494C-20.0159 419.442 -19.519 419.36 -18.8693 419.246C-17.5699 419.017 -15.6598 418.655 -13.2308 418.126C-8.37242 417.069 -1.44109 415.342 6.82817 412.671C23.3724 407.328 45.2406 398.215 66.5738 383.14C109.172 353.037 149.73 299.116 141.381 203.531C133.051 108.155 67.5872 60.1644 3.85756 35.9735C-27.9986 23.8814 -59.3484 17.7715 -82.7444 14.6864C-94.4394 13.1442 -104.139 12.3588 -110.911 11.959C-114.297 11.759 -116.951 11.6556 -118.755 11.6021C-119.657 11.5753 -120.347 11.5611 -120.81 11.5535C-121.041 11.5497 -121.216 11.5477 -121.332 11.5465C-121.382 11.546 -121.422 11.5457 -121.45 11.5455L-121.462 11.5453L-121.502 11.5451C-121.503 11.5451 -121.503 11.5451 -121.501 10.8014L-121.498 10.0912C-121.493 8.63721 -121.492 8.63721 -121.489 8.63727L-121.48 8.6373L-121.444 8.63751C-121.413 8.63776 -121.366 8.63809 -121.306 8.63867C-121.241 8.63934 -121.16 8.64026 -121.062 8.64157C-120.976 8.6427 -120.877 8.64413 -120.766 8.64597C-120.291 8.65372 -119.59 8.66821 -118.675 8.69534C-116.846 8.74957 -114.167 8.85416 -110.753 9.05573C-103.926 9.4588 -94.1608 10.2498 -82.3929 11.8015C-58.8634 14.9043 -27.2958 21.0527 4.8157 33.2418C69.0213 57.6133 135.693 106.277 144.165 203.268C152.618 300.05 111.461 354.934 68.1445 385.545C46.5202 400.826 24.3809 410.047 7.65698 415.448C-0.70784 418.15 -7.72575 419.899 -12.6581 420.973C-15.1245 421.51 -17.0701 421.878 -18.4026 422.113C-19.0688 422.23 -19.5819 422.314 -19.9302 422.369C-20.1043 422.397 -20.2373 422.417 -20.3277 422.43C-20.3504 422.434 -20.3704 422.437 -20.3877 422.439L-20.431 422.445L-20.4584 422.449L-20.466 422.45Z" fill="url(#paint0_linear_20005153_5103)"/>
<path opacity="0.1" fill-rule="evenodd" clip-rule="evenodd" d="M702.001 485.489C725.35 519.725 799.529 588.405 910.908 591.474L911 587.84C800.83 584.805 727.552 516.754 704.78 483.281L704.707 483.174L704.62 483.078C664.718 439.435 630.418 422.595 601.285 422.362C572.122 422.127 548.633 438.533 530.372 460.179C512.115 481.822 498.917 508.892 490.293 530.481C485.977 541.288 482.795 550.749 480.692 557.512C479.64 560.894 478.858 563.602 478.337 565.468C478.077 566.401 477.882 567.124 477.752 567.615C477.687 567.861 477.638 568.049 477.606 568.176C477.589 568.239 477.577 568.288 477.568 568.321L477.559 568.359L477.556 568.369C477.555 568.371 477.555 568.373 479.245 568.834C480.935 569.295 480.935 569.295 480.935 569.293L480.937 569.286L480.945 569.253C480.953 569.224 480.964 569.179 480.98 569.119C480.991 569.076 481.005 569.024 481.02 568.964C481.047 568.86 481.081 568.732 481.121 568.581C481.247 568.105 481.437 567.398 481.693 566.481C482.205 564.647 482.977 561.974 484.017 558.631C486.097 551.942 489.246 542.576 493.52 531.876C502.078 510.452 515.101 483.793 532.999 462.576C550.895 441.362 573.497 425.774 601.258 425.996C629.028 426.219 662.455 442.264 702.001 485.489Z" fill="url(#paint1_linear_20005153_5103)"/>
<path opacity="0.1" fill-rule="evenodd" clip-rule="evenodd" d="M577.947 572.108C577.787 572.213 577.424 572.453 576.597 573C575.123 573.975 575.122 573.974 575.122 573.974L575.114 573.961L575.091 573.923C575.072 573.891 575.043 573.844 575.006 573.782C574.932 573.659 574.824 573.477 574.685 573.241C574.406 572.768 574.003 572.075 573.503 571.188C572.502 569.414 571.107 566.862 569.528 563.737C566.372 557.494 562.46 548.932 559.472 539.702C556.492 530.497 554.386 520.493 554.952 511.41C555.522 502.27 558.819 493.928 566.742 488.43C570.862 485.572 575.955 484.753 581.521 485.323C587.084 485.893 593.255 487.86 599.703 490.747C612.601 496.521 626.924 506.118 640.241 516.288C653.576 526.47 665.977 537.284 675.041 545.548C679.574 549.681 683.276 553.179 685.845 555.645C687.13 556.879 688.132 557.854 688.814 558.522C689.155 558.856 689.416 559.113 689.592 559.287C689.68 559.374 689.746 559.44 689.792 559.485L689.859 559.553C689.86 559.553 689.861 559.554 688.651 560.866C687.442 562.177 687.442 562.177 687.441 562.177L687.378 562.114C687.335 562.071 687.27 562.007 687.184 561.921C687.012 561.751 686.755 561.498 686.418 561.168C685.745 560.508 684.752 559.541 683.476 558.317C680.925 555.869 677.246 552.391 672.738 548.281C663.719 540.059 651.399 529.317 638.174 519.218C624.931 509.106 610.858 499.698 598.322 494.086C592.054 491.28 586.25 489.46 581.179 488.941C576.112 488.422 571.912 489.212 568.681 491.454C561.902 496.158 558.959 503.299 558.439 511.645C557.915 520.048 559.867 529.533 562.784 538.542C565.693 547.527 569.516 555.903 572.62 562.045C574.171 565.113 575.538 567.615 576.516 569.348C577.005 570.214 577.396 570.887 577.664 571.342C577.798 571.569 577.901 571.742 577.97 571.857C578.004 571.914 578.03 571.957 578.047 571.985L578.066 572.016L578.071 572.023L578.071 572.025C578.071 572.025 578.071 572.025 577.947 572.108Z" fill="url(#paint2_linear_20005153_5103)"/>
<path opacity="0.1" fill-rule="evenodd" clip-rule="evenodd" d="M462.117 354.572C470.373 369.455 481.904 377.937 497.561 376.85C513.551 375.74 524.658 368.741 532.39 358.532C540.17 348.259 544.623 334.61 547.004 320.106C551.282 294.041 548.788 265.816 547.467 250.863C547.316 249.158 547.181 247.626 547.072 246.289L547.051 246.031C545.99 232.938 543.574 203.15 549.108 173.126C554.679 142.899 568.392 112.043 600.004 97.9831C631.693 83.8895 665.475 99.0403 690.976 117.215C703.78 126.341 714.631 136.323 722.276 144.017C726.101 147.866 729.128 151.147 731.202 153.47C732.239 154.631 733.038 155.553 733.58 156.187C733.851 156.504 734.057 156.749 734.197 156.915C734.251 156.98 734.295 157.032 734.328 157.073L734.329 157.074C744.461 166.398 762.668 180.198 784.363 191.277C806.139 202.396 831.264 210.688 855.184 209.118C867.096 208.336 873.392 204.418 876.27 199.168C879.189 193.844 878.974 186.487 876.398 177.889C871.265 160.757 857.287 140.486 845.833 126.973C838.06 119.053 830.143 108.704 824.435 97.1525C818.72 85.5857 815.164 72.6921 816.323 59.7785C818.668 33.6641 840.047 8.85538 897.375 -5.34406C926.234 -12.492 946.79 -8.39828 960.803 3.50443C974.774 15.3704 981.843 34.6647 984.442 56.9715C989.637 101.556 977.134 159.461 964.082 199.106C961.842 205.909 957.899 213.921 953.733 222.386C953.021 223.832 952.303 225.291 951.586 226.759C946.624 236.918 941.647 247.633 938.76 258.06C935.872 268.492 935.152 278.379 938.422 287.005C941.671 295.575 949.015 303.299 963.055 309.074C978.241 315.32 990.142 313.492 1000.49 307.466C1010.97 301.364 1019.94 290.915 1029.09 279.632C1030.01 278.502 1030.93 277.364 1031.85 276.222C1040.05 266.059 1048.5 255.578 1058.26 247.827C1069.19 239.141 1081.85 233.796 1097.77 235.942C1128.39 240.07 1178.06 238.568 1212.11 207.184C1245.96 175.985 1265.08 114.55 1233.26 -2.95248L1236.61 -4.02722C1268.6 114.085 1249.78 177.455 1214.37 210.086C1179.16 242.531 1128.23 243.881 1097.34 239.716C1082.49 237.716 1070.71 242.645 1060.32 250.898C1050.9 258.386 1042.71 268.536 1034.46 278.752C1033.55 279.885 1032.63 281.018 1031.72 282.148C1022.61 293.377 1013.25 304.348 1002.14 310.819C990.897 317.366 977.944 319.263 961.818 312.631C947.192 306.615 938.92 298.294 935.19 288.455C931.481 278.67 932.418 267.781 935.413 256.963C938.41 246.139 943.54 235.127 948.499 224.974C949.231 223.476 949.958 221.998 950.673 220.544C954.852 212.051 958.647 204.337 960.791 197.824C973.783 158.361 986.065 101.139 980.974 57.4499C978.43 35.6195 971.588 17.4894 958.652 6.50232C945.76 -4.44803 926.414 -8.63596 898.151 -1.63565C841.236 12.4614 821.918 36.5884 819.802 60.1482C818.732 72.0717 822.004 84.1999 827.514 95.3517C833.021 106.496 840.703 116.544 848.268 124.243L848.315 124.291L848.358 124.342C859.91 137.96 874.342 158.754 879.722 176.71C882.406 185.668 882.971 194.37 879.272 201.116C875.533 207.937 867.813 212.099 855.394 212.914C830.652 214.539 804.912 205.971 782.877 194.72C760.825 183.459 742.316 169.424 731.98 159.893L731.887 159.808L731.806 159.71L731.863 159.654C731.806 159.71 731.806 159.71 731.806 159.709L731.805 159.707L731.796 159.697L731.76 159.654C731.728 159.615 731.679 159.556 731.613 159.477C731.481 159.319 731.282 159.084 731.02 158.777C730.495 158.162 729.713 157.26 728.695 156.12C726.658 153.839 723.675 150.606 719.902 146.809C712.352 139.211 701.656 129.374 689.06 120.396C663.758 102.363 631.319 88.1645 601.327 101.504C571.26 114.876 557.996 144.249 552.536 173.873C547.101 203.359 549.48 232.705 550.539 245.765L550.555 245.954C550.661 247.268 550.795 248.784 550.946 250.48C552.266 265.385 554.815 294.151 550.445 320.775C548.009 335.616 543.398 349.978 535.088 360.951C526.729 371.988 514.718 379.47 497.783 380.646C480.515 381.845 467.877 372.315 459.124 356.537C450.423 340.853 445.46 318.869 443.304 294.593C438.989 246.015 445.845 187.427 457.48 149.436C459.533 142.733 461.775 135.857 464.059 128.853C468.252 115.993 472.586 102.703 476.146 89.261C481.631 68.5481 485.176 47.8109 483.414 28.4429C481.659 9.14523 474.634 -8.83444 458.866 -24.1349C443.05 -39.4822 418.324 -52.2417 381 -60.7762L381.719 -64.4982C419.377 -55.8873 444.755 -42.9241 461.193 -26.9733C477.679 -10.9757 485.06 7.9183 486.893 28.0684C488.719 48.1481 485.035 69.4326 479.505 90.3139C475.92 103.851 471.516 117.359 467.298 130.298C465.024 137.272 462.805 144.08 460.797 150.638C449.318 188.121 442.515 246.175 446.784 294.227C448.919 318.266 453.808 339.595 462.117 354.572Z" fill="url(#paint3_linear_20005153_5103)"/>
<path opacity="0.1" fill-rule="evenodd" clip-rule="evenodd" d="M442.858 572.161C442.858 572.162 442.858 572.163 441.171 571.659C439.485 571.155 439.484 571.156 439.484 571.156L439.485 571.155L439.486 571.151L439.491 571.127C439.497 571.105 439.505 571.069 439.516 571.021C439.539 570.926 439.573 570.779 439.616 570.584C439.703 570.194 439.829 569.609 439.979 568.844C440.28 567.313 440.681 565.064 441.075 562.217C441.863 556.519 442.62 548.437 442.49 538.927C442.231 519.895 438.424 495.247 424.311 472.519C418.669 463.434 411.123 453.424 402.718 442.275C400.507 439.342 398.237 436.33 395.926 433.235C384.868 418.427 372.962 401.82 362.521 383.205C341.624 345.949 326.548 300.562 335.765 245.209C340.375 217.525 350.611 194.28 361.946 173.559C367.227 163.904 372.758 154.776 378.067 146.015C378.452 145.381 378.835 144.748 379.217 144.117C384.884 134.761 390.249 125.823 394.798 117.013C403.897 99.388 409.595 82.5164 407.878 64.3211C406.162 46.1357 397 26.25 375.616 2.71952L378.087 -2.28882e-05C399.788 23.8789 409.525 44.5383 411.355 63.9238C413.183 83.2995 407.072 101.025 397.837 118.912C393.218 127.859 387.785 136.906 382.126 146.25C381.746 146.877 381.365 147.506 380.983 148.136C375.667 156.909 370.178 165.967 364.941 175.542C353.721 196.054 343.708 218.849 339.203 245.902C330.191 300.02 344.883 344.437 365.495 381.185C375.808 399.572 387.592 416.017 398.626 430.794C400.902 433.841 403.149 436.822 405.346 439.736C413.767 450.906 421.454 461.102 427.197 470.349C441.817 493.893 445.719 519.357 445.985 538.87C446.118 548.632 445.342 556.93 444.531 562.795C444.125 565.729 443.71 568.056 443.395 569.657C443.238 570.458 443.105 571.077 443.011 571.5C442.964 571.711 442.927 571.873 442.9 571.984C442.887 572.04 442.877 572.083 442.87 572.113L442.861 572.148L442.859 572.158L442.858 572.161Z" fill="url(#paint4_linear_20005153_5103)"/>
<path opacity="0.1" fill-rule="evenodd" clip-rule="evenodd" d="M541.613 -13.3671C541.612 -13.3685 541.611 -13.3695 542.988 -14.4875C544.366 -15.6055 544.366 -15.6056 544.366 -15.6053L544.378 -15.5892C544.384 -15.5808 544.393 -15.5693 544.404 -15.5546L544.421 -15.532C544.461 -15.4804 544.52 -15.4022 544.6 -15.2986C544.76 -15.0914 545 -14.7828 545.317 -14.3828C545.951 -13.5829 546.893 -12.418 548.117 -10.9695C550.564 -8.07171 554.136 -4.0423 558.621 0.470047C567.603 9.50727 580.188 20.423 594.69 28.0891C609.193 35.756 625.469 40.0998 641.936 36.2496C658.367 32.4076 675.317 20.3284 691.047 -5.54323L694 -3.60017C677.92 22.8468 660.273 35.6875 642.702 39.796C625.166 43.8962 608.035 39.2213 593.107 31.3296C578.177 23.4371 565.307 12.2544 556.192 3.08281C551.628 -1.50923 547.991 -5.6118 545.492 -8.56994C544.242 -10.0493 543.276 -11.2434 542.621 -12.0703C542.293 -12.4839 542.043 -12.8057 541.873 -13.0256C541.808 -13.1099 541.755 -13.1793 541.714 -13.233L541.68 -13.2778L541.648 -13.3204L541.63 -13.3442L541.613 -13.3671Z" fill="url(#paint5_linear_20005153_5103)"/>
<path opacity="0.1" fill-rule="evenodd" clip-rule="evenodd" d="M214.5 323.626C225.442 309.802 225.26 291.532 214.936 282.688C204.612 273.844 187.341 277.163 176.398 290.987C165.455 304.812 165.637 323.082 175.962 331.926C186.286 340.77 203.557 337.451 214.5 323.626ZM216.713 280.443C228.624 290.646 228.221 310.866 216.658 325.475C205.094 340.084 186.095 344.374 174.185 334.171C162.274 323.968 162.676 303.748 174.24 289.139C185.804 274.53 204.802 270.24 216.713 280.443Z" fill="url(#paint6_linear_20005153_5103)"/>
<path opacity="0.1" fill-rule="evenodd" clip-rule="evenodd" d="M309.934 533.361C320.314 501.971 323.007 464.144 293.419 436.619C278.484 422.725 264.187 416.385 250.306 415.166C236.403 413.944 222.755 417.845 209.106 424.736C195.447 431.632 181.876 441.476 168.136 452.043C164.861 454.562 161.576 457.122 158.279 459.692C147.777 467.877 137.155 476.156 126.374 483.47C97.7644 502.88 55.0526 507.96 19.7357 508.261C2.03467 508.411 -13.8914 507.361 -25.3918 506.273C-31.143 505.729 -35.7899 505.175 -39.0015 504.757C-40.6073 504.548 -41.8545 504.373 -42.7016 504.25C-43.1251 504.189 -43.4487 504.14 -43.6671 504.107C-43.7763 504.09 -43.8592 504.077 -43.9152 504.069L-43.9789 504.059L-43.9998 504.055C-44.0009 504.055 -44.0016 504.055 -43.7843 502.578C-43.6542 501.695 -43.6019 501.34 -43.5808 501.198C-43.5666 501.102 -43.5664 501.102 -43.5662 501.102L-43.5486 501.105L-43.4893 501.114C-43.4363 501.122 -43.3565 501.135 -43.2503 501.151C-43.0381 501.183 -42.7208 501.231 -42.3036 501.292C-41.4694 501.413 -40.2359 501.586 -38.6444 501.793C-35.4612 502.207 -30.8468 502.757 -25.1314 503.298C-13.6986 504.379 2.12943 505.423 19.7122 505.273C54.9629 504.973 96.9377 499.874 124.803 480.968C135.498 473.712 146.015 465.516 156.5 457.344C159.811 454.764 163.118 452.187 166.427 449.642C180.178 439.066 193.932 429.076 207.85 422.049C221.777 415.017 235.957 410.907 250.548 412.189C265.162 413.473 280.026 420.151 295.335 434.393C326.236 463.139 323.161 502.551 312.652 534.332C307.387 550.253 300.224 564.384 294.384 574.526C291.463 579.6 288.869 583.683 287.003 586.5C286.07 587.909 285.319 589.002 284.799 589.744C284.539 590.116 284.338 590.4 284.2 590.592C284.131 590.688 284.078 590.761 284.042 590.81C284.024 590.835 284.011 590.854 284.001 590.867L283.987 590.886C283.986 590.888 283.986 590.888 282.843 589.983C281.7 589.077 281.7 589.077 281.7 589.077L281.711 589.063C281.719 589.052 281.731 589.035 281.747 589.012C281.78 588.967 281.83 588.898 281.895 588.807C282.026 588.624 282.222 588.349 282.475 587.988C282.981 587.264 283.718 586.192 284.636 584.806C286.472 582.033 289.032 578.004 291.918 572.992C297.693 562.962 304.754 549.024 309.934 533.361Z" fill="url(#paint7_linear_20005153_5103)"/>
<path opacity="0.1" fill-rule="evenodd" clip-rule="evenodd" d="M270.996 170.431C284.939 156.523 295.363 133.068 300.473 101.655C305.555 70.4338 298.63 35.246 290.363 7.75282C286.237 -5.9722 281.789 -17.7345 278.374 -26.0641C276.667 -30.2282 275.218 -33.5327 274.198 -35.7935C273.687 -36.9238 273.284 -37.7932 273.009 -38.3785C272.872 -38.6711 272.766 -38.8928 272.696 -39.0405C272.66 -39.1144 272.634 -39.1698 272.616 -39.2064L272.592 -39.2567L272.591 -39.2589C272.591 -39.2592 272.59 -39.2592 273.837 -39.9159C275.084 -40.5725 275.085 -40.572 275.085 -40.5711L275.087 -40.5679L275.093 -40.556L275.114 -40.5108C275.133 -40.4713 275.162 -40.4129 275.198 -40.3359C275.272 -40.1821 275.38 -39.9542 275.521 -39.6551C275.802 -39.0569 276.211 -38.174 276.728 -37.0295C277.761 -34.7404 279.223 -31.4042 280.945 -27.205C284.388 -18.8079 288.87 -6.95293 293.031 6.8847C301.34 34.5169 308.422 70.2358 303.229 102.14C298.065 133.886 287.47 158.026 272.931 172.53C258.316 187.108 239.805 191.847 219.252 184.892C208.991 181.42 201.839 176.095 196.995 169.627C192.158 163.167 189.693 155.661 188.655 147.934C186.8 134.13 189.482 119.377 191.51 108.225C191.741 106.954 191.964 105.73 192.17 104.559C194.251 92.7141 194.383 70.8872 180.603 45.886C166.822 20.8823 139.052 -7.43173 85.0959 -32.0975L86.2205 -34.7597C140.571 -9.91347 168.876 18.7633 183.028 44.4396C197.181 70.1178 197.103 92.6596 194.92 105.083L194.919 105.084C194.711 106.267 194.488 107.495 194.258 108.763C192.224 119.971 189.636 134.236 191.423 147.532C192.412 154.892 194.737 161.88 199.2 167.84C203.656 173.79 210.312 178.809 220.117 182.127C239.694 188.752 257.129 184.264 270.996 170.431Z" fill="url(#paint8_linear_20005153_5103)"/>
<path opacity="0.1" fill-rule="evenodd" clip-rule="evenodd" d="M853.194 417.343C880.856 425.365 908.289 422.668 943.814 418.997C961.403 417.18 971.496 412.05 976.148 405.66C980.694 399.415 980.366 391.474 975.893 382.999C971.411 374.506 962.873 365.757 951.611 358.423C940.37 351.103 926.512 345.259 911.51 342.508C880.99 336.909 863.58 321.689 846.842 307.055C846.644 306.882 846.447 306.71 846.25 306.538C829.359 291.773 813.019 277.744 784.139 274.06C772.743 272.606 764.541 275.363 758.859 280.438C753.143 285.545 749.776 293.181 748.431 301.852C747.087 310.519 747.786 320.094 750.086 328.877C752.389 337.671 756.262 345.543 761.154 350.878C797.561 390.579 825.583 409.335 853.194 417.343ZM852.334 420.552C823.945 412.319 795.445 393.097 758.837 353.177C753.481 347.337 749.397 338.919 746.996 329.752C744.593 320.574 743.843 310.517 745.269 301.322C746.694 292.132 750.316 283.679 756.773 277.911C763.264 272.112 772.419 269.209 784.529 270.753C814.412 274.565 831.377 289.186 848.31 303.987L848.808 304.422C865.546 319.055 882.395 333.784 912.066 339.227C927.487 342.055 941.73 348.059 953.31 355.6C964.871 363.128 973.875 372.253 978.7 381.396C983.535 390.556 984.277 400.012 978.701 407.671C973.231 415.184 962.007 420.465 944.13 422.312C908.723 425.971 880.674 428.771 852.334 420.552Z" fill="url(#paint9_linear_20005153_5103)"/>
<path opacity="0.1" fill-rule="evenodd" clip-rule="evenodd" d="M1206.46 496.148C1172.38 512.851 1145.79 546.782 1131.75 573.025L1128.95 571.405C1143.18 544.815 1170.2 510.241 1205.1 493.134C1222.58 484.565 1242.07 480.366 1262.9 483.796C1283.73 487.226 1305.77 498.261 1328.38 519.924L1326.21 522.375C1303.97 501.066 1282.49 490.394 1262.4 487.086C1242.31 483.779 1223.47 487.812 1206.46 496.148Z" fill="url(#paint10_linear_20005153_5103)"/>
<path opacity="0.1" fill-rule="evenodd" clip-rule="evenodd" d="M1039.62 507.577C959.861 515.132 937.647 554.536 936.191 572.354L933 572.072C934.639 552.023 958.71 511.895 1039.33 504.259C1089.04 499.55 1113.24 482.375 1134.94 464.044C1137.29 462.058 1139.61 460.055 1141.93 458.051C1161.17 441.47 1180.55 424.772 1216.22 416.509C1256.1 407.27 1294.48 412.971 1322.54 425.728C1336.57 432.106 1348.09 440.276 1355.94 449.296C1363.77 458.308 1368.04 468.301 1367.23 478.241L1364.04 477.96C1364.75 469.244 1361.03 460.123 1353.56 451.531C1346.1 442.946 1334.99 435.022 1321.26 428.781C1293.81 416.303 1256.12 410.677 1216.91 419.761C1182.02 427.843 1163.2 444.059 1143.98 460.614C1141.66 462.619 1139.32 464.629 1136.95 466.63C1114.93 485.236 1090.14 502.791 1039.62 507.577Z" fill="url(#paint11_linear_20005153_5103)"/>
<path opacity="0.1" fill-rule="evenodd" clip-rule="evenodd" d="M1277.86 295.257C1286.84 300.507 1298.23 302.957 1306 303.58L1305.77 306.886C1297.75 306.243 1285.9 303.722 1276.42 298.176C1266.92 292.624 1259.44 283.762 1261.28 270.479C1263.43 254.98 1267.16 242.102 1270.48 231.45C1270.96 229.913 1271.43 228.428 1271.88 226.992C1274.6 218.379 1276.76 211.546 1277.26 205.959C1277.4 204.425 1277.32 202.108 1277.13 199.099C1277.03 197.516 1276.9 195.815 1276.76 193.987C1276.64 192.327 1276.5 190.561 1276.38 188.683C1275.84 180.898 1275.43 171.664 1276.25 162.726C1277.07 153.808 1279.14 145.009 1283.69 138.214C1288.3 131.34 1295.35 126.668 1305.78 125.875L1305.99 129.183C1296.4 129.911 1290.2 134.131 1286.16 140.164C1282.07 146.276 1280.09 154.398 1279.29 163.056C1278.5 171.695 1278.89 180.693 1279.42 188.438C1279.54 190.242 1279.68 192.007 1279.8 193.68C1279.94 195.547 1280.07 197.3 1280.18 198.868C1280.37 201.853 1280.47 204.433 1280.3 206.282C1279.76 212.289 1277.46 219.563 1274.76 228.12C1274.3 229.548 1273.84 231.013 1273.37 232.513C1270.07 243.105 1266.41 255.765 1264.3 270.973C1262.73 282.256 1268.9 290.014 1277.86 295.257Z" fill="url(#paint12_linear_20005153_5103)"/>
<path opacity="0.1" fill-rule="evenodd" clip-rule="evenodd" d="M1075.77 128.328C1082.74 139.13 1095.39 145.525 1120.43 143.589C1140.28 142.054 1154.42 133.759 1164.3 121.355C1174.23 108.9 1179.96 92.1864 1182.72 73.7081C1188.25 36.7342 1181.82 -6.74615 1174.16 -35.52L1177.25 -36.4098C1184.98 -7.39059 1191.51 36.6022 1185.88 74.2203C1183.07 93.038 1177.19 110.4 1166.77 123.481C1156.3 136.612 1141.35 145.312 1120.67 146.911C1095.04 148.892 1080.99 142.387 1073.11 130.184C1069.24 124.176 1066.95 116.92 1065.43 108.956C1063.9 100.997 1063.11 92.2033 1062.29 83.0963C1060.65 64.7969 1058.88 45.126 1051.03 27.1254C1043.22 9.21754 1029.33 -7.12456 1003.24 -18.593L1004.49 -21.6618C1031.31 -9.87408 1045.8 7.06346 1053.95 25.7486C1062.03 44.2652 1063.83 64.4116 1065.46 82.564L1065.48 82.7868C1066.3 91.9346 1067.08 100.547 1068.57 108.305C1070.05 116.059 1072.23 122.833 1075.77 128.328Z" fill="url(#paint13_linear_20005153_5103)"/>
</g>
<defs>
<linearGradient id="paint0_linear_20005153_5103" x1="145.276" y1="214.554" x2="-121.503" y2="214.554" gradientUnits="userSpaceOnUse">
<stop stop-color="#6366F1"/>
<stop offset="0.5" stop-color="#8B5CF6"/>
<stop offset="1" stop-color="#D946EF"/>
</linearGradient>
<linearGradient id="paint1_linear_20005153_5103" x1="911" y1="506.512" x2="477.556" y2="506.512" gradientUnits="userSpaceOnUse">
<stop stop-color="#6366F1"/>
<stop offset="0.5" stop-color="#8B5CF6"/>
<stop offset="1" stop-color="#D946EF"/>
</linearGradient>
<linearGradient id="paint2_linear_20005153_5103" x1="689.859" y1="529.351" x2="554.86" y2="529.351" gradientUnits="userSpaceOnUse">
<stop stop-color="#6366F1"/>
<stop offset="0.5" stop-color="#8B5CF6"/>
<stop offset="1" stop-color="#D946EF"/>
</linearGradient>
<linearGradient id="paint3_linear_20005153_5103" x1="1253" y1="157.059" x2="381" y2="157.059" gradientUnits="userSpaceOnUse">
<stop stop-color="#6366F1"/>
<stop offset="0.5" stop-color="#8B5CF6"/>
<stop offset="1" stop-color="#D946EF"/>
</linearGradient>
<linearGradient id="paint4_linear_20005153_5103" x1="446" y1="284.712" x2="333" y2="284.712" gradientUnits="userSpaceOnUse">
<stop stop-color="#6366F1"/>
<stop offset="0.5" stop-color="#8B5CF6"/>
<stop offset="1" stop-color="#D946EF"/>
</linearGradient>
<linearGradient id="paint5_linear_20005153_5103" x1="694" y1="12.7177" x2="541.613" y2="12.7177" gradientUnits="userSpaceOnUse">
<stop stop-color="#6366F1"/>
<stop offset="0.5" stop-color="#8B5CF6"/>
<stop offset="1" stop-color="#D946EF"/>
</linearGradient>
<linearGradient id="paint6_linear_20005153_5103" x1="216.612" y1="280.356" x2="172.066" y2="332.356" gradientUnits="userSpaceOnUse">
<stop stop-color="#6366F1"/>
<stop offset="0.5" stop-color="#8B5CF6"/>
<stop offset="1" stop-color="#D946EF"/>
</linearGradient>
<linearGradient id="paint7_linear_20005153_5103" x1="320" y1="500.993" x2="-44" y2="500.993" gradientUnits="userSpaceOnUse">
<stop stop-color="#6366F1"/>
<stop offset="0.5" stop-color="#8B5CF6"/>
<stop offset="1" stop-color="#D946EF"/>
</linearGradient>
<linearGradient id="paint8_linear_20005153_5103" x1="305" y1="73.19" x2="85.0959" y2="73.19" gradientUnits="userSpaceOnUse">
<stop stop-color="#6366F1"/>
<stop offset="0.5" stop-color="#8B5CF6"/>
<stop offset="1" stop-color="#D946EF"/>
</linearGradient>
<linearGradient id="paint9_linear_20005153_5103" x1="982.609" y1="347.746" x2="744.549" y2="347.746" gradientUnits="userSpaceOnUse">
<stop stop-color="#6366F1"/>
<stop offset="0.5" stop-color="#8B5CF6"/>
<stop offset="1" stop-color="#D946EF"/>
</linearGradient>
<linearGradient id="paint10_linear_20005153_5103" x1="1328.38" y1="527.596" x2="1128.95" y2="527.596" gradientUnits="userSpaceOnUse">
<stop stop-color="#6366F1"/>
<stop offset="0.5" stop-color="#8B5CF6"/>
<stop offset="1" stop-color="#D946EF"/>
</linearGradient>
<linearGradient id="paint11_linear_20005153_5103" x1="1367.33" y1="491.772" x2="933" y2="491.772" gradientUnits="userSpaceOnUse">
<stop stop-color="#6366F1"/>
<stop offset="0.5" stop-color="#8B5CF6"/>
<stop offset="1" stop-color="#D946EF"/>
</linearGradient>
<linearGradient id="paint12_linear_20005153_5103" x1="1306" y1="215.948" x2="1261" y2="215.948" gradientUnits="userSpaceOnUse">
<stop stop-color="#6366F1"/>
<stop offset="0.5" stop-color="#8B5CF6"/>
<stop offset="1" stop-color="#D946EF"/>
</linearGradient>
<linearGradient id="paint13_linear_20005153_5103" x1="1188" y1="54.9869" x2="1003.24" y2="54.9869" gradientUnits="userSpaceOnUse">
<stop stop-color="#6366F1"/>
<stop offset="0.5" stop-color="#8B5CF6"/>
<stop offset="1" stop-color="#D946EF"/>
</linearGradient>
<clipPath id="clip0_20005153_5103">
<rect width="1296" height="568" fill="white" transform="matrix(-1 0 0 -1 1296 568)"/>
</clipPath>
</defs>
</svg>
