<svg width="122" height="44" viewBox="0 0 122 44" fill="none" xmlns="http://www.w3.org/2000/svg">
<path d="M60.6802 29.6489C61.4306 29.6489 62.1571 29.5534 62.8598 29.3624C63.5692 29.1714 64.2036 28.8848 64.763 28.5028C65.3224 28.114 65.7658 27.6262 66.0932 27.0396C66.4275 26.4461 66.5946 25.7537 66.5946 24.9624C66.5946 24.2188 66.4548 23.6048 66.1751 23.1205C65.9022 22.6362 65.5509 22.2473 65.1211 21.954C64.6982 21.6538 64.2548 21.4219 63.7909 21.2582C63.327 21.0876 62.9041 20.9512 62.5221 20.8489L59.9639 20.1531C59.6501 20.0712 59.3432 19.9689 59.043 19.8461C58.7429 19.7233 58.4939 19.563 58.296 19.3652C58.0982 19.1605 57.9993 18.8979 57.9993 18.5773C57.9993 18.2293 58.1187 17.9292 58.3574 17.6768C58.603 17.4244 58.9168 17.2334 59.2988 17.1038C59.6877 16.9673 60.1004 16.9059 60.537 16.9196C61.2055 16.94 61.8194 17.1379 62.3788 17.5131C62.9382 17.8883 63.2998 18.434 63.4635 19.1503L66.4718 18.6387C66.1171 17.2538 65.4281 16.1931 64.4049 15.4563C63.3816 14.7196 62.106 14.341 60.5779 14.3205C59.5683 14.3137 58.6474 14.4706 57.8151 14.7912C56.9829 15.1118 56.3177 15.5996 55.8198 16.2545C55.3218 16.9093 55.0728 17.7314 55.0728 18.7205C55.0728 19.4231 55.1887 20.0064 55.4207 20.4703C55.6594 20.9273 55.9562 21.2957 56.3109 21.5754C56.6656 21.8551 57.0306 22.07 57.4058 22.22C57.7878 22.3701 58.1221 22.4861 58.4086 22.568L62.2356 23.6935C62.8086 23.8641 63.1906 24.079 63.3816 24.3382C63.5726 24.5906 63.6681 24.8669 63.6681 25.167C63.6681 25.5763 63.5283 25.9208 63.2486 26.2005C62.9757 26.4802 62.6244 26.6917 62.1946 26.8349C61.7649 26.9782 61.3215 27.0498 60.8644 27.0498C60.0458 27.0498 59.3159 26.8213 58.6746 26.3642C58.0334 25.9072 57.6105 25.2557 57.4058 24.4098L54.4998 24.8396C54.6498 25.8355 55.0046 26.6951 55.5639 27.4182C56.1301 28.1345 56.8498 28.687 57.723 29.0759C58.603 29.4579 59.5887 29.6489 60.6802 29.6489Z" fill="#0B0F19"/>
<path d="M69.0484 16.7559H71.8316V14.3H69.0484V16.7559ZM69.0484 29.3419H71.8316V18.2907H69.0484V29.3419Z" fill="#0B0F19"/>
<path d="M75.104 29.3419H77.8872V14.3H75.104V29.3419Z" fill="#0B0F19"/>
<path d="M81.1596 16.7559H83.9428V14.3H81.1596V16.7559ZM81.1596 29.3419H83.9428V18.2907H81.1596V29.3419Z" fill="#0B0F19"/>
<path d="M91.8812 29.6489C93.1637 29.6489 94.2415 29.3317 95.1147 28.6972C95.9879 28.0628 96.5813 27.159 96.8951 25.9856L94.0505 25.3921C93.8868 25.9242 93.6412 26.3335 93.3137 26.62C92.9863 26.9066 92.5088 27.0498 91.8812 27.0498C91.0421 27.0498 90.4077 26.7531 89.9779 26.1596C89.555 25.5593 89.3435 24.7782 89.3435 23.8163C89.3435 22.8954 89.5448 22.128 89.9472 21.514C90.3565 20.8932 91.0012 20.5828 91.8812 20.5828C92.3928 20.5828 92.8499 20.7431 93.2523 21.0638C93.6617 21.3844 93.9482 21.8312 94.1119 22.4042L96.8951 21.6675C96.6496 20.5283 96.0834 19.6312 95.1965 18.9763C94.3165 18.3146 93.2251 17.9838 91.9221 17.9838C90.7965 17.9838 89.821 18.2362 88.9956 18.741C88.1702 19.2458 87.5289 19.9382 87.0719 20.8182C86.6217 21.6982 86.3965 22.6976 86.3965 23.8163C86.3965 24.9214 86.6148 25.914 87.0514 26.794C87.488 27.674 88.1156 28.3698 88.9342 28.8814C89.7528 29.3931 90.7351 29.6489 91.8812 29.6489Z" fill="#0B0F19"/>
<path d="M103.615 29.6489C104.72 29.6489 105.692 29.4033 106.531 28.9121C107.377 28.4141 108.036 27.7286 108.506 26.8554C108.984 25.9754 109.222 24.9624 109.222 23.8163C109.222 22.6771 108.987 21.6709 108.516 20.7977C108.046 19.9177 107.387 19.2287 106.542 18.7307C105.702 18.2328 104.727 17.9838 103.615 17.9838C102.524 17.9838 101.558 18.2293 100.719 18.7205C99.8802 19.2117 99.2219 19.8973 98.7444 20.7773C98.2668 21.6504 98.0281 22.6635 98.0281 23.8163C98.0281 24.9555 98.26 25.9652 98.7239 26.8452C99.1946 27.7183 99.8495 28.4039 100.689 28.9019C101.528 29.3999 102.503 29.6489 103.615 29.6489ZM103.615 27.0498C102.749 27.0498 102.09 26.7599 101.64 26.18C101.197 25.5934 100.975 24.8055 100.975 23.8163C100.975 22.8545 101.187 22.0768 101.609 21.4833C102.039 20.883 102.708 20.5828 103.615 20.5828C104.495 20.5828 105.157 20.8762 105.6 21.4628C106.05 22.0495 106.276 22.834 106.276 23.8163C106.276 24.7645 106.054 25.5422 105.61 26.1493C105.174 26.7497 104.509 27.0498 103.615 27.0498Z" fill="#0B0F19"/>
<path d="M111.452 29.3419H114.276V23.7345C114.276 23.0455 114.351 22.4929 114.502 22.0768C114.658 21.6607 114.856 21.3469 115.095 21.1354C115.334 20.9171 115.59 20.7704 115.862 20.6954C116.135 20.6204 116.391 20.5828 116.63 20.5828C117.223 20.5828 117.68 20.7159 118.001 20.9819C118.328 21.248 118.564 21.5788 118.707 21.9745C118.85 22.3701 118.936 22.7658 118.963 23.1614C118.99 23.5503 119.004 23.8709 119.004 24.1233V29.3419H121.828V23.141C121.828 22.9568 121.814 22.6635 121.787 22.261C121.76 21.8585 121.681 21.4151 121.552 20.9307C121.422 20.4396 121.204 19.9689 120.897 19.5186C120.597 19.0684 120.174 18.6966 119.628 18.4033C119.082 18.11 118.376 17.9633 117.51 17.9633C116.712 17.9633 116.016 18.0963 115.422 18.3624C114.829 18.6284 114.331 18.9831 113.929 19.4266V18.2907H111.452V29.3419Z" fill="#0B0F19"/>
<path d="M10.2174 22L4.08696 12.2791L22.9891 0L22.4783 10.7442L10.2174 22Z" fill="url(#paint0_linear_20005153_1380)"/>
<path d="M22.4783 10.7442L22.9891 0L42.4022 8.69767L38.3152 26.093L12.2609 30.186L10.2174 22L22.4783 10.7442Z" fill="url(#paint1_linear_20005153_1380)"/>
<path d="M31.163 44L12.2609 30.186L38.3152 26.093L42.913 30.6977L31.163 44Z" fill="url(#paint2_linear_20005153_1380)"/>
<path d="M38.3152 26.093L42.913 30.6977L47 17.907L42.4022 8.69767L38.3152 26.093Z" fill="url(#paint3_linear_20005153_1380)"/>
<path d="M12.2609 30.186L31.163 44L12.2609 41.4418L0 26.6046L12.2609 30.186Z" fill="url(#paint4_linear_20005153_1380)"/>
<path d="M4.08696 12.2791L0 26.6046L12.2609 30.186L10.2174 22L4.08696 12.2791Z" fill="url(#paint5_linear_20005153_1380)"/>
<path d="M31.1636 44L12.2615 30.186L38.3158 26.093L42.9136 30.6977L31.1636 44Z" fill="black" fill-opacity="0.17"/>
<path d="M38.3147 26.0931L42.9125 30.6977L46.9995 17.9071L42.4017 8.69775L38.3147 26.0931Z" fill="black" fill-opacity="0.1"/>
<path d="M12.2609 30.1861L31.163 44.0001L12.2609 41.4419L0 26.6047L12.2609 30.1861Z" fill="black" fill-opacity="0.23"/>
<path d="M4.08696 12.2791L0 26.6046L12.2609 30.186L10.2174 22L4.08696 12.2791Z" fill="#C0C0C0" fill-opacity="0.05"/>
<path d="M10.2174 22L4.08696 12.2791L22.9891 0L22.4783 10.7442L10.2174 22Z" fill="white" fill-opacity="0.15"/>
<path fill-rule="evenodd" clip-rule="evenodd" d="M10.2174 22L22.4783 10.7442L22.9891 0L4.08696 12.2791L10.2174 22ZM10.2807 21.5255L22.1781 10.6033L22.6545 0.583262L4.50783 12.3716L10.2807 21.5255Z" fill="white" fill-opacity="0.15"/>
<path fill-rule="evenodd" clip-rule="evenodd" d="M22.7784 10.885L10.559 22.1028L12.4903 29.8393L38.0641 25.8217L42.0458 8.87429L23.2739 0.4639L22.7784 10.885ZM22.4783 10.7442L10.2174 22L12.2609 30.186L38.3152 26.093L42.4022 8.69767L22.9891 0L22.4783 10.7442Z" fill="white" fill-opacity="0.15"/>
<path fill-rule="evenodd" clip-rule="evenodd" d="M31.1183 43.5873L42.4924 30.7105L38.2087 26.4205L13.0388 30.3745L31.1183 43.5873ZM31.163 44L42.913 30.6977L38.3152 26.093L12.2609 30.186L31.163 44Z" fill="white" fill-opacity="0.15"/>
<path fill-rule="evenodd" clip-rule="evenodd" d="M42.913 30.6977L47 17.907L42.4022 8.69767L38.3152 26.093L42.913 30.6977ZM38.6527 25.9969L42.7743 30.1246L46.67 17.9325L42.5066 9.59332L38.6527 25.9969Z" fill="white" fill-opacity="0.15"/>
<path fill-rule="evenodd" clip-rule="evenodd" d="M12.1235 30.4657L0.872793 27.1793L12.4206 41.1537L30.0047 43.5334L12.1235 30.4657ZM12.2609 30.186L0 26.6046L12.2609 41.4418L31.163 44L12.2609 30.186Z" fill="white" fill-opacity="0.15"/>
<path fill-rule="evenodd" clip-rule="evenodd" d="M0.378475 26.3954L11.834 29.7416L9.93196 22.1222L4.19353 13.0229L0.378475 26.3954ZM0 26.6046L12.2609 30.186L10.2174 22L4.08696 12.2791L0 26.6046Z" fill="white" fill-opacity="0.15"/>
<path d="M23.6972 19.0156H27.1656C27.1154 15.9651 24.6082 13.859 20.7971 13.859C17.0446 13.859 14.2949 15.9317 14.3117 19.0407C14.3033 21.5647 16.0835 23.0105 18.9752 23.7042L20.8389 24.1722C22.7026 24.6235 23.739 25.1584 23.7473 26.3118C23.739 27.5654 22.5522 28.4179 20.7135 28.4179C18.8331 28.4179 17.4792 27.5487 17.3622 25.8354H13.8604C13.9523 29.5378 16.6016 31.4517 20.7553 31.4517C24.9341 31.4517 27.3912 29.4542 27.3996 26.3201C27.3912 23.4702 25.2433 21.9575 22.2681 21.2889L20.7303 20.9211C19.2426 20.5785 17.9973 20.0269 18.0224 18.7983C18.0224 17.6951 19.0002 16.8844 20.7721 16.8844C22.5021 16.8844 23.5635 17.6701 23.6972 19.0156Z" fill="white"/>
<path d="M32.5507 19.3023H29.3182V31.2093H32.5507V19.3023Z" fill="white"/>
<path d="M31.3458 9.90698H30.1627L28.6888 10.8401V11.9564L30.0522 11.1017H30.0871V15.8605H31.3458V9.90698Z" fill="white"/>
<path d="M32.6707 14.814H35.5282V15.8605H36.7317V14.814H37.4701V13.8052H36.7317V9.90698H35.1561L32.6707 13.8227V14.814ZM35.5515 13.8052H33.9381V13.7587L35.505 11.2791H35.5515V13.8052Z" fill="white"/>
<defs>
<linearGradient id="paint0_linear_20005153_1380" x1="0" y1="22.1053" x2="47" y2="22.1053" gradientUnits="userSpaceOnUse">
<stop stop-color="#6366F1"/>
<stop offset="0.5" stop-color="#8B5CF6"/>
<stop offset="1" stop-color="#D946EF"/>
</linearGradient>
<linearGradient id="paint1_linear_20005153_1380" x1="0" y1="22.1053" x2="47" y2="22.1053" gradientUnits="userSpaceOnUse">
<stop stop-color="#6366F1"/>
<stop offset="0.5" stop-color="#8B5CF6"/>
<stop offset="1" stop-color="#D946EF"/>
</linearGradient>
<linearGradient id="paint2_linear_20005153_1380" x1="0" y1="22.1053" x2="47" y2="22.1053" gradientUnits="userSpaceOnUse">
<stop stop-color="#6366F1"/>
<stop offset="0.5" stop-color="#8B5CF6"/>
<stop offset="1" stop-color="#D946EF"/>
</linearGradient>
<linearGradient id="paint3_linear_20005153_1380" x1="0" y1="22.1053" x2="47" y2="22.1053" gradientUnits="userSpaceOnUse">
<stop stop-color="#6366F1"/>
<stop offset="0.5" stop-color="#8B5CF6"/>
<stop offset="1" stop-color="#D946EF"/>
</linearGradient>
<linearGradient id="paint4_linear_20005153_1380" x1="0" y1="22.1053" x2="47" y2="22.1053" gradientUnits="userSpaceOnUse">
<stop stop-color="#6366F1"/>
<stop offset="0.5" stop-color="#8B5CF6"/>
<stop offset="1" stop-color="#D946EF"/>
</linearGradient>
<linearGradient id="paint5_linear_20005153_1380" x1="0" y1="22.1053" x2="47" y2="22.1053" gradientUnits="userSpaceOnUse">
<stop stop-color="#6366F1"/>
<stop offset="0.5" stop-color="#8B5CF6"/>
<stop offset="1" stop-color="#D946EF"/>
</linearGradient>
</defs>
</svg>
