<svg width="56" height="56" viewBox="0 0 56 56" fill="none" xmlns="http://www.w3.org/2000/svg">
<path d="M28 56C43.464 56 56 43.464 56 28C56 12.536 43.464 0 28 0C12.536 0 0 12.536 0 28C0 43.464 12.536 56 28 56Z" fill="url(#paint0_linear_20005153_1708)"/>
<path fill-rule="evenodd" clip-rule="evenodd" d="M11.2 16.8049C11.2 13.7094 13.698 11.2 16.8049 11.2H39.195C42.2905 11.2 44.8 13.698 44.8 16.8049V39.195C44.8 42.2905 42.3019 44.7999 39.195 44.7999H16.8049C13.7094 44.7999 11.2 42.3019 11.2 39.195V16.8049ZM30.1839 17.585V28.251C30.1839 29.365 31.0863 30.268 32.1994 30.268H38.4164C39.5292 30.268 40.4319 29.3649 40.4319 28.251V17.585C40.4319 16.4709 39.5296 15.568 38.4164 15.568H32.1994C31.0866 15.568 30.1839 16.471 30.1839 17.585ZM15.5679 36.6534V17.5826C15.5679 16.4699 16.4706 15.568 17.5834 15.568H23.8004C24.9136 15.568 25.8159 16.47 25.8159 17.5826V36.6534C25.8159 37.766 24.9132 38.668 23.8004 38.668H17.5834C16.4703 38.668 15.5679 37.766 15.5679 36.6534Z" fill="white"/>
<defs>
<linearGradient id="paint0_linear_20005153_1708" x1="0" y1="0" x2="0" y2="56" gradientUnits="userSpaceOnUse">
<stop stop-color="#0091E6"/>
<stop offset="1" stop-color="#0079BF"/>
</linearGradient>
</defs>
</svg>
