<svg width="56" height="56" viewBox="0 0 56 56" fill="none" xmlns="http://www.w3.org/2000/svg">
<path d="M28 56C43.464 56 56 43.464 56 28C56 12.536 43.464 0 28 0C12.536 0 0 12.536 0 28C0 43.464 12.536 56 28 56Z" fill="#2D8CFF"/>
<path fill-rule="evenodd" clip-rule="evenodd" d="M44.4349 18.5912L36.5219 24.3647V31.6575L44.4349 37.431C44.9949 37.8587 45.6523 37.9909 45.6523 36.8232V19.199C45.6523 18.1578 45.1247 18.0269 44.4349 18.5912ZM9.73926 32.3828V19.2351C9.73926 18.6973 10.1792 18.2609 10.7219 18.2609H29.8964C32.8821 18.2609 35.3045 20.659 35.3045 23.6172V36.7649C35.3045 37.3027 34.8645 37.7391 34.3219 37.7391H15.1473C12.1617 37.7391 9.73926 35.341 9.73926 32.3828Z" fill="white"/>
</svg>
